<svg xmlns="http://www.w3.org/2000/svg" width="16" height="16" viewBox="0 0 16 16">
  <path id="share-alt-square" d="M16,33.714V46.286A1.714,1.714,0,0,1,14.286,48H1.714A1.714,1.714,0,0,1,0,46.286V33.714A1.714,1.714,0,0,1,1.714,32H14.286A1.714,1.714,0,0,1,16,33.714Zm-5.143,7.714a1.993,1.993,0,0,0-1.349.524L7.081,40.5a2.012,2.012,0,0,0,0-.993l2.427-1.456a1.994,1.994,0,1,0-.588-.98L6.492,38.524a2,2,0,1,0,0,2.952l2.427,1.456a2,2,0,1,0,1.938-1.5Z" transform="translate(0 -32)" fill="#5cc7c0"/>
</svg>
