<svg xmlns="http://www.w3.org/2000/svg" width="16" height="16" viewBox="0 0 16 16">
  <path id="playlist-add-check-circle-rounded" d="M6.8,10h4.02a.741.741,0,0,0,.56-.23.791.791,0,0,0,.22-.57.784.784,0,0,0-.8-.8H6.78a.742.742,0,0,0-.56.23A.794.794,0,0,0,6,9.2a.786.786,0,0,0,.8.8Zm0-2.4h4.02a.741.741,0,0,0,.56-.23.791.791,0,0,0,.22-.57.784.784,0,0,0-.8-.8H6.78a.742.742,0,0,0-.56.23A.794.794,0,0,0,6,6.8a.786.786,0,0,0,.8.8Zm0,4.8h.82a.741.741,0,0,0,.56-.23.791.791,0,0,0,.22-.57.784.784,0,0,0-.8-.8H6.78a.742.742,0,0,0-.56.23A.794.794,0,0,0,6,11.6a.786.786,0,0,0,.8.8ZM10,18a7.786,7.786,0,0,1-3.12-.63,7.982,7.982,0,0,1-4.25-4.25A7.786,7.786,0,0,1,2,10a7.786,7.786,0,0,1,.63-3.12A7.987,7.987,0,0,1,6.88,2.63,7.794,7.794,0,0,1,10,2a7.794,7.794,0,0,1,3.12.63,7.987,7.987,0,0,1,4.25,4.25A7.786,7.786,0,0,1,18,10a7.786,7.786,0,0,1-.63,3.12,7.982,7.982,0,0,1-4.25,4.25A7.786,7.786,0,0,1,10,18Zm1.64-5.16-.56-.56a.817.817,0,0,0-.57-.25.746.746,0,0,0-.57.23.8.8,0,0,0,0,1.14l1.14,1.14a.773.773,0,0,0,1.12,0l2.86-2.86a.734.734,0,0,0,.23-.56.807.807,0,0,0-.25-.56.846.846,0,0,0-.56-.23.734.734,0,0,0-.56.23Z" transform="translate(-2 -2)" fill="#CCCCCC"/>
</svg>
