<svg xmlns="http://www.w3.org/2000/svg" width="16" height="16" viewBox="0 0 16 16">
  <path id="fire-circle" d="M12.128,11.744A.975.975,0,0,1,12.16,12a1.889,1.889,0,0,1-.584,1.424,2.063,2.063,0,0,1-.688.376,1.817,1.817,0,0,1-1.824-.512A1.756,1.756,0,0,0,10.4,12a3.693,3.693,0,0,0-.184-1.376,2.242,2.242,0,0,1,.1-1.28,3.769,3.769,0,0,0,.4.656c.48.624,1.24.9,1.408,1.744M18,10a8,8,0,1,1-8-8,8.024,8.024,0,0,1,8,8m-3.872.448-.08-.16A6.121,6.121,0,0,0,13.56,9.5a5.851,5.851,0,0,0-.48-.512c-.424-.376-.9-.64-1.3-1.032a3.072,3.072,0,0,1-.544-3.56,4.041,4.041,0,0,0-1.568.824,4.881,4.881,0,0,0-1.5,5.536.567.567,0,0,1,.048.208A.36.36,0,0,1,8,11.28a.364.364,0,0,1-.4-.08.258.258,0,0,1-.1-.1,3.131,3.131,0,0,1-.352-3.184A4.453,4.453,0,0,0,5.6,11.536a4.865,4.865,0,0,0,.192.936,4.349,4.349,0,0,0,.448,1.08,4.375,4.375,0,0,0,3.112,2,4.792,4.792,0,0,0,3.816-.992,3.666,3.666,0,0,0,.96-4.112Z" transform="translate(-2 -2)" fill="#CCCCCC"/>
</svg>
