<svg width="21" height="16" viewBox="0 0 21 16" fill="none" xmlns="http://www.w3.org/2000/svg">
<path fill-rule="evenodd" clip-rule="evenodd" d="M6.63979 3.84256L12.86 0.142113C13.5266 -0.254437 14.3713 0.225915 14.3713 1.00153V14.9985C14.3713 15.7933 13.4888 16.2705 12.8237 15.8352L6.89734 11.957H4.6098V11.9174C4.44201 11.9435 4.27048 11.957 4.09606 11.957C2.10984 11.957 0.499695 10.2055 0.499695 8.04483C0.499695 5.88419 2.10984 4.13264 4.09606 4.13264C4.27048 4.13264 4.44201 4.14614 4.6098 4.17225V4.13264H6.32895C6.40929 4.01661 6.51452 3.91708 6.63979 3.84256ZM20.0228 7.06795H15.9127V9.02485H20.0228V7.06795ZM15.9127 3.1555L19.4725 1.19921L20.5003 2.89376L16.9405 4.85004L15.9127 3.1555ZM20.5001 12.9357L16.9402 10.9794L15.9124 12.674L19.4722 14.6302L20.5001 12.9357Z" fill="#FFBB00"/>
</svg>
