<?xml version="1.0" standalone="no"?><!DOCTYPE svg PUBLIC "-//W3C//DTD SVG 1.1//EN" "http://www.w3.org/Graphics/SVG/1.1/DTD/svg11.dtd"><svg t="1517759912176" class="icon" style="" viewBox="0 0 1024 1024" version="1.1" xmlns="http://www.w3.org/2000/svg" p-id="6089" xmlns:xlink="http://www.w3.org/1999/xlink" width="200" height="200"><defs><style type="text/css"></style></defs><path d="M713.514667 102.186667l-97.706667 0-32.917333 60.693333c-31.381333 58.730667-50.624 97.877333-57.621333 117.205333l-1.984 0c-13.674667-31.146667-44.16-90.794667-90.709333-177.898667l-104.426667 0 114.901333 197.482667-127.04 0 0 78.122667 156.138667 0 0 107.754667-156.138667 0 0 79.274667 156.138667 0 0 177.856 98.197333 0 0-177.856 149.162667 0L719.509333 485.546667l-149.162667 0 0-107.754667 149.162667 0 0-78.122667-122.069333 0L713.514667 102.186667zM888 215.168 743.466667 215.168l0 53.824 144.533333 0c33.877333 0 61.546667 27.605333 61.546667 61.504l0 484.458667c0 33.984-27.669333 61.568-61.546667 61.568L137.728 876.522667c-33.856 0-61.525333-27.584-61.525333-61.568L76.202667 330.517333c0-33.898667 27.669333-61.504 61.525333-61.504l144.576 0 0-53.824L137.728 215.189333c-63.658667 0-115.349333 51.648-115.349333 115.349333l0 484.458667c0 63.744 51.690667 115.349333 115.349333 115.349333l750.272 0c63.722667 0 115.328-51.605333 115.328-115.349333L1003.328 330.517333C1003.328 266.816 951.722667 215.168 888 215.168z" p-id="6090"></path></svg>