<?xml version="1.0" standalone="no"?><!DOCTYPE svg PUBLIC "-//W3C//DTD SVG 1.1//EN" "http://www.w3.org/Graphics/SVG/1.1/DTD/svg11.dtd"><svg t="1529920949106" class="icon" style="" viewBox="0 0 1024 1024" version="1.1" xmlns="http://www.w3.org/2000/svg" p-id="7492" xmlns:xlink="http://www.w3.org/1999/xlink" width="200" height="200"><defs><style type="text/css"></style></defs><path d="M885.4016 112.64H136.2432C60.928 112.64 0 171.6736 0 244.1728v430.08c0 72.3968 60.928 131.1744 136.2432 131.1744H291.84v140.6464c0 6.656 2.304 10.8032 7.68 10.8032s12.1344-3.2256 22.2208-10.8032c21.6064-16.3328 180.0192-140.8 180.0192-140.8h383.4368c75.1616 0 136.192-58.7776 136.192-131.1744v-430.08C1021.5936 171.6736 960.6144 112.64 885.4016 112.64z m63.232 561.3056a62.1056 62.1056 0 0 1-63.232 60.8256H501.76a74.2912 74.2912 0 0 0-46.08 15.8208l-90.6752 71.3728v-16.7424A71.68 71.68 0 0 0 291.84 734.976H136.2432a62.1568 62.1568 0 0 1-63.2832-60.8256v-430.08a62.2592 62.2592 0 0 1 63.2832-60.928h749.1584a62.2592 62.2592 0 0 1 63.232 61.0304zM291.84 411.6992a52.7872 52.7872 0 1 0 54.784 52.736A53.76 53.76 0 0 0 291.84 411.6992z m218.9312 0a52.7872 52.7872 0 1 0 54.7328 52.736 53.76 53.76 0 0 0-54.6816-52.736z m218.9312 0a52.7872 52.7872 0 1 0 54.7328 52.736 53.76 53.76 0 0 0-54.7328-52.736z" p-id="7493"></path></svg>