<?xml version="1.0" standalone="no"?><!DOCTYPE svg PUBLIC "-//W3C//DTD SVG 1.1//EN" "http://www.w3.org/Graphics/SVG/1.1/DTD/svg11.dtd"><svg t="1517760170721" class="icon" style="" viewBox="0 0 1024 1024" version="1.1" xmlns="http://www.w3.org/2000/svg" p-id="6909" xmlns:xlink="http://www.w3.org/1999/xlink" width="200" height="200"><defs><style type="text/css"></style></defs><path d="M332.8 256l89.6-83.2v492.8c0 19.2 12.8 32 32 32h6.4c19.2 0 32-12.8 32-32V172.8L576 249.6c12.8 12.8 32 12.8 44.8 0 12.8-12.8 12.8-32 0-44.8L486.4 83.2c-6.4-6.4-19.2-19.2-32-19.2s-25.6 6.4-32 19.2l-140.8 128c-12.8 12.8-12.8 32 0 44.8 12.8 12.8 38.4 12.8 51.2 0z" p-id="6910"></path><path d="M806.4 384h-64c-12.8 0-25.6 12.8-25.6 32s12.8 32 25.6 32h32c19.2 0 32 12.8 32 32v384c0 19.2-12.8 32-32 32h-640c-19.2 0-32-12.8-32-32v-384c0-12.8 19.2-32 32-32h32c19.2 0 32-12.8 32-32 0-12.8-12.8-32-32-32h-64c-38.4 0-64 25.6-64 64v448c0 38.4 25.6 64 64 64h704c38.4 0 64-25.6 64-64V448c0-32-25.6-64-64-64z" p-id="6911"></path></svg>