<svg width="16" height="15" viewBox="0 0 16 15" fill="none" xmlns="http://www.w3.org/2000/svg">
<g clip-path="url(#clip0_0_8)">
<path d="M11.1573 0C10.9996 0.473399 10.8353 0.940036 10.6776 1.41344C10.6513 1.48783 10.6119 1.49459 10.5462 1.49459C9.86285 1.49459 9.17948 1.49459 8.49611 1.49459C8.41069 1.49459 8.37126 1.52164 8.34498 1.6028C7.18194 4.78133 6.0189 7.95987 4.86244 11.1384C4.82958 11.2331 4.79016 11.2601 4.69159 11.2534C4.34334 11.2534 4.00166 11.2534 3.64026 11.2534C3.65997 11.1925 3.67311 11.1384 3.69283 11.0843C4.99385 7.43237 6.29488 3.76691 7.58933 0.108206C7.60248 0.0743913 7.60248 0.0338142 7.61562 0C8.79837 0 9.97455 0 11.1573 0Z" fill="#FF0E00"/>
<path d="M5.37492 15C5.48005 14.7024 5.58518 14.4184 5.69032 14.1343C6.97163 10.638 8.25295 7.14832 9.53426 3.65193C9.57369 3.55049 9.62625 3.52344 9.71824 3.52344C10.7696 3.52344 11.8209 3.50991 12.8788 3.52344C13.2336 3.52344 13.5688 3.65869 13.8973 3.80071C15.0735 4.32822 15.7634 5.25473 15.954 6.55996C16.1642 7.99368 15.7306 9.23128 14.8041 10.2795C14.2521 10.9017 13.5293 11.206 12.7145 11.3075C12.6817 11.3075 12.6554 11.3075 12.6226 11.3075C11.8275 11.3075 11.039 11.3075 10.2439 11.3075C10.1519 11.3075 10.1125 11.3278 10.0796 11.4224C9.69853 12.5721 9.31085 13.7286 8.92974 14.8783C8.89689 14.9729 8.86403 15 8.76547 15C7.67471 15 6.58395 15 5.49319 15C5.45377 15 5.42091 15 5.36835 15H5.37492ZM11.0324 8.92695C11.2558 8.91343 11.4398 8.91343 11.6238 8.89314C12.4123 8.80522 12.938 8.23038 12.984 7.41208C13.0168 6.8981 12.5831 6.4788 12.0837 6.54643C11.9918 6.55996 11.9392 6.59377 11.9063 6.68845C11.6829 7.27006 11.4529 7.8449 11.2295 8.41974C11.1704 8.57528 11.1047 8.73759 11.0324 8.92695Z" fill="#FF0E00"/>
<path d="M4.20533 8.77817C4.13962 8.96753 4.07391 9.1366 4.01478 9.31243C3.80451 9.9008 3.58767 10.4959 3.3774 11.0843C3.35769 11.1452 3.33141 11.1722 3.25913 11.1655C2.17494 11.0234 1.24188 10.6041 0.558513 9.69115C0.190546 9.21099 0.032846 8.64967 -8.24081e-06 8.04778C-0.0328624 7.31063 0.0919835 6.60729 0.387671 5.93777C0.558513 5.54552 0.834489 5.22091 1.12361 4.91658C1.73469 4.28087 2.45092 3.82776 3.30513 3.6384C3.62053 3.57077 3.9425 3.53696 4.2579 3.51667C4.82299 3.48962 5.38808 3.48286 5.95317 3.46933C5.9926 3.46933 6.02545 3.46933 6.07802 3.46933C6.0386 3.5843 5.99917 3.68574 5.95974 3.79395C5.65749 4.61901 5.34866 5.44408 5.05297 6.27591C5.02669 6.3503 5.0004 6.37059 4.91498 6.35707C4.04106 6.19476 3.35769 6.62758 3.10143 7.55409C3.02915 7.8246 3.06857 8.10188 3.18685 8.35887C3.25913 8.50765 3.37083 8.62262 3.52853 8.67672C3.7388 8.75112 3.95564 8.80522 4.19876 8.78493L4.20533 8.77817Z" fill="#FF0E00"/>
<path d="M4.59961 12.8156C4.67846 12.5992 4.75074 12.4031 4.82302 12.2069C6.08462 8.77818 7.34622 5.34942 8.60782 1.92065C8.64068 1.82597 8.68667 1.79892 8.78524 1.79892C9.85628 1.79892 10.9273 1.79892 11.9918 1.79892C12.0312 1.79892 12.0641 1.79892 12.1167 1.79892C12.1035 1.83273 12.0969 1.85979 12.0904 1.88684C11.9327 2.27908 11.775 2.66456 11.6238 3.05681C11.5976 3.12444 11.5647 3.15149 11.4859 3.15149C10.8156 3.15149 10.1454 3.15149 9.48175 3.15149C9.38975 3.15149 9.35033 3.1853 9.32404 3.26646C8.23986 6.18801 7.16224 9.1028 6.07805 12.0243C5.99263 12.261 5.90721 12.4977 5.81522 12.7344C5.80207 12.7683 5.76922 12.8156 5.74294 12.8156C5.37497 12.8156 5.00043 12.8156 4.61275 12.8156H4.59961Z" fill="#FF0E00"/>
</g>
<defs>
<clipPath id="clip0_0_8">
<rect width="16" height="15" fill="white"/>
</clipPath>
</defs>
</svg>
