<?xml version="1.0" standalone="no"?><!DOCTYPE svg PUBLIC "-//W3C//DTD SVG 1.1//EN" "http://www.w3.org/Graphics/SVG/1.1/DTD/svg11.dtd"><svg t="1552402106329" class="icon" style="" viewBox="0 0 1024 1024" version="1.1" xmlns="http://www.w3.org/2000/svg" p-id="11040" xmlns:xlink="http://www.w3.org/1999/xlink" width="200" height="200"><defs><style type="text/css"></style></defs><path d="M710.656 665.088L557.568 512l153.088-153.088c12.8-12.8 12.8-33.28 0-45.568-12.8-12.8-33.28-12.8-45.568 0l-153.088 153.088-153.088-153.088c-12.8-12.8-33.28-12.8-45.568 0-12.8 12.8-12.8 33.28 0 45.568l153.088 153.088-153.088 153.088c-12.8 12.8-12.8 33.28 0 45.568 12.8 12.8 33.28 12.8 45.568 0l153.088-153.088 153.088 153.088c12.8 12.8 33.28 12.8 45.568 0 12.288-12.8 12.288-33.28 0-45.568z" fill="" p-id="11041"></path><path d="M512 0c-282.624 0-512 229.888-512 512s229.376 512 512 512c282.112 0 512-229.888 512-512s-229.888-512-512-512z m0 955.904c-244.736 0-444.416-199.168-444.416-443.904 0-244.736 199.168-443.904 444.416-443.904 244.736 0 444.416 199.168 444.416 443.904 0 244.736-199.68 443.904-444.416 443.904z" fill="" p-id="11042"></path></svg>