<?xml version="1.0" standalone="no"?><!DOCTYPE svg PUBLIC "-//W3C//DTD SVG 1.1//EN" "http://www.w3.org/Graphics/SVG/1.1/DTD/svg11.dtd"><svg t="1552400313589" class="icon" style="" viewBox="0 0 1024 1024" version="1.1" xmlns="http://www.w3.org/2000/svg" p-id="9540" xmlns:xlink="http://www.w3.org/1999/xlink" width="200" height="200"><defs><style type="text/css"></style></defs><path d="M169.8 361.7V956L107 989.5c2.8-150.6 4.2-317.2 4.2-499.9s-1.4-334-4.2-453.9l67 41.9h192.5l41.8-41.9L462.7 90l-33.5 25.1c0 128.2 1.4 211.8 4.2 250.8l-58.6 29.3v-33.5h-205z m0-259v104.9h205V102.7h-205z m0 130v103.9h205V232.7h-205z m447.7 435c0 111.6 1.4 185.5 4.2 221.7l-58.6 29.3c2.8-69.7 4.2-153.4 4.2-251H441.8c-2.8 58.6-20.2 109.5-52.3 152.7-32.1 43.2-88.6 77.4-169.4 102.5l-4.2-16.7c72.5-36.3 119.2-76.7 140.1-121.3 20.9-44.6 31.4-83.7 31.4-117.1h-37.6c-22.3 0-48.8 4.2-79.5 12.5l-37.6-37.6h159v-143c-27.9 0-54.4 4.2-79.5 12.5l-37.7-37.6h364l41.8-41.8 62.8 66.9H617.5v142.9h66.9l46-46 66.9 71.1H617.5z m-175.7-168v142.9h125.5V499.7H441.8z m138-96.2c2.8-27.9 4.2-87.1 4.2-177.6s-1.4-152.5-4.2-186L651 77.6h184l41.8-41.9 58.6 58.6-33.4 25.1v753c0 30.7-4.9 53.7-14.7 69-9.8 15.3-34.2 32.8-73.2 52.3-16.8-41.9-58.6-71.2-125.5-87.9V889c53 8.4 92 12.6 117.1 12.6 13.9 0 23.7-2.8 29.3-8.4s8.4-15.3 8.4-29.3V361.7H642.6v16.7l-62.8 25.1z m62.8-300.8v104.9h200.8V102.7H642.6z m0 130v103.9h200.8V232.7H642.6z" p-id="9541"></path></svg>