<?xml version="1.0" standalone="no"?><!DOCTYPE svg PUBLIC "-//W3C//DTD SVG 1.1//EN" "http://www.w3.org/Graphics/SVG/1.1/DTD/svg11.dtd"><svg t="1552395358610" class="icon" style="" viewBox="0 0 1024 1024" version="1.1" xmlns="http://www.w3.org/2000/svg" p-id="8803" xmlns:xlink="http://www.w3.org/1999/xlink" width="200" height="200"><defs><style type="text/css"></style></defs><path d="M55.59808 309.98016V887.296c0 110.35648 23.07584 119.15776 127.20128 119.15776h658.40128c104.11008 0 127.19104-8.8064 127.19104-119.20384V304.50688l-912.7936 5.47328z" fill="#EB4B29" p-id="8804"></path><path d="M841.22112 43.10016H182.80448c-104.12544 0-127.20128 29.184-127.20128 139.58144v137.7792s169.9328 101.82656 451.10272 101.82656c281.1904 0 461.69088-103.58784 461.69088-103.58784V182.65088c0.0256-110.36672-23.08096-139.55072-127.17568-139.55072z" fill="#CF2709" p-id="8805"></path><path d="M841.22112 17.54112H182.80448c-104.12544 0-127.20128 29.184-127.20128 139.58144v137.7792s169.9328 101.82144 451.10272 101.82144c281.1904 0 461.69088-103.57248 461.69088-103.57248V157.09184c0.0256-110.36672-23.08096-139.55072-127.17568-139.55072z" fill="#FF583F" p-id="8806"></path><path d="M724.72576 394.51136c0 117.48352-95.26272 212.72064-212.72576 212.72064S299.27936 511.98976 299.27936 394.51136c0-117.47328 95.25248-212.71552 212.72064-212.71552 117.45792 0 212.72576 95.24224 212.72576 212.71552z" fill="#FED848" p-id="8807"></path><path d="M565.66272 256.64512L522.47552 352.768a523.69408 523.69408 0 0 0-7.87456 18.57536h-0.77312l-52.17792-114.7392H397.91616l71.39328 128H415.17056v36.46464h66.00192v31.48288H415.17056v36.46464h66.00192v52.864h60.49792v-52.8384h63.90272v-36.45952h-63.90272v-31.47776h63.90272v-36.46464h-52.992l73.49248-127.99488h-60.41088z" fill="#EB4B29" p-id="8808"></path></svg>