<?xml version="1.0" standalone="no"?><!DOCTYPE svg PUBLIC "-//W3C//DTD SVG 1.1//EN" "http://www.w3.org/Graphics/SVG/1.1/DTD/svg11.dtd"><svg t="1552395263621" class="icon" style="" viewBox="0 0 1024 1024" version="1.1" xmlns="http://www.w3.org/2000/svg" p-id="3214" xmlns:xlink="http://www.w3.org/1999/xlink" width="200" height="200"><defs><style type="text/css"></style></defs><path d="M897.1 956.2H130V321.7h84l599.1-10h84z" fill="#C93400" p-id="3215"></path><path d="M646.4 475.8s-23.9 100.3-134.3 100.3-156.6-103.8-156.6-103.8c-88-16-137.2-44.8-199.4-81.2L130 375.8V66.2h767.1v298.6l-19.5 12.4c-4.3 2.7-8.5 5.4-12.7 8-65.6 41.8-117.5 74.8-218.5 90.6z" fill="#FF5D24" p-id="3216"></path><path d="M508.2 619c-96.7 0-175.4-78.7-175.4-175.4s78.7-175.4 175.4-175.4 175.4 78.7 175.4 175.4S605 619 508.2 619z" fill="#EFCE73" p-id="3217"></path><path d="M606.5 512.1V471h-74.9v-49.2h74.9v-41H586l11.4-45.9h-42.3l-11.3 45.9h-59.3l-12.8-45.9h-42.5l12.7 45.9h-24.7v41h73.4V471h-73.4v41.1h73.4V574h41v-61.9z" fill="#FF5D24" p-id="3218"></path></svg>