<svg width="22" height="22" viewBox="0 0 22 22" fill="none" xmlns="http://www.w3.org/2000/svg">
<path d="M6.1595 7.36842L5.51266 7.43244V7.43244L6.1595 7.36842ZM7.9306 11.3947L8.39259 10.9375H8.39259L7.9306 11.3947ZM7.48783 13.6316L7.19474 13.0514V13.0514L7.48783 13.6316ZM2.17452 16.3158L2.46761 16.896L2.17452 16.3158ZM17.6717 16.3158L17.9648 15.7356L17.6717 16.3158ZM12.3584 13.6316L12.6515 13.0514L12.6515 13.0514L12.3584 13.6316ZM11.9156 11.3947L11.4536 10.9375L11.9156 11.3947ZM13.6867 7.36842L14.3335 7.43244V7.43244L13.6867 7.36842ZM6.80634 7.3044C6.60173 5.2371 7.2159 4.11458 7.91835 3.49356C8.65508 2.84224 9.59367 2.65 10.1445 2.65V1.35C9.36697 1.35 8.09168 1.60513 7.0573 2.5196C5.98865 3.46437 5.27449 5.02605 5.51266 7.43244L6.80634 7.3044ZM8.39259 10.9375C7.6901 10.2277 6.97028 8.96077 6.80634 7.3044L5.51266 7.43244C5.70605 9.38638 6.55688 10.9308 7.46862 11.852L8.39259 10.9375ZM7.78092 14.2117C8.38804 13.905 8.81034 13.3677 8.94257 12.7498C9.07693 12.122 8.90128 11.4515 8.39259 10.9375L7.46862 11.852C7.66837 12.0538 7.71411 12.278 7.67135 12.4778C7.62647 12.6875 7.47317 12.9107 7.19474 13.0514L7.78092 14.2117ZM2.46761 16.896L7.78092 14.2117L7.19474 13.0514L1.88143 15.7356L2.46761 16.896ZM1.49619 18.1053C1.49619 17.7775 1.57279 17.5916 1.68787 17.4463C1.82093 17.2782 2.05169 17.1061 2.46761 16.896L1.88143 15.7356C1.4118 15.9729 0.978388 16.2481 0.668673 16.6393C0.340982 17.0531 0.196191 17.5383 0.196191 18.1053H1.49619ZM3.06007 18.35C2.35496 18.35 1.91298 18.3438 1.63529 18.2637C1.51527 18.229 1.49827 18.1987 1.50676 18.209C1.52188 18.2273 1.49619 18.2184 1.49619 18.1053H0.196191C0.196191 18.4395 0.281195 18.7661 0.503867 19.0361C0.719906 19.2981 1.00732 19.4355 1.27473 19.5127C1.7719 19.6562 2.43685 19.65 3.06007 19.65V18.35ZM10.1445 18.35H3.06007V19.65H10.1445V18.35ZM10.1445 19.65H16.7861V18.35H10.1445V19.65ZM16.7861 19.65C17.4093 19.65 18.0743 19.6562 18.5715 19.5127C18.8389 19.4355 19.1263 19.2981 19.3423 19.0361C19.565 18.7661 19.65 18.4395 19.65 18.1053H18.35C18.35 18.2184 18.3243 18.2273 18.3394 18.209C18.3479 18.1987 18.3309 18.229 18.2109 18.2637C17.9332 18.3438 17.4912 18.35 16.7861 18.35V19.65ZM19.65 18.1053C19.65 17.5383 19.5052 17.0531 19.1775 16.6393C18.8678 16.2481 18.4344 15.9729 17.9648 15.7356L17.3786 16.896C17.7945 17.1061 18.0253 17.2782 18.1583 17.4463C18.2734 17.5916 18.35 17.7775 18.35 18.1053H19.65ZM17.9648 15.7356L12.6515 13.0514L12.0653 14.2117L17.3786 16.896L17.9648 15.7356ZM12.6515 13.0514C12.373 12.9107 12.2197 12.6875 12.1748 12.4778C12.1321 12.278 12.1778 12.0538 12.3776 11.852L11.4536 10.9375C10.9449 11.4515 10.7693 12.122 10.9036 12.7498C11.0358 13.3677 11.4582 13.905 12.0653 14.2117L12.6515 13.0514ZM12.3776 11.852C13.2893 10.9308 14.1401 9.38638 14.3335 7.43244L13.0399 7.3044C12.8759 8.96077 12.1561 10.2277 11.4536 10.9375L12.3776 11.852ZM14.3335 7.43244C14.5682 5.06113 13.9891 3.50653 13.0417 2.54934C12.1132 1.61112 10.9314 1.35 10.1445 1.35V2.65C10.6859 2.65 11.4966 2.83624 12.1178 3.46382C12.7201 4.07241 13.2479 5.20203 13.0399 7.3044L14.3335 7.43244Z" fill="black"/>
<path d="M18.4999 6.59998V13.3" stroke="black" stroke-width="1.3"/>
<path d="M15 10L21.7652 10" stroke="black" stroke-width="1.3"/>
</svg>
