<svg width="27" height="27" viewBox="0 0 27 27" fill="none" xmlns="http://www.w3.org/2000/svg">
<path fill-rule="evenodd" clip-rule="evenodd" d="M12.125 3.5C10.625 3.5 7.125 4.55263 7.625 9.81579C7.82675 11.9395 8.71357 13.5932 9.625 14.5526C10.425 15.3947 10.125 16.6579 9.125 17.1842L3.125 20.3421C2.125 20.8684 1.625 21.3947 1.625 22.4474C1.625 23.5 2.625 23.5 4.125 23.5H12.125H19.625C21.125 23.5 22.125 23.5 22.125 22.4474C22.125 21.3947 21.625 20.8684 20.625 20.3421L14.625 17.1842C13.625 16.6579 13.325 15.3947 14.125 14.5526C15.0364 13.5932 15.9232 11.9395 16.125 9.81579C16.625 4.55263 13.625 3.5 12.125 3.5Z" fill="#07C160"/>
<line x1="18.625" y1="9.75" x2="26.625" y2="9.75" stroke="#07C160" stroke-width="1.5"/>
<line x1="20.625" y1="13.25" x2="26.625" y2="13.25" stroke="#07C160" stroke-width="1.5"/>
<line x1="22.625" y1="16.75" x2="26.625" y2="16.75" stroke="#07C160" stroke-width="1.5"/>

</svg>
