<svg width="27" height="27" viewBox="0 0 27 27" fill="none" xmlns="http://www.w3.org/2000/svg">
<path fill-rule="evenodd" clip-rule="evenodd" d="M13.625 3.5C12.125 3.5 8.625 4.55263 9.125 9.81579C9.32675 11.9395 10.2136 13.5932 11.125 14.5526C11.925 15.3947 11.625 16.6579 10.625 17.1842L4.625 20.3421C3.625 20.8684 3.125 21.3947 3.125 22.4474C3.125 23.5 4.125 23.5 5.625 23.5H13.625H21.125C22.625 23.5 23.625 23.5 23.625 22.4474C23.625 21.3947 23.125 20.8684 22.125 20.3421L16.125 17.1842C15.125 16.6579 14.825 15.3947 15.625 14.5526C16.5364 13.5932 17.4232 11.9395 17.625 9.81579C18.125 4.55263 15.125 3.5 13.625 3.5Z" fill="#07C160"/>
</svg>
