<svg width="27" height="27" viewBox="0 0 27 27" fill="none" xmlns="http://www.w3.org/2000/svg">
<path d="M6.25457 19.2629H7.00457C7.00457 19.0351 6.90102 18.8196 6.72313 18.6773L6.25457 19.2629ZM6.25457 23.1499H5.50457C5.50457 23.4066 5.63586 23.6455 5.85256 23.7831C6.06927 23.9207 6.34129 23.9379 6.57361 23.8287L6.25457 23.1499ZM10.1925 21.299L10.4077 20.5806C10.2308 20.5276 10.0406 20.5417 9.87342 20.6203L10.1925 21.299ZM24.3336 12.6731C24.3336 17.1974 19.8383 21.0963 13.9793 21.0963V22.5963C20.3858 22.5963 25.8336 18.2812 25.8336 12.6731H24.3336ZM13.9793 4.25C19.8383 4.25 24.3336 8.14887 24.3336 12.6731H25.8336C25.8336 7.06503 20.3858 2.75 13.9793 2.75V4.25ZM3.625 12.6731C3.625 8.14887 8.12033 4.25 13.9793 4.25V2.75C7.57281 2.75 2.125 7.06503 2.125 12.6731H3.625ZM6.72313 18.6773C4.78598 17.1274 3.625 14.9945 3.625 12.6731H2.125C2.125 15.5239 3.55496 18.0634 5.78601 19.8485L6.72313 18.6773ZM7.00457 23.1499V19.2629H5.50457V23.1499H7.00457ZM9.87342 20.6203L5.93554 22.4711L6.57361 23.8287L10.5115 21.9778L9.87342 20.6203ZM13.9793 21.0963C12.722 21.0963 11.5193 20.9137 10.4077 20.5806L9.97717 22.0175C11.2291 22.3926 12.5769 22.5963 13.9793 22.5963V21.0963Z" fill="black"/>
</svg>
