<svg id="组件_67_1" data-name="组件 67 – 1" xmlns="http://www.w3.org/2000/svg" width="20" height="20" viewBox="0 0 20 20">
  <rect id="矩形_1473" data-name="矩形 1473" width="20" height="20" fill="none"/>
  <g id="exercise-running" transform="translate(3.545 1.394)">
    <path id="路径_2815" data-name="路径 2815" d="M19.933,7.873A1.936,1.936,0,1,0,18,5.936,1.936,1.936,0,0,0,19.933,7.873Zm-3.89,1.843a2.846,2.846,0,0,0-1.2.583,6.339,6.339,0,0,0-1.285,1.759.861.861,0,0,1-1.494-.854,7.921,7.921,0,0,1,1.671-2.221,5.064,5.064,0,0,1,2.841-1.1,3.032,3.032,0,0,1,1.585.188,2.459,2.459,0,0,1,1.221,1.269,7.939,7.939,0,0,0,.859,1.53,1.03,1.03,0,0,0,.221.219.128.128,0,0,0,.052.024h0a1.211,1.211,0,0,0,.515-.158c.155-.069.325-.151.532-.253l.049-.024q.38-.188.768-.361a.861.861,0,1,1,.7,1.573q-.359.161-.711.335l-.056.028c-.2.1-.4.194-.585.277a2.717,2.717,0,0,1-1.419.292A2.1,2.1,0,0,1,18.947,12L17.771,14.27,19.4,16.387a.866.866,0,0,1,.173.435l.358,3.441a.861.861,0,1,1-1.712.178l-.333-3.2L16.9,15.957l-.009.016-.036-.074-1.825-2.375a.861.861,0,0,1-.121-.832l1.139-2.976Z" transform="translate(-10.682 -4)" fill="#fff"/>
    <path id="路径_2816" data-name="路径 2816" d="M13.059,29.007l-.633,1.7-2.5-.2a.861.861,0,1,0-.137,1.716l3.145.25a.861.861,0,0,0,.875-.558l.484-1.3Z" transform="translate(-9.001 -18.246)" fill="#fff"/>
  </g>
</svg>
