<?xml version="1.0" encoding="UTF-8"?><svg id="Layer_1" xmlns="http://www.w3.org/2000/svg" viewBox="0 0 34 46"><defs><style>.cls-1{stroke-miterlimit:10;}.cls-1,.cls-2{fill:none;stroke:#fff;stroke-width:.76px;}.cls-3{fill:#fff;}.cls-4,.cls-5{fill:#c62a34;}.cls-6{fill:#383838;}.cls-2{stroke-linecap:square;stroke-linejoin:bevel;}.cls-5{font-family:ToppanBunkyuMidashiGothicStdN-ExtraBold-83pv-RKSJ-H, 'Toppan Bunkyu Midashi Gothic';font-size:19.62px;}</style></defs><g><path class="cls-3" d="M3.65,45.53c-1.76,0-3.19-1.35-3.19-3.01V3.47C.47,1.82,1.89,.47,3.65,.47H30.35c1.76,0,3.19,1.35,3.19,3.01V42.53c0,1.66-1.43,3.01-3.19,3.01H3.65Z"/><path class="cls-6" d="M30.35,.93c1.5,0,2.72,1.14,2.72,2.54V42.53c0,1.4-1.22,2.54-2.72,2.54H3.65c-1.5,0-2.72-1.14-2.72-2.54V3.47C.93,2.07,2.15,.93,3.65,.93H30.35M30.35,0H3.65C1.64,0,0,1.56,0,3.47V42.53C0,44.44,1.64,46,3.65,46H30.35c2.01,0,3.65-1.56,3.65-3.47V3.47C34,1.56,32.36,0,30.35,0h0Z"/></g><text class="cls-5" transform="translate(3.73 19.76) scale(.85 1)"><tspan x="0" y="0">7</tspan></text><path class="cls-4" d="M31.01,30.49c-.29,5.15-11.11,12.98-11.11,12.98,0,0-11.13-7.89-11.13-13.04,0-3.55,3.04-6.41,6.75-6.41,2.09,0,4.41,1.8,4.41,1.8,0,0,2.21-1.8,4.35-1.77,3.72,.04,6.91,2.9,6.72,6.45Z"/><g><polygon class="cls-1" points="14.92 28 23.18 29.86 24.96 31.07 19.16 38.97 14.92 28"/><polyline class="cls-2" points="22.95 30.07 19.83 33.33 24.64 31.2"/><polyline class="cls-2" points="15.15 28.22 19.83 33.33 19.16 38.59"/></g></svg>