<svg version="1.2" xmlns="http://www.w3.org/2000/svg" viewBox="0 0 44 44" width="44" height="44">
	<title>bet_n-svg</title>
	<style>
		.s0 { fill: #a091f4 } 
		.s1 { fill: none } 
		.s2 { fill: none;stroke: #dbd5ff;stroke-dasharray: 3 } 
	</style>
	<g id="组_3519">
		<path id="椭圆_10" class="s0" d="m22 44c-12.2 0-22-9.8-22-22 0-12.2 9.8-22 22-22 12.2 0 22 9.8 22 22 0 12.2-9.8 22-22 22z"/>
		<g id="椭圆_22">
			<path id="Layer" class="s1" d="m22 42c-11.1 0-20-8.9-20-20 0-11.1 8.9-20 20-20 11.1 0 20 8.9 20 20 0 11.1-8.9 20-20 20z"/>
			<path id="Layer" class="s2" d="m22 41.5c-10.8 0-19.5-8.7-19.5-19.5 0-10.8 8.7-19.5 19.5-19.5 10.8 0 19.5 8.7 19.5 19.5 0 10.8-8.7 19.5-19.5 19.5z"/>
		</g>
	</g>
</svg>