<svg xmlns="http://www.w3.org/2000/svg" width="50" height="68" viewBox="0 0 50 68">
  <g id="heart_1" data-name="heart 1" transform="translate(-0.25)">
    <g id="组_3491" data-name="组 3491" transform="translate(0.25)">
      <path id="路径_3023" data-name="路径 3023" d="M6.728,67.464a5.063,5.063,0,0,1-5.162-4.932L1.42,6.869A5.052,5.052,0,0,1,6.575,1.91L44.3,1.978a5.069,5.069,0,0,1,5.148,4.966V62.485a5.047,5.047,0,0,1-5.134,4.932l-37.59.047Z" transform="translate(-0.609 -0.62)" fill="#c9c9c9"/>
      <g id="组_3490" data-name="组 3490">
        <path id="路径_3024" data-name="路径 3024" d="M6.961,67.663A5.68,5.68,0,0,1,1.21,62.076V6.547A5.676,5.676,0,0,1,6.961.96H44.135a5.68,5.68,0,0,1,5.751,5.587V62.076a5.676,5.676,0,0,1-5.751,5.587Z" transform="translate(-0.545 -0.311)" fill="#fff"/>
        <path id="路径_3025" data-name="路径 3025" d="M43.841,1.3a5.019,5.019,0,0,1,5.086,4.939V61.764A5.019,5.019,0,0,1,43.841,66.7H6.666A5.019,5.019,0,0,1,1.58,61.764V6.236A5.019,5.019,0,0,1,6.666,1.3H43.841m0-1.3H6.666A6.338,6.338,0,0,0,.25,6.236V61.764A6.332,6.332,0,0,0,6.659,68H43.841a6.332,6.332,0,0,0,6.409-6.236V6.236A6.332,6.332,0,0,0,43.841,0Z" transform="translate(-0.25 0)" fill="#383838"/>
      </g>
    </g>
    <text id="A" transform="translate(4.546 30.127)" fill="#c62a34" font-size="34" font-family="Helvetica-Bold, Helvetica" font-weight="700"><tspan x="0" y="0">A</tspan></text>
    <path id="路径_3026" data-name="路径 3026" d="M50.769,61.655C50.367,68.979,35.3,80.113,35.3,80.113S19.81,68.9,19.81,61.561a9.274,9.274,0,0,1,9.4-9.121c2.9,0,6.139,2.554,6.139,2.554s3.076-2.554,6.063-2.513c5.183.061,9.624,4.121,9.354,9.168Z" transform="translate(-6.007 -17.011)" fill="#c62a34"/>
    <g id="组_3492" data-name="组 3492" transform="translate(22.354 41.104)">
      <path id="路径_3027" data-name="路径 3027" d="M32.15,60.84l11.5,2.655,2.481,1.716L38.054,76.447Z" transform="translate(-32.15 -60.84)" fill="none" stroke="#fff" stroke-width="1.3"/>
      <path id="路径_3028" data-name="路径 3028" d="M46.371,65.21,42.02,69.838l6.7-3.02" transform="translate(-35.181 -62.258)" fill="none" stroke="#fff" stroke-linecap="square" stroke-linejoin="bevel" stroke-width="1.3"/>
      <path id="路径_3029" data-name="路径 3029" d="M32.61,61.3l6.52,7.27-.935,7.479" transform="translate(-32.291 -60.989)" fill="none" stroke="#fff" stroke-linecap="square" stroke-linejoin="bevel" stroke-width="1.3"/>
    </g>
  </g>
</svg>
