<svg xmlns="http://www.w3.org/2000/svg" xmlns:xlink="http://www.w3.org/1999/xlink" width="18" height="18" viewBox="0 0 18 18">
  <defs>
    <clipPath id="clip-path">
      <rect id="矩形_1035" data-name="矩形 1035" width="14" height="14" fill="none"/>
    </clipPath>
  </defs>
  <g id="组_2541" data-name="组 2541" transform="translate(-43 -295.756)">
    <rect id="矩形_1084" data-name="矩形 1084" width="18" height="18" transform="translate(43 295.756)" fill="none"/>
    <g id="组_2412" data-name="组 2412" transform="translate(2 3)">
      <rect id="矩形_1037" data-name="矩形 1037" width="14" height="14" transform="translate(43 294.756)" fill="none"/>
      <g id="组_2409" data-name="组 2409" transform="translate(43 294.756)">
        <g id="组_2408" data-name="组 2408" transform="translate(0)" clip-path="url(#clip-path)">
          <path id="路径_2758" data-name="路径 2758" d="M34.181,14a.2.2,0,1,1,0-.4h2.335l.577-1.775-.193-.08a6.049,6.049,0,0,1-3.182-2.9,6.22,6.22,0,0,1-.505-3.9,6.184,6.184,0,0,1,1.9-3.431A6.1,6.1,0,1,1,41.43,11.749l-.2.079.577,1.778h2.335a.2.2,0,1,1,0,.4Zm2.751-.4H41.4l-.538-1.655-.2.052a6.134,6.134,0,0,1-2.981,0l-.2-.052Zm2.224-3.686a.936.936,0,0,0,0,1.872h.009a.936.936,0,0,0,0-1.872h-.009Zm-2.75.571a.9.9,0,0,0,.262.649.962.962,0,0,0,.682.291.88.88,0,0,0,.38-.085l.158-.075-.033-.171a1.33,1.33,0,0,1,.193-.968l.1-.148-.121-.13a.913.913,0,0,0-.673-.295.969.969,0,0,0-.65.254.915.915,0,0,0-.3.679m4.571-.933a.913.913,0,0,0-.673.295l-.121.13.1.148a1.33,1.33,0,0,1,.193.969l-.033.175.162.073a.936.936,0,0,0,1.32-.854.918.918,0,0,0-.268-.655.964.964,0,0,0-.678-.28m.011-.4a1.335,1.335,0,0,1,1.326,1.249l.021.437.344-.27a5.675,5.675,0,0,0,2.181-4.422l0-.438-.359.25a1.262,1.262,0,0,1-.724.228,1.383,1.383,0,0,1-.988-.423,1.276,1.276,0,0,1-.362-.937l.014-.407L39.362,6.207V7.263l.168.044a1.308,1.308,0,0,1,.784.615,1.29,1.29,0,0,1,.143.985l-.1.358.362-.079a1.257,1.257,0,0,1,.266-.029m-6.726-.165a5.714,5.714,0,0,0,1.387,1.581l.344.27.021-.437A1.335,1.335,0,0,1,37.34,9.159a1.255,1.255,0,0,1,.266.029l.362.079-.1-.358a1.29,1.29,0,0,1,.143-.986,1.308,1.308,0,0,1,.784-.615l.168-.044V6.207L34.13,3.415l-.105.22a5.635,5.635,0,0,0-.558,2.4l0,.438.359-.25a1.263,1.263,0,0,1,.724-.228,1.384,1.384,0,0,1,.976.411,1.28,1.28,0,0,1,.374.919v0a1.335,1.335,0,0,1-1.325,1.33c-.033,0-.066,0-.1,0L34.04,8.62Zm4.9-1.338a.923.923,0,0,0-.936.923v.009a.936.936,0,0,0,1.872,0V8.579a.925.925,0,0,0-.936-.923m-4.6-1.266a.936.936,0,0,0,0,1.872h.009a.936.936,0,0,0,0-1.872ZM37.632.6a5.72,5.72,0,0,0-3.165,2.267l-.139.2,4.836,2.792L44,3.073l-.138-.2A5.72,5.72,0,0,0,40.7.6L40.271.486,40.423.9a1.3,1.3,0,0,1-.173,1.191,1.3,1.3,0,0,1-1.059.572h-.055a1.3,1.3,0,0,1-1.059-.572A1.3,1.3,0,0,1,37.905.9l.152-.414Zm6.122,3.32a.936.936,0,0,0,0,1.872h.009a.936.936,0,0,0,0-1.872h-.008ZM39.164.4a.937.937,0,0,0-.936.936V1.34a.936.936,0,0,0,1.872,0V1.331A.937.937,0,0,0,39.164.4" transform="translate(-32.165)" fill="#5795cc" stroke="#5795cc" stroke-width="0.2"/>
        </g>
      </g>
    </g>
  </g>
</svg>
