<svg xmlns="http://www.w3.org/2000/svg" xmlns:xlink="http://www.w3.org/1999/xlink" width="18" height="18" viewBox="0 0 18 18">
  <defs>
    <clipPath id="clip-path">
      <rect id="矩形_1036" data-name="矩形 1036" width="12.186" height="14" fill="#b4b4b4" stroke="#b4b4b4" stroke-width="0.3"/>
    </clipPath>
  </defs>
  <g id="组_2542" data-name="组 2542" transform="translate(0.701 2)">
    <rect id="矩形_1085" data-name="矩形 1085" width="18" height="18" transform="translate(-0.701 -2)" fill="none"/>
    <g id="组_2410" data-name="组 2410" transform="translate(2.299)" clip-path="url(#clip-path)">
      <path id="路径_2761" data-name="路径 2761" d="M42.54,100.278l-.031,0-.6-.095-.6.095-.031,0a.2.2,0,0,1-.195-.167l-.1-.6-.276-.541A.2.2,0,0,1,40.8,98.7l.541-.275L41.769,98a.2.2,0,0,1,.279,0l.429.429.541.276a.2.2,0,0,1,.086.266l-.276.541-.1.6a.2.2,0,0,1-.195.167Zm-.631-.495.031,0,.435.069.069-.436a.2.2,0,0,1,.019-.059l.2-.393-.393-.2a.2.2,0,0,1-.05-.036l-.312-.312-.312.312a.2.2,0,0,1-.05.036l-.393.2.2.393a.2.2,0,0,1,.019.059l.069.435.435-.069.031,0" transform="translate(-39.33 -94.667)" fill="#b4b4b4" stroke="#b4b4b4" stroke-width="0.3"/>
      <path id="路径_2762" data-name="路径 2762" d="M252.78,100.278l-.031,0-.6-.095-.6.095-.031,0a.2.2,0,0,1-.195-.167l-.1-.6-.276-.541a.2.2,0,0,1,.086-.266l.541-.275L252.01,98a.2.2,0,0,1,.279,0l.429.429.541.276a.2.2,0,0,1,.086.266l-.276.541-.1.6a.2.2,0,0,1-.195.167m-.631-.495.031,0,.435.069.069-.436a.2.2,0,0,1,.019-.059l.2-.393-.393-.2a.2.2,0,0,1-.05-.036l-.312-.312-.312.312a.2.2,0,0,1-.05.036l-.393.2.2.393a.2.2,0,0,1,.019.059l.069.435.435-.069.031,0" transform="translate(-242.542 -94.667)" fill="#b4b4b4" stroke="#b4b4b4" stroke-width="0.3"/>
      <path id="路径_2763" data-name="路径 2763" d="M1.331,14a.2.2,0,0,1-.2-.2A.937.937,0,0,0,.2,12.866a.2.2,0,0,1-.2-.2V1.331a.2.2,0,0,1,.2-.2A.937.937,0,0,0,1.134.2a.2.2,0,0,1,.2-.2h9.523a.2.2,0,0,1,.2.2.937.937,0,0,0,.936.936.2.2,0,0,1,.2.2V12.669a.2.2,0,0,1-.2.2.937.937,0,0,0-.936.936.2.2,0,0,1-.2.2ZM1.479.56a1.341,1.341,0,0,1-.919.919L.4,1.525V12.475l.164.047a1.341,1.341,0,0,1,.919.919l.047.164h9.135l.047-.164a1.341,1.341,0,0,1,.919-.919l.164-.047V1.525l-.164-.046A1.341,1.341,0,0,1,10.707.56L10.661.4H1.525Z" fill="#b4b4b4" stroke="#b4b4b4" stroke-width="0.3"/>
      <path id="路径_2764" data-name="路径 2764" d="M136.4,50.517a.2.2,0,0,1-.195-.167l-.128-.809-.372-.73a.2.2,0,0,1,.086-.266l.73-.372.579-.579a.2.2,0,0,1,.279,0l.579.579.73.372a.2.2,0,0,1,.086.266l-.372.73-.128.809a.2.2,0,0,1-.195.167l-.031,0-.809-.128-.809.128-.032,0m.841-.528.031,0,.645.1.1-.646a.2.2,0,0,1,.019-.059l.3-.583-.582-.3a.2.2,0,0,1-.05-.036l-.462-.462-.462.462a.2.2,0,0,1-.05.036l-.582.3.3.582a.2.2,0,0,1,.019.059l.1.645.646-.1.031,0" transform="translate(-131.143 -45.948)" fill="#b4b4b4" stroke="#b4b4b4" stroke-width="0.3"/>
      <path id="路径_2765" data-name="路径 2765" d="M61.317,278.454a.2.2,0,1,1,0-.4h.444a.2.2,0,1,1,0,.4Z" transform="translate(-59.074 -268.762)" fill="#b4b4b4" stroke="#b4b4b4" stroke-width="0.3"/>
      <path id="路径_2766" data-name="路径 2766" d="M206,217.417a.2.2,0,1,1,0-.4h.444a.2.2,0,1,1,0,.4Z" transform="translate(-198.916 -209.766)" fill="#b4b4b4" stroke="#b4b4b4" stroke-width="0.3"/>
      <path id="路径_2767" data-name="路径 2767" d="M278.338,217.417a.2.2,0,1,1,0-.4h.444a.2.2,0,1,1,0,.4Z" transform="translate(-268.839 -209.766)" fill="#b4b4b4" stroke="#b4b4b4" stroke-width="0.3"/>
      <path id="路径_2768" data-name="路径 2768" d="M206,339.49a.2.2,0,1,1,0-.4h.444a.2.2,0,1,1,0,.4Z" transform="translate(-198.916 -327.758)" fill="#b4b4b4" stroke="#b4b4b4" stroke-width="0.3"/>
      <path id="路径_2769" data-name="路径 2769" d="M206,278.454a.2.2,0,1,1,0-.4h.444a.2.2,0,1,1,0,.4Z" transform="translate(-198.916 -268.762)" fill="#b4b4b4" stroke="#b4b4b4" stroke-width="0.3"/>
      <path id="路径_2770" data-name="路径 2770" d="M278.338,339.49a.2.2,0,1,1,0-.4h.444a.2.2,0,1,1,0,.4Z" transform="translate(-268.839 -327.758)" fill="#b4b4b4" stroke="#b4b4b4" stroke-width="0.3"/>
      <path id="路径_2771" data-name="路径 2771" d="M133.66,278.454a.2.2,0,1,1,0-.4h.444a.2.2,0,1,1,0,.4Z" transform="translate(-128.998 -268.762)" fill="#b4b4b4" stroke="#b4b4b4" stroke-width="0.3"/>
      <path id="路径_2772" data-name="路径 2772" d="M133.66,217.417a.2.2,0,1,1,0-.4h.444a.2.2,0,1,1,0,.4Z" transform="translate(-128.998 -209.766)" fill="#b4b4b4" stroke="#b4b4b4" stroke-width="0.3"/>
      <path id="路径_2773" data-name="路径 2773" d="M61.317,339.49a.2.2,0,1,1,0-.4h.444a.2.2,0,1,1,0,.4Z" transform="translate(-59.074 -327.758)" fill="#b4b4b4" stroke="#b4b4b4" stroke-width="0.3"/>
    </g>
  </g>
</svg>
