<?xml version="1.0" standalone="no"?><!DOCTYPE svg PUBLIC "-//W3C//DTD SVG 1.1//EN" "http://www.w3.org/Graphics/SVG/1.1/DTD/svg11.dtd"><svg t="1590927965481" class="icon" viewBox="0 0 1024 1024" version="1.1" xmlns="http://www.w3.org/2000/svg" p-id="4285" xmlns:xlink="http://www.w3.org/1999/xlink" width="200" height="200"><defs><style type="text/css"></style></defs><path d="M910.199521 304.727853L539.173184 142.199521c-0.408619-0.20431-0.919393-0.408619-1.328012-0.612929-2.553871-1.532322-13.484437-7.559457-25.334398-8.070231h-1.328013c-11.952115 0.612929-22.780527 6.537909-25.436552 8.070231-0.408619 0.20431-0.817239 0.510774-1.328013 0.612929L114.209098 304.727853c-6.537909 2.553871-10.419792 9.09178-10.419792 15.527534v19.613727c0 6.742219 5.414206 12.156425 12.156424 12.156425h40.044693c5.516361 0 10.317638 3.575419 11.747805 8.88747 5.005587 19.102953 26.253791 17.97925 29.6249 17.77494h628.252195c3.371109 0.306464 24.619314 1.430168 29.6249-17.77494 1.430168-5.312051 6.231445-8.88747 11.747806-8.88747h40.044692c6.742219 0 12.156425-5.414206 12.156425-12.156425v-18.592179c0-0.612929 0.102155-1.328013 0.20431-1.940941 0.715084-6.027135-3.064645-11.441341-9.193935-14.608141z m-26.66241 510.569833H140.769354c-28.501197 0-27.888268 27.888268-27.888269 27.888268v34.528332c0 6.742219 5.414206 12.156425 12.156425 12.156424h774.12929c6.742219 0 12.156425-5.414206 12.156424-12.156424v-34.528332c0.102155 0 0.817239-27.888268-27.786113-27.888268zM221.267358 419.447725v314.126098h-31.770151c-23.495611 0-26.764565 22.269753-27.173185 26.560255 0 0.408619-0.102155 0.817239-0.102154 1.123703v13.893057c0 6.742219 5.414206 12.156425 12.156424 12.156425h676.877893c6.742219 0 12.156425-5.414206 12.156425-12.156425v-13.893057c0-0.408619 0-0.817239-0.102155-1.123703-0.408619-4.290503-3.677574-26.560255-27.173184-26.560255h-31.770152V419.447725c0-6.742219-5.414206-12.156425-12.156425-12.156424h-78.046289c-6.742219 0-12.156425 5.414206-12.156424 12.156424v314.126098h-62.314445V419.447725c0-6.742219-5.414206-12.156425-12.156425-12.156424h-77.43336c-6.742219 0-12.156425 5.414206-12.156425 12.156424v314.739027h-50.56664V419.447725c0-6.742219-5.414206-12.156425-12.156424-12.156424h-77.43336c-6.742219 0-12.156425 5.414206-12.156425 12.156424v314.126098h-62.314445V419.447725c0-6.742219-5.414206-12.156425-12.156425-12.156424h-77.43336c-7.048683 0-12.462889 5.414206-12.462889 12.156424z m0-12.156424" p-id="4286"></path></svg>