<svg width="21" height="20" viewBox="0 0 21 20" fill="none" xmlns="http://www.w3.org/2000/svg">
<path d="M14.5621 3.23287L14.1746 3.8787C14.1209 3.97079 14.1045 4.07995 14.1289 4.18373C14.1532 4.2875 14.2164 4.37801 14.3054 4.43662C15.4971 5.24954 16.3971 6.42287 16.8733 7.78458C17.3495 9.1463 17.3769 10.6248 16.9516 12.0032C16.5262 13.3816 15.6704 14.5875 14.5096 15.4441C13.3489 16.3007 11.9443 16.7628 10.5017 16.7628C9.05909 16.7628 7.65446 16.3007 6.49371 15.4441C5.33297 14.5875 4.47717 13.3816 4.0518 12.0032C3.62642 10.6248 3.65385 9.1463 4.13006 7.78458C4.60627 6.42287 5.5062 5.24954 6.69792 4.43662C6.78678 4.37795 6.8498 4.2875 6.87405 4.18382C6.89831 4.08014 6.88195 3.97112 6.82834 3.87912L6.44251 3.23495C6.41357 3.18624 6.37512 3.14386 6.32944 3.11035C6.28376 3.07683 6.2318 3.05286 6.17665 3.03987C6.1215 3.02688 6.0643 3.02514 6.00847 3.03474C5.95263 3.04435 5.89931 3.06511 5.85167 3.09579C4.36958 4.09205 3.24673 5.53807 2.64861 7.22075C2.05048 8.90342 2.00873 10.7337 2.52949 12.4419C3.05026 14.1501 4.106 15.6459 5.54111 16.7087C6.97623 17.7715 8.71481 18.3452 10.5006 18.3452C12.2864 18.3452 14.025 17.7715 15.4601 16.7087C16.8953 15.6459 17.951 14.1501 18.4718 12.4419C18.9925 10.7337 18.9508 8.90342 18.3527 7.22075C17.7545 5.53807 16.6317 4.09205 15.1496 3.09579C15.1024 3.06486 15.0495 3.04384 14.9939 3.03399C14.9384 3.02414 14.8814 3.02567 14.8265 3.03849C14.7715 3.0513 14.7198 3.07514 14.6743 3.10856C14.6289 3.14197 14.5907 3.18426 14.5621 3.23287Z" fill="#F77E04" stroke="#F77E04" stroke-width="0.5"/>
<path d="M10.9167 1.11108H10.0833C9.8532 1.11108 9.66666 1.29763 9.66666 1.52775V9.02775C9.66666 9.25787 9.8532 9.44442 10.0833 9.44442H10.9167C11.1468 9.44442 11.3333 9.25787 11.3333 9.02775V1.52775C11.3333 1.29763 11.1468 1.11108 10.9167 1.11108Z" fill="#F77E04" stroke="#F77E04" stroke-width="0.5"/>
</svg>
