<svg xmlns="http://www.w3.org/2000/svg" width="32" height="32" viewBox="0 0 32 32">
  <g id="组_3158" data-name="组 3158" transform="translate(0 0.143)">
    <rect id="矩形_1473" data-name="矩形 1473" width="32" height="32" transform="translate(0 -0.143)" fill="none"/>
    <g id="memo" transform="translate(2.512 1.914)">
      <path id="路径_2818" data-name="路径 2818" d="M24.478,25.043a3.13,3.13,0,0,1-3.13,3.13H4.13A3.13,3.13,0,0,1,1,25.043V3.13A3.13,3.13,0,0,1,4.13,0H21.347a3.13,3.13,0,0,1,3.13,3.13Z" transform="translate(-1 0)" fill="#ccd6dd"/>
      <path id="路径_2819" data-name="路径 2819" d="M22.217,20.3a.783.783,0,0,1-.783.783H5.783a.783.783,0,1,1,0-1.565H21.434A.783.783,0,0,1,22.217,20.3ZM9.7,23.434a.783.783,0,0,1-.783.783H5.783a.783.783,0,1,1,0-1.565h3.13A.783.783,0,0,1,9.7,23.434ZM22.217,7.783a.783.783,0,0,1-.783.783H5.783A.783.783,0,0,1,5.783,7H21.434A.783.783,0,0,1,22.217,7.783Zm0,3.13a.783.783,0,0,1-.783.783H5.783a.783.783,0,0,1,0-1.565H21.434A.783.783,0,0,1,22.217,10.913Zm0,3.13a.783.783,0,0,1-.783.783H5.783a.783.783,0,0,1,0-1.565H21.434A.783.783,0,0,1,22.217,14.043Zm0,3.13a.783.783,0,0,1-.783.783H5.783a.783.783,0,1,1,0-1.565H21.434A.783.783,0,0,1,22.217,17.174Z" transform="translate(-1.87 -1.522)" fill="#99aab5"/>
      <path id="路径_2820" data-name="路径 2820" d="M26.114,6.18a1.679,1.679,0,0,0-1.973-.018l-.62.506-1.161.948-.078.063L20.422,9.2l-9.3,7.58a4.987,4.987,0,0,0-.918,1.623c-.3.665-.758,2.232-1.129,3.436-.116.2-.833,1.445-.431,1.92s1.82.008,2.01-.059c1.272-.136,2.92-.292,3.637-.454a5.175,5.175,0,0,0,1.793-.589c.006,0,.008-.014.013-.018l9.28-7.565.62-.506.113-.092Z" transform="translate(-2.636 -1.272)" fill="#66757f"/>
      <path id="路径_2821" data-name="路径 2821" d="M16.135,21.434a12.337,12.337,0,0,0-1.657-2,12.339,12.339,0,0,0-1.995-1.656.914.914,0,0,0-1.275-.034,6.289,6.289,0,0,0-.918,1.793c-.369.9-1,3.251-1.384,4.5-.065.213.4-.352.394-.164a1.591,1.591,0,0,0,.058.455l-.114.124.163.052c.02.064.039.121.053.164l.124-.114a1.589,1.589,0,0,0,.454.058c.188-.011-.378.459-.164.394,1.251-.386,3.605-1.014,4.5-1.384a6.288,6.288,0,0,0,1.793-.919.909.909,0,0,0-.034-1.273Z" transform="translate(-2.718 -3.805)" fill="#d99e82"/>
      <path id="路径_2822" data-name="路径 2822" d="M25.169,3.52a1.751,1.751,0,0,0,0,2.479l2.478,2.479a1.755,1.755,0,0,0,2.479,0L32.607,6a1.755,1.755,0,0,0,0-2.479L30.127,1.04a1.753,1.753,0,0,0-2.479,0Z" transform="translate(-6.143 -0.115)" fill="#ea596e"/>
      <path id="路径_2823" data-name="路径 2823" d="M11.849,15.232l2.481,2.481,2.477,2.478,9.3-9.3L21.145,5.936l-9.3,9.3Z" transform="translate(-3.359 -1.291)" fill="#ffcc4d"/>
      <path id="路径_2824" data-name="路径 2824" d="M10.7,26.3s-1.612.887-2.047.451.455-2.043.455-2.043A1.618,1.618,0,0,1,10.7,26.3Z" transform="translate(-2.637 -5.372)" fill="#292f33"/>
      <path id="路径_2825" data-name="路径 2825" d="M23.728,5.074l3.1-3.1,4.958,4.959-3.1,3.1Z" transform="translate(-5.941 -0.429)" fill="#ccd6dd"/>
      <path id="路径_2826" data-name="路径 2826" d="M25.759,3.386l.62-.62,4.958,4.958-.62.62ZM24.52,4.625l.619-.619L30.1,8.964l-.62.62Z" transform="translate(-6.113 -0.601)" fill="#99aab5"/>
    </g>
  </g>
</svg>
