<svg id="组_3158" data-name="组 3158" xmlns="http://www.w3.org/2000/svg" width="32" height="32" viewBox="0 0 32 32">
  <rect id="矩形_1473" data-name="矩形 1473" width="32" height="32" fill="none"/>
  <g id="red-envelope" transform="translate(1.256 1.255)">
    <path id="路径_2827" data-name="路径 2827" d="M17.788.407.365,17.83a.823.823,0,0,0,0,1.162L10.819,29.446a.823.823,0,0,0,1.162,0L29.4,12.023Z" transform="translate(-0.125 -0.197)" fill="#fa3c32"/>
    <path id="路径_2828" data-name="路径 2828" d="M31.343,9.464,22.205.326a.719.719,0,0,0-1.015,0l-.786.786c-.252,1.912,1.234,4.969,3.209,6.943,2.01,2.01,4.987,3.542,6.913,3.241l.818-.818a.719.719,0,0,0,0-1.015Z" transform="translate(-2.064 -0.117)" fill="#dc282c"/>
    <path id="路径_2829" data-name="路径 2829" d="M23.261,8.44C21.287,6.466,19.8,3.409,20.053,1.5l-.94.94c.114,1.978,1.667,4.814,3.5,6.649,1.862,1.862,4.6,3.464,6.6,3.554l.958-.958c-1.926.3-4.9-1.231-6.913-3.241Z" transform="translate(-1.713 -0.5)" fill="#b3282c"/>
    <g id="组_3160" data-name="组 3160" transform="translate(9.973 10.554)">
      <path id="路径_2830" data-name="路径 2830" d="M18.275,15.544c-.649-.649-1.593-1.018-2.154-.48-.022.108.061.7,1,1.637s1.529,1.018,1.637,1c.537-.561.168-1.505-.48-2.154Zm-.008-1.114a.244.244,0,0,1-.053-.265l.481-1.179a.249.249,0,0,1,.321-.139.243.243,0,0,1,.134.318l-.481,1.179a.248.248,0,0,1-.4.085ZM16.8,13.89a.24.24,0,0,1-.07-.16l-.061-1.363a.251.251,0,0,1,.235-.26.241.241,0,0,1,.256.23l.061,1.363a.251.251,0,0,1-.235.26A.242.242,0,0,1,16.8,13.89Zm2.583,1.66a.249.249,0,0,1,.085-.4l1.179-.481a.242.242,0,0,1,.318.134.249.249,0,0,1-.139.321l-1.179.481A.244.244,0,0,1,19.387,15.55Zm.54,1.463a.242.242,0,0,1-.07-.186.25.25,0,0,1,.26-.235l1.363.061a.24.24,0,0,1,.23.256.25.25,0,0,1-.26.235l-1.363-.061a.241.241,0,0,1-.16-.07Z" transform="translate(-12.75 -12.106)" fill="#ffe933"/>
      <path id="路径_2831" data-name="路径 2831" d="M15.2,15.176a12.761,12.761,0,0,1-.962-1.4,2.579,2.579,0,0,0,.032,2.112,7.07,7.07,0,0,0,3.542,3.542,2.573,2.573,0,0,0,2.112.032,12.67,12.67,0,0,1-1.4-.962l-.02.022c-.326.326-1.226.085-2.318-1.006s-1.332-1.992-1.006-2.318Z" transform="translate(-12.17 -12.569)" fill="#ffe933"/>
      <path id="路径_2832" data-name="路径 2832" d="M14.656,18.323c-1.282-1.282-2.232-3.034-1.655-4.574a2.416,2.416,0,0,0-.791.547c-1.739,1.739-.082,4.316,1.037,5.435s3.7,2.777,5.435,1.037a2.412,2.412,0,0,0,.547-.791c-1.54.576-3.292-.373-4.574-1.655Z" transform="translate(-11.454 -12.563)" fill="#ffe933"/>
    </g>
  </g>
</svg>
