<svg xmlns="http://www.w3.org/2000/svg" width="26" height="26" viewBox="0 0 26 26">

  <symbol id="num_clean">
    <g id="组_3059" data-name="组 3059" transform="translate(-336 -309)">
      <g id="矩形_1477" data-name="矩形 1477" transform="translate(336 309)" fill="#fff" stroke="#F77E04" stroke-width="1">
        <rect width="26" height="26" rx="4" stroke="none"/>
        <rect x="0.5" y="0.5" width="25" height="25" rx="3.5" fill="none"/>
      </g>
      <g id="svgviewer-output" transform="translate(341.685 312.996)">
        <path id="路径_2863" data-name="路径 2863" d="M11.851,18H2.709a.148.148,0,0,0-.084-.025c-.686.011-1.287-.841-1.344-1.439-.032-.345-.042-.689-.056-1.034-.028-.63-.056-1.263-.088-1.893-.042-.837-.081-1.671-.123-2.508C.981,10.5.957,9.888.929,9.283S.883,8.056.834,7.443c-.021-.25-.007-.5-.028-.756a.275.275,0,0,1,.281-.3c.095-.007.186-.007.281-.007H13.251a2.506,2.506,0,0,1,.281.007.282.282,0,0,1,.285.31c-.046.788-.063,1.579-.12,2.367-.018.267-.025.538-.035.806-.021.633-.053,1.263-.088,1.893-.042.837-.081,1.671-.123,2.508-.032.619-.07,1.238-.081,1.857a2.2,2.2,0,0,1-.162.876A1.5,1.5,0,0,1,11.851,18ZM3.94,15.137a.565.565,0,1,0,1.126.007c0-.257,0-.517,0-.774V8.006a1.158,1.158,0,0,0-.014-.246.56.56,0,0,0-1.108.13c0,1.207,0,2.413,0,3.62S3.936,13.93,3.94,15.137ZM6.75,12.175c0,1,0,2.005,0,3a.561.561,0,1,0,1.122.011c0-.06,0-.116,0-.176V8.228c0-.123,0-.246,0-.369a.541.541,0,0,0-.369-.51.56.56,0,0,0-.753.57c0,1.2,0,2.4,0,3.6C6.75,11.742,6.75,11.957,6.75,12.175Zm2.814.763c0,.749,0,1.5,0,2.251a.557.557,0,0,0,.538.563.565.565,0,0,0,.58-.5,1.776,1.776,0,0,0,0-.193V8.01a1.468,1.468,0,0,0,0-.176.562.562,0,0,0-1.122.077c0,1.207,0,2.413,0,3.62Z" fill="#F77E04"/>
        <path id="路径_2864" data-name="路径 2864" d="M14.627,3.412V4.925c-.095.4-.236.507-.668.507q-3.91.005-7.82,0H.637c-.4-.007-.542-.12-.633-.507V3.377A1.245,1.245,0,0,1,.359,2.6,1.515,1.515,0,0,1,1.4,2.167c.865,0,1.731,0,2.6,0,.063,0,.13,0,.193,0,.169-.011.215-.053.225-.225a3.747,3.747,0,0,1,.035-.594A1.881,1.881,0,0,1,5.175.239,1.578,1.578,0,0,1,5.878,0H8.727a2.166,2.166,0,0,1,.556.13,1.762,1.762,0,0,1,.936,1.456c.011.106,0,.211,0,.317,0,.215.046.26.257.264.352,0,.7,0,1.052,0h1.685a1.528,1.528,0,0,1,1.087.457A1.246,1.246,0,0,1,14.627,3.412ZM8.85,2.251c.109,0,.162-.021.151-.144-.011-.141,0-.281,0-.422a.551.551,0,0,0-.556-.559c-.753-.007-1.509-.007-2.262,0a.554.554,0,0,0-.552.545c-.007.141.007.281,0,.422-.011.123.035.158.158.158.51-.007,1.017,0,1.527,0S8.337,2.248,8.85,2.251Z" fill="#F77E04"/>
      </g>
    </g>
  </symbol>
</svg>
