<svg width="26" height="26" viewBox="0 0 26 26" fill="none" xmlns="http://www.w3.org/2000/svg">
<circle cx="13" cy="13" r="12.25" stroke="black" stroke-width="1.5"/>
<path fill-rule="evenodd" clip-rule="evenodd" d="M10.0859 15.0859C10.6518 14.546 11 13.8105 11 13C11 12.1544 10.621 11.3905 10.0112 10.8452L8 13L10.0859 15.0859Z" fill="black"/>
<path fill-rule="evenodd" clip-rule="evenodd" d="M12.7632 17.7632C13.8409 16.5138 14.5 14.8398 14.5 13C14.5 11.0734 13.7773 9.32866 12.6079 8.06293L11.5383 9.20891C12.452 10.2423 13 11.5621 13 13C13 14.3756 12.4985 15.643 11.6551 16.6551L12.7632 17.7632Z" fill="black"/>
<path fill-rule="evenodd" clip-rule="evenodd" d="M14.1536 19.1537C15.5873 17.6863 16.4999 15.4743 16.4999 13C16.4999 10.4046 15.4957 8.09785 13.9395 6.63623L14.9999 5.5C15.9999 6.5 17.9999 9.4 17.9999 13C17.9999 16.6 15.9999 19.1667 14.9999 20L14.1536 19.1537Z" fill="black"/>
</svg>
