<svg width="18" height="23" viewBox="0 0 18 23" fill="none" xmlns="http://www.w3.org/2000/svg">
<circle cx="9.20001" cy="9" r="3" fill="#4C4C4C"/>
<path fill-rule="evenodd" clip-rule="evenodd" d="M2.20001 0C1.09544 0 0.200012 0.89543 0.200012 2V3C1.03335 5 4.00001 9 9.20001 9C14.2 9 17.7 4 17.7 3V2C17.7 0.895431 16.8046 0 15.7 0H2.20001ZM17.7 7C16.5333 8.16667 13.2 10 9.20001 10C4.80001 10 1.36668 8 0.200012 7V21C0.200012 22.1046 1.09544 23 2.20001 23H15.7C16.8046 23 17.7 22.1046 17.7 21V7Z" fill="#4C4C4C"/>
<circle cx="9.20001" cy="9" r="2" fill="white"/>
</svg>
