<svg width="22" height="21" viewBox="0 0 22 21" fill="none" xmlns="http://www.w3.org/2000/svg">
<g clip-path="url(#clip0_331_53)">
<rect x="0.916626" y="18.2609" width="20.1667" height="2.73913" rx="1" fill="#4C4C4C"/>
<path fill-rule="evenodd" clip-rule="evenodd" d="M15.475 15.8531C15.4146 15.026 15.3542 9.67194 15.3542 7.07606C15.3542 4.48019 15.4146 3.00654 15.475 2.1795C15.542 1.26198 16.215 0.546066 17.1717 0.487723C17.4762 0.469188 17.858 0.456497 18.3333 0.456497C18.8087 0.456497 19.1905 0.469188 19.4949 0.487723C20.4517 0.546066 21.1246 1.26198 21.1917 2.1795C21.2521 3.00654 21.3125 4.48019 21.3125 7.07606C21.3125 9.67194 21.2521 15.026 21.1917 15.8531C21.1246 16.7706 20.4517 17.4865 19.4949 17.5449C19.1905 17.5634 18.8087 17.5761 18.3333 17.5761C17.858 17.5761 17.4762 17.5634 17.1717 17.5448C16.215 17.4865 15.542 16.7706 15.475 15.8531ZM0.764743 16.1015C0.720894 15.6707 0.6875 15.0496 0.6875 14.1522C0.6875 9.37428 0.720894 8.75314 0.764743 8.32237C0.857253 7.41348 1.58919 6.89291 2.39078 6.86611C2.70572 6.85561 3.12248 6.8478 3.66667 6.8478C4.21085 6.8478 4.62761 6.85561 4.94253 6.86611C5.74415 6.89291 6.47607 7.41348 6.5686 8.32237C6.61242 8.75314 6.64583 9.37428 6.64583 14.1522C6.64583 15.0496 6.61242 15.6707 6.5686 16.1015C6.47607 17.0104 5.74415 17.531 4.94253 17.5578C4.62761 17.5683 4.21085 17.5761 3.66667 17.5761C3.12248 17.5761 2.70572 17.5683 2.39078 17.5578C1.58919 17.531 0.857253 17.0104 0.764743 16.1015ZM8.02083 8.90215C8.02083 10.4595 8.06602 15.3227 8.11823 15.9406C8.1972 16.8755 8.91587 17.5139 9.82369 17.5535C10.1277 17.5668 10.5138 17.5761 11 17.5761C11.4862 17.5761 11.8723 17.5668 12.1763 17.5535C13.0841 17.5139 13.8028 16.8755 13.8818 15.9406C13.934 15.3227 13.9792 10.4595 13.9792 8.90215C13.9792 7.34477 13.934 6.36206 13.8818 5.74421C13.8028 4.80929 13.0841 4.1709 12.1763 4.13122C11.8723 4.11794 11.4862 4.10867 11 4.10867C10.5138 4.10867 10.1277 4.11794 9.82369 4.13122C8.91587 4.1709 8.1972 4.80929 8.11823 5.74421C8.06602 6.36206 8.02083 7.34477 8.02083 8.90215Z" fill="#4C4C4C"/>
</g>
<defs>
<clipPath id="clip0_331_53">
<rect width="22" height="21" fill="white"/>
</clipPath>
</defs>
</svg>
