<svg width="26" height="26" viewBox="0 0 26 26" fill="none" xmlns="http://www.w3.org/2000/svg">
<g clip-path="url(#clip0_331_197)">
<path d="M12.2183 -6.09457e-06C22.7572 -0.577784 29.6481 10.9778 23.9733 19.9911C18.9933 27.7911 7.64366 28.0222 2.31626 20.4533C-3.47438 12.1333 2.14254 0.577772 12.2183 -6.09457e-06ZM12.5657 0.866661C9.67038 0.982216 6.89087 2.13777 4.74833 4.10222L6.83297 6.23999C8.28063 4.96888 10.1336 4.10222 12.0445 3.92888C13.9555 3.75555 12.4499 3.98666 12.5657 3.8711V0.866661ZM12.6236 4.73777C6.13809 5.08444 2.43208 12.48 6.2539 17.7955C10.0757 23.1689 18.4722 22.1289 20.7884 15.8889C22.8151 10.3422 18.588 4.3911 12.6236 4.73777ZM25.1314 12.5955C25.0156 9.70666 23.8575 6.93333 21.8886 4.79555L19.7461 6.87555C21.1359 8.43555 22.0045 10.4578 22.0624 12.5955H25.0735H25.1314ZM3.87974 13.4622H0.868602C0.984415 16.3511 2.14254 19.1244 4.11136 21.2622L6.2539 19.1822C4.86415 17.6222 3.93764 15.5422 3.93764 13.4622H3.87974ZM13.4343 25.1333C13.8396 25.0755 14.245 25.0755 14.6503 25.0178C17.0824 24.6711 19.3987 23.5733 21.2517 21.8978L19.167 19.76C17.6036 21.1467 15.5768 22.0711 13.4343 22.0711V25.0755V25.1333Z" fill="#4C4C4C"/>
<path d="M12.4499 18.6622C12.3341 18.6622 12.2762 18.6622 12.2183 18.5467C12.1604 18.4889 12.1025 18.4311 12.1025 18.3156V17.4489C11.4655 17.3911 10.8864 17.2178 10.4811 16.9867C10.0178 16.7556 9.7283 16.4667 9.49667 16.12C9.26504 15.7733 9.14923 15.4267 9.14923 15.0222C9.14923 14.9644 9.14923 14.9067 9.20714 14.8489C9.26504 14.7911 9.32295 14.7911 9.38086 14.7911H11.0022C11.1181 14.7911 11.2339 14.7911 11.2918 14.8489C11.3497 14.8489 11.4076 14.9644 11.4655 15.0222C11.5234 15.1378 11.6392 15.2533 11.755 15.3689C11.8708 15.4844 12.0446 15.6 12.2183 15.6578C12.392 15.7156 12.6815 15.7733 12.9711 15.7733C13.4343 15.7733 13.8397 15.7156 14.0713 15.5422C14.3029 15.3689 14.4187 15.1956 14.4187 14.9067C14.4187 14.6178 14.3608 14.56 14.245 14.4444C14.1292 14.3289 13.8976 14.2133 13.608 14.0978C13.3185 13.9822 12.9132 13.9244 12.392 13.8089C11.755 13.6933 11.2339 13.52 10.7706 13.2889C10.3074 13.0578 9.95992 12.7689 9.7283 12.4222C9.49667 12.0756 9.38086 11.6133 9.38086 11.0933C9.38086 10.5733 9.61248 9.82222 10.1336 9.36C10.5969 8.89778 11.2918 8.60889 12.1604 8.49333V7.62667C12.1604 7.51111 12.1604 7.45333 12.2762 7.39555C12.392 7.33778 12.392 7.28 12.5078 7.28H13.5501C13.608 7.28 13.7238 7.28 13.7817 7.39555C13.8397 7.45333 13.8976 7.51111 13.8976 7.62667V8.55111C14.4766 8.66667 14.9399 8.84 15.3452 9.07111C15.7506 9.30222 16.0401 9.64889 16.2717 9.93778C16.5034 10.2844 16.5613 10.5733 16.6192 10.8622C16.6192 10.92 16.6192 10.9778 16.5613 11.0356C16.5613 11.0356 16.4454 11.0933 16.3875 11.0933H14.7083C14.5924 11.0933 14.5345 11.0933 14.4766 11.0933C14.4187 11.0933 14.3608 10.9778 14.3029 10.92C14.3029 10.7467 14.1292 10.5733 13.8976 10.4578C13.6659 10.3422 13.3764 10.2267 13.0869 10.2267C12.7973 10.2267 12.4499 10.2844 12.2183 10.4C11.9866 10.5156 11.9287 10.7467 11.9287 10.9778C11.9287 11.2089 11.9287 11.2667 12.1025 11.44C12.2762 11.6133 12.392 11.6711 12.6815 11.7867C12.9711 11.9022 13.3185 11.96 13.7817 12.0756C14.5345 12.1911 15.1715 12.4222 15.6348 12.5956C16.098 12.8267 16.4454 13.1156 16.6771 13.4044C16.9087 13.7511 17.0245 14.1556 17.0245 14.6756C17.0245 15.1956 16.9087 15.6 16.6771 16.0044C16.4454 16.4089 16.098 16.6978 15.6348 16.9289C15.1715 17.16 14.6503 17.3333 14.0713 17.3911V18.2578C14.0713 18.3156 14.0713 18.4311 13.9555 18.4889C13.8976 18.5467 13.8397 18.6044 13.7238 18.6044H12.6815L12.4499 18.6622Z" fill="#4C4C4C"/>
</g>
<defs>
<clipPath id="clip0_331_197">
<rect width="26" height="26" fill="white"/>
</clipPath>
</defs>
</svg>
