<svg width="17" height="22" viewBox="0 0 17 22" fill="none" xmlns="http://www.w3.org/2000/svg">
<rect x="9.41504" width="8.48923" height="15.3046" rx="4.24462" transform="rotate(30 9.41504 0)" fill="#4C4C4C"/>
<path fill-rule="evenodd" clip-rule="evenodd" d="M1.62057 20.1891L1.21509 21.811L2.82667 21.0052L1.62057 20.1891Z" fill="#4C4C4C"/>
<path fill-rule="evenodd" clip-rule="evenodd" d="M15.289 13.1077L13.9482 12.3629L12.6055 14.6886C10.976 17.5109 7.36705 18.478 4.54468 16.8485C1.72231 15.219 0.755291 11.61 2.38479 8.78765L3.63016 6.63059L2.26139 5.87016L0.999426 8.05594C-1.05798 11.6195 0.162976 16.1762 3.72651 18.2336C7.29004 20.291 11.8467 19.07 13.9041 15.5065L15.289 13.1077Z" fill="#4C4C4C"/>
<rect x="3.41504" y="17.411" width="1.58892" height="2.58129" transform="rotate(33.6221 3.41504 17.411)" fill="#4C4C4C"/>
</svg>
