<svg width="22" height="22" viewBox="0 0 22 22" fill="none" xmlns="http://www.w3.org/2000/svg">
<path fill-rule="evenodd" clip-rule="evenodd" d="M3.41669 21.8333H18.5834C19.4453 21.8333 20.272 21.4909 20.8815 20.8814C21.4909 20.2719 21.8334 19.4453 21.8334 18.5833V14.25H17.5V1.25001C17.5 0.962687 17.3859 0.687137 17.1827 0.483973C16.9796 0.280808 16.704 0.166672 16.4167 0.166672H1.25002C0.962703 0.166672 0.687152 0.280808 0.483988 0.483973C0.280824 0.687137 0.166687 0.962687 0.166687 1.25001V18.5833C0.166687 19.4453 0.509097 20.2719 1.11859 20.8814C1.72808 21.4909 2.55473 21.8333 3.41669 21.8333ZM17.8173 19.3494C17.6142 19.1462 17.5 18.8707 17.5 18.5833V16.4167H19.6667V18.5833C19.6667 18.8707 19.5526 19.1462 19.3494 19.3494C19.1462 19.5525 18.8707 19.6667 18.5834 19.6667C18.296 19.6667 18.0205 19.5525 17.8173 19.3494ZM4.77085 3.95834C4.02297 3.95834 3.41669 4.56462 3.41669 5.3125C3.41669 6.06039 4.02297 6.66667 4.77085 6.66667H12.8959C13.6437 6.66667 14.25 6.06039 14.25 5.3125C14.25 4.56462 13.6437 3.95834 12.8959 3.95834H4.77085ZM3.41669 10.7292C3.41669 9.98129 4.02297 9.37501 4.77085 9.37501H12.8959C13.6437 9.37501 14.25 9.98129 14.25 10.7292C14.25 11.4771 13.6437 12.0833 12.8959 12.0833H4.77085C4.02297 12.0833 3.41669 11.4771 3.41669 10.7292ZM4.77085 14.7917C4.02297 14.7917 3.41669 15.398 3.41669 16.1458C3.41669 16.8937 4.02297 17.5 4.77085 17.5H8.56252C9.31041 17.5 9.91669 16.8937 9.91669 16.1458C9.91669 15.398 9.31041 14.7917 8.56252 14.7917H4.77085Z" fill="#4C4C4C"/>
</svg>
