<svg width="26" height="23" viewBox="0 0 26 23" fill="none" xmlns="http://www.w3.org/2000/svg">
<path fill-rule="evenodd" clip-rule="evenodd" d="M20.2222 2.875H24.9167C25.517 2.875 26 3.35566 26 3.95312V6.46875C26 8.07246 24.9799 9.72109 23.2059 10.9924C21.7885 12.0121 20.0597 12.659 18.2406 12.8656C16.8233 15.2061 15.1667 16.1719 15.1667 16.1719V19.4062H17.3333C18.9267 19.4062 20.2222 20.3361 20.2222 21.9219V22.4609C20.2222 22.7574 19.9785 23 19.6806 23H6.31944C6.02153 23 5.77778 22.7574 5.77778 22.4609V21.9219C5.77778 20.3361 7.07326 19.4062 8.66667 19.4062H10.8333V16.1719C10.8333 16.1719 9.17674 15.2061 7.75937 12.8656C5.94479 12.659 4.21597 12.0121 2.7941 10.9924C1.01562 9.72109 0 8.07246 0 6.46875V3.95312C0 3.35566 0.482986 2.875 1.08333 2.875H5.77778V1.07812C5.77778 0.480664 6.26076 0 6.86111 0H19.1389C19.7392 0 20.2222 0.480664 20.2222 1.07812V2.875ZM2.88889 6.46875C2.88889 6.98984 3.3809 7.87031 4.48229 8.66094C5.04653 9.06523 5.68299 9.38867 6.36458 9.62227C6.04861 8.49922 5.83194 7.21445 5.78681 5.75H2.88889V6.46875ZM21.5177 8.66094C22.3122 8.09043 23.1111 7.19199 23.1111 6.46875V5.75H20.2087C20.1635 7.21445 19.9469 8.49922 19.6309 9.62227C20.3125 9.38867 20.9535 9.06523 21.5177 8.66094ZM14.5696 5.25252L13.3 3L12.0304 5.25252L9.49577 5.76393L11.2457 7.66748L10.9489 10.2361L13.3 9.16L15.6511 10.2361L15.3543 7.66748L17.1042 5.76393L14.5696 5.25252Z" fill="#4C4C4C"/>
</svg>
