<svg width="22" height="22" viewBox="0 0 22 22" fill="none" xmlns="http://www.w3.org/2000/svg">
<path d="M0.5 2.80137C0.5 1.53036 1.53036 0.5 2.80137 0.5H7.69178C8.96279 0.5 9.99315 1.53036 9.99315 2.80137V7.69178C9.99315 8.96279 8.96279 9.99315 7.69178 9.99315H2.80137C1.53036 9.99315 0.5 8.96279 0.5 7.69178V2.80137Z" fill="#4C4C4C"/>
<path d="M0.5 14.3082C0.5 13.0372 1.53036 12.0068 2.80137 12.0068H7.69178C8.96279 12.0068 9.99315 13.0372 9.99315 14.3082V19.1986C9.99315 20.4696 8.96279 21.5 7.69178 21.5H2.80137C1.53036 21.5 0.5 20.4696 0.5 19.1986V14.3082Z" fill="#4C4C4C"/>
<path d="M12.0068 2.80137C12.0068 1.53036 13.0372 0.5 14.3082 0.5H19.1986C20.4696 0.5 21.5 1.53036 21.5 2.80137V7.69178C21.5 8.96279 20.4696 9.99315 19.1986 9.99315H14.3082C13.0372 9.99315 12.0068 8.96279 12.0068 7.69178V2.80137Z" fill="#4C4C4C"/>
<path fill-rule="evenodd" clip-rule="evenodd" d="M19.6105 18.5489C20.0764 17.8757 20.3493 17.0588 20.3493 16.1781C20.3493 13.8743 18.4818 12.0068 16.1781 12.0068C13.8744 12.0068 12.0068 13.8743 12.0068 16.1781C12.0068 18.4818 13.8744 20.3493 16.1781 20.3493C17.0741 20.3493 17.9042 20.0667 18.5841 19.5859L20.2101 21.212C20.495 21.4968 20.9569 21.4968 21.2418 21.212C21.5267 20.9271 21.5267 20.4652 21.2418 20.1803L19.6105 18.5489Z" fill="#4C4C4C"/>
</svg>
