<?xml version="1.0" standalone="no"?><!DOCTYPE svg PUBLIC "-//W3C//DTD SVG 1.1//EN" "http://www.w3.org/Graphics/SVG/1.1/DTD/svg11.dtd"><svg t="1639712691663" class="icon" viewBox="0 0 1024 1024" version="1.1" xmlns="http://www.w3.org/2000/svg" p-id="17020" xmlns:xlink="http://www.w3.org/1999/xlink" width="32" height="32"><defs><style type="text/css"></style></defs><path d="M662.872 137.688l-95.968-24.672a24.024 24.024 0 0 0-29.624 19.16c-0.232 1.36-0.344 2.208-0.44 2.888a63.92 63.92 0 0 1-77.88 46.032 63.52 63.52 0 0 1-39.144-29.408 63.608 63.608 0 0 1-6.912-48.432c0.264-0.68 0.576-1.488 1.032-2.8a24.016 24.016 0 0 0-16.72-31.048L304.552 45.584a23.984 23.984 0 0 0-29.216 17.272L107.888 714.344a24 24 0 0 0 17.264 29.216l192.56 49.496a85.08 85.08 0 0 1-5.512-4.848c-9.056-8.696-10.624-23.224-4.376-33.928 2.32-3.976 5.208-7.456 7.584-11.376l-155.056-39.856 155.504-605 47.392 12.184a111.224 111.224 0 0 0 15.248 65.872 111.232 111.232 0 0 0 68.52 51.48 111.904 111.904 0 0 0 129.952-62.416l50.72 13.04-30.224 117.6c11.52-6.864 29.272-2.024 38.248 10.24 2.808-0.008 5.608 0.52 8.312 1.432l36.128-140.56a24.008 24.008 0 0 0-17.28-29.232z" p-id="17021"></path><path d="M269.4 278.744a16.4 16.4 0 0 1-3.992-0.504l-19.368-4.976a16 16 0 0 1 7.968-30.992l19.368 4.976a16 16 0 0 1-3.976 31.496zM550.52 351a16.4 16.4 0 0 1-3.992-0.504l-35.144-9.032a16 16 0 0 1 7.976-30.992l35.144 9.032a16.016 16.016 0 0 1 11.52 19.48 16.04 16.04 0 0 1-15.504 12.016z m-70.28-18.064a16.4 16.4 0 0 1-3.992-0.504l-35.144-9.032a16 16 0 0 1 7.976-30.992l35.136 9.032a16 16 0 0 1-3.976 31.496z m-70.28-18.064c-1.312 0-2.656-0.16-3.992-0.504l-35.144-9.032a16 16 0 0 1 7.976-30.992l35.144 9.032a16 16 0 0 1-3.984 31.496z m-70.28-18.064a16.4 16.4 0 0 1-3.992-0.504l-35.144-9.032a16 16 0 0 1 7.976-30.992l35.144 9.032a16 16 0 0 1-3.984 31.496zM232.136 667.648a16.016 16.016 0 0 1-15.512-19.992l42.496-165.312a16.008 16.008 0 0 1 31 7.976l-42.496 165.312a16.016 16.016 0 0 1-15.488 12.016zM337.632 527.392a16 16 0 0 1-15.504-19.984l35.6-138.504a16 16 0 0 1 31 7.968l-35.6 138.504a16.024 16.024 0 0 1-15.496 12.016zM285.76 458.696a16 16 0 0 1-15.504-20l22.36-86.648a16 16 0 0 1 30.992 7.992l-22.36 86.664a16.024 16.024 0 0 1-15.488 11.992zM409.456 491.168a16.008 16.008 0 0 1-15.504-19.992l22.448-87.312a16.008 16.008 0 0 1 31 7.976l-22.448 87.312a16.032 16.032 0 0 1-15.496 12.016z" p-id="17022"></path><path d="M479.864 965.912a23.952 23.952 0 0 1-17.52-7.592L209.408 688.312a23.992 23.992 0 0 1 1.104-33.92l490.904-459.872a24 24 0 0 1 33.92 1.112l65.4 69.816c4.576 4.888 6.904 11.472 6.424 18.152a24.048 24.048 0 0 1-8.984 17.032 78.656 78.656 0 0 1-2.32 1.768c-25.736 24.128-27.056 64.688-2.944 90.432a63.352 63.352 0 0 0 46.696 20.224 63.76 63.76 0 0 0 43.728-17.288c0.44-0.504 0.992-1.168 1.912-2.184a23.984 23.984 0 0 1 17.584-7.856h0.184c6.632 0 12.976 2.752 17.512 7.592l67.752 72.32a24 24 0 0 1-1.112 33.92L496.272 959.44c-4.456 4.16-10.32 6.472-16.408 6.472zM260.84 673.016l220.136 234.976 455.864-427.072-35.808-38.208a111.536 111.536 0 0 1-61.424 18.336c-30.848 0-60.64-12.904-81.736-35.416-37.736-40.28-39.88-101.312-7.704-143.96l-33.464-35.72-455.864 427.064z" p-id="17023"></path><path d="M589.136 375.984a15.96 15.96 0 0 1-11.68-5.064l-13.672-14.592a16 16 0 1 1 23.36-21.88l13.672 14.592a16 16 0 0 1-11.68 26.944zM787.576 587.816a15.96 15.96 0 0 1-11.68-5.064l-24.808-26.48a16 16 0 1 1 23.36-21.872l24.808 26.48a16 16 0 0 1-11.68 26.936z m-49.608-52.968a15.96 15.96 0 0 1-11.68-5.064l-24.808-26.48a16 16 0 1 1 23.36-21.872l24.808 26.48a16 16 0 0 1-11.68 26.936z m-49.616-52.952a15.96 15.96 0 0 1-11.68-5.064l-24.808-26.48a16 16 0 1 1 23.36-21.872l24.808 26.472a16 16 0 0 1-11.68 26.944z m-49.608-52.96a15.96 15.96 0 0 1-11.68-5.064l-24.808-26.48a16 16 0 1 1 23.36-21.872l24.808 26.48a16 16 0 0 1-11.68 26.936zM826.064 628.888a15.96 15.96 0 0 1-11.68-5.064l-13.672-14.592a16 16 0 1 1 23.36-21.872l13.672 14.592a16 16 0 0 1-11.68 26.936zM348.992 684.168a16 16 0 0 1-10.936-27.68l124.568-116.688a16 16 0 1 1 21.872 23.36L359.928 679.84a15.936 15.936 0 0 1-10.936 4.328zM394.984 733.24a16 16 0 0 1-10.936-27.68l64-59.944a16 16 0 1 1 21.872 23.36l-64 59.944a15.92 15.92 0 0 1-10.936 4.32zM513.28 622.424a16 16 0 0 1-10.936-27.68L606.72 496.976a16.008 16.008 0 0 1 21.872 23.36L524.216 618.104c-3.08 2.888-7.016 4.32-10.936 4.32zM506.376 536.616a16 16 0 0 1-10.928-27.688l65.368-61.136a16 16 0 0 1 21.856 23.376l-65.368 61.136c-3.088 2.88-7.008 4.312-10.928 4.312zM436.384 777.432a16 16 0 0 1-10.936-27.68L550 633.064a16 16 0 1 1 21.872 23.36L447.32 773.112c-3.088 2.888-7.016 4.32-10.936 4.32zM486.96 831.432a16 16 0 0 1-10.936-27.68l64.008-59.952a16 16 0 1 1 21.872 23.36l-64.008 59.952c-3.08 2.888-7.016 4.32-10.936 4.32zM605.248 720.6a16 16 0 0 1-10.936-27.68l104.384-97.768a16 16 0 1 1 21.872 23.36L616.184 716.28c-3.08 2.888-7.016 4.32-10.936 4.32zM593.336 630.4a15.936 15.936 0 0 1-11.672-5.064 15.976 15.976 0 0 1 0.736-22.608l65.784-61.64a15.976 15.976 0 0 1 22.608 0.736 15.976 15.976 0 0 1-0.736 22.608l-65.784 61.64a15.936 15.936 0 0 1-10.936 4.328z" p-id="17024"></path></svg>