<svg xmlns="http://www.w3.org/2000/svg" width="14" height="14" viewBox="0 0 14 14">
  <g id="evaMessageCircleFill0" transform="translate(0)">
    <g id="evaMessageCircleFill1">
      <path id="evaMessageCircleFill2" d="M13.884,4.037A6.969,6.969,0,0,0,2.543,11.712a.741.741,0,0,1,.063.447l-.613,2.951a.693.693,0,0,0,.7.837h.139l2.982-.6a.877.877,0,0,1,.446.063A6.974,6.974,0,0,0,13.918,4.051ZM6.172,9.668a.7.7,0,1,1,.7-.7A.7.7,0,0,1,6.172,9.668Zm2.786,0a.7.7,0,1,1,.7-.7A.7.7,0,0,1,8.959,9.668Zm2.786,0a.7.7,0,1,1,.7-.7A.7.7,0,0,1,11.745,9.668Z" transform="translate(-1.975 -1.978)" />
    </g>
  </g>
</svg>
