<?xml version="1.0" standalone="no"?><!DOCTYPE svg PUBLIC "-//W3C//DTD SVG 1.1//EN" "http://www.w3.org/Graphics/SVG/1.1/DTD/svg11.dtd"><svg class="icon" width="48px" height="48.00px" viewBox="0 0 1024 1024" version="1.1" xmlns="http://www.w3.org/2000/svg"><path d="M217.6 352l-32-12.8c-6.4 19.2-12.8 38.4-25.6 57.6L192 409.6c6.4-19.2 19.2-38.4 25.6-57.6z m-51.2 275.2c6.4 19.2 12.8 38.4 25.6 57.6l32-12.8c-12.8-19.2-19.2-38.4-25.6-57.6l-32 12.8z m172.8 211.2c19.2 12.8 38.4 19.2 57.6 25.6l19.2-32c-19.2-6.4-38.4-12.8-57.6-25.6l-19.2 32z m76.8-646.4l-12.8-32c-19.2 6.4-38.4 19.2-57.6 25.6L358.4 217.6c19.2-6.4 38.4-19.2 57.6-25.6z m96-128c-249.6 0-448 198.4-448 448s198.4 448 448 448 448-198.4 448-448-198.4-448-448-448z m339.2 684.8L793.6 691.2c-25.6 38.4-57.6 70.4-96 102.4l57.6 57.6c-51.2 32-102.4 57.6-166.4 70.4v-76.8c-25.6 6.4-44.8 6.4-70.4 6.4s-44.8 0-64-6.4v76.8c-64-12.8-121.6-32-166.4-70.4L345.6 793.6c-38.4-25.6-70.4-57.6-102.4-96L185.6 755.2c-44.8-51.2-64-108.8-76.8-172.8h76.8c0-25.6-6.4-44.8-6.4-70.4s0-44.8 6.4-70.4h-76.8c12.8-64 32-121.6 70.4-166.4L236.8 332.8c25.6-44.8 57.6-76.8 96-102.4L275.2 172.8C326.4 140.8 384 115.2 448 108.8v76.8C467.2 179.2 492.8 179.2 512 179.2c25.6 0 51.2 0 70.4 6.4v-76.8c64 12.8 115.2 32 166.4 70.4L691.2 236.8c38.4 25.6 70.4 57.6 96 102.4L844.8 281.6c32 51.2 57.6 102.4 70.4 166.4h-76.8c6.4 25.6 6.4 44.8 6.4 70.4s0 44.8-6.4 70.4h76.8c-6.4 51.2-32 108.8-64 160z m12.8-352c-6.4-19.2-12.8-38.4-25.6-57.6l-32 12.8c12.8 19.2 19.2 38.4 25.6 57.6l32-12.8z m-179.2-211.2c-19.2-12.8-38.4-19.2-57.6-25.6l-19.2 32c19.2 6.4 38.4 12.8 57.6 25.6l19.2-32z m121.6 486.4l32 12.8c12.8-19.2 19.2-38.4 25.6-57.6l-32-12.8c-6.4 19.2-19.2 38.4-25.6 57.6z m-198.4 160l12.8 32c19.2-6.4 38.4-12.8 57.6-25.6l-12.8-32c-12.8 6.4-32 19.2-57.6 25.6zM512 243.2c-147.2 0-268.8 121.6-268.8 268.8s121.6 268.8 268.8 268.8 268.8-121.6 268.8-268.8-121.6-268.8-268.8-268.8z m0 499.2c-128 0-230.4-102.4-230.4-230.4s102.4-230.4 230.4-230.4 230.4 102.4 230.4 230.4-102.4 230.4-230.4 230.4z"  /></svg>