<svg xmlns="http://www.w3.org/2000/svg" width="14" height="14" viewBox="0 0 14 14">
  <path id="money-bag" d="M13.89,6A10.958,10.958,0,0,0,9.366,7.054c-.09.043-.174.085-.252.125-.154.08-.286.155-.391.221L9.856,8.986l.533.2a8.447,8.447,0,0,0,6.959,0l.6-.3L19.024,7.4a6.43,6.43,0,0,0-.691-.372A10.778,10.778,0,0,0,13.89,6ZM11.257,7.8a10.467,10.467,0,0,1-1.186-.283A10.118,10.118,0,0,1,13.889,6.7a9.562,9.562,0,0,1,2.828.455,22.587,22.587,0,0,0-2.93.609A5.9,5.9,0,0,1,11.257,7.8Zm6.523,1.969-.1.048a9.216,9.216,0,0,1-7.622,0l-.095-.046C6.52,13.361,3.892,20,13.89,20s7.3-6.763,3.89-10.235ZM13.465,13a.779.779,0,1,0,0,1.556Zm.817-.778v-.389h-.817v.389a1.558,1.558,0,1,0,0,3.111V16.89a.816.816,0,0,1-.771-.518.414.414,0,0,0-.521-.237.384.384,0,0,0-.249.5,1.632,1.632,0,0,0,1.542,1.037v.389h.817v-.389a1.558,1.558,0,1,0,0-3.111V13a.817.817,0,0,1,.771.518.4.4,0,0,0,.31.263.421.421,0,0,0,.392-.132.374.374,0,0,0,.068-.39A1.632,1.632,0,0,0,14.282,12.223Zm0,3.111V16.89a.779.779,0,1,0,0-1.556Z" transform="translate(-6.874 -6)" fill="#fff" fill-rule="evenodd"/>
</svg>
