<svg id="组_3187" data-name="组 3187" xmlns="http://www.w3.org/2000/svg" width="20" height="20" viewBox="0 0 20 20">
  <g id="组_3132" data-name="组 3132">
    <path id="like-outlined" d="M129.454,109.683a2.9,2.9,0,0,0,.589-1.752,2.937,2.937,0,0,0-1.477-2.506,1.526,1.526,0,0,0-.774-.21h-5.408l.135-2.772A2.425,2.425,0,0,0,120.1,99.9a2.622,2.622,0,0,0-2.522,1.919l-1.937,7.014h-2.916a.721.721,0,0,0-.722.722v8.21a.721.721,0,0,0,.722.722h13.562a1.5,1.5,0,0,0,.6-.122,2.905,2.905,0,0,0,1.644-3.5,2.908,2.908,0,0,0,.467-2.587,2.9,2.9,0,0,0,.589-1.752,3.08,3.08,0,0,0-.126-.837Z" transform="translate(-111.022 -99.192)" fill="rgba(247,126,4,0.43)"/>
    <path id="like-outlined-2" data-name="like-outlined" d="M129.454,109.683a2.9,2.9,0,0,0,.589-1.752,2.937,2.937,0,0,0-1.477-2.506,1.526,1.526,0,0,0-.774-.21h-5.408l.135-2.772A2.425,2.425,0,0,0,120.1,99.9a2.622,2.622,0,0,0-2.522,1.919l-1.937,7.014h-2.916a.721.721,0,0,0-.722.722v8.21a.721.721,0,0,0,.722.722h13.562a1.5,1.5,0,0,0,.6-.122,2.905,2.905,0,0,0,1.644-3.5,2.908,2.908,0,0,0,.467-2.587,2.9,2.9,0,0,0,.589-1.752,3.08,3.08,0,0,0-.126-.837Zm-15.831,7.179v-6.405h1.827v6.405Zm14.353-7.962-.494.429.313.573a1.268,1.268,0,0,1,.156.616,1.288,1.288,0,0,1-.442.97l-.494.429.313.573a1.267,1.267,0,0,1,.156.616,1.288,1.288,0,0,1-.442.97l-.494.429.313.573a1.268,1.268,0,0,1,.156.616,1.282,1.282,0,0,1-.758,1.168h-9.367v-6.475l2.244-8.131a1,1,0,0,1,.952-.728.792.792,0,0,1,.476.151.8.8,0,0,1,.329.688l-.217,4.475h7.091a1.375,1.375,0,0,1,.625,1.339Z" transform="translate(-111.022 -99.192)" fill="#f77e04"/>
  </g>
  <rect id="矩形_1473" data-name="矩形 1473" width="20" height="20" fill="none"/>
</svg>
