<svg id="组件_67_20" data-name="组件 67 – 20" xmlns="http://www.w3.org/2000/svg" width="20" height="20" viewBox="0 0 20 20">
  <rect id="矩形_1473" data-name="矩形 1473" width="20" height="20" fill="none"/>
  <path id="change-circle-rounded" d="M12.96,11.76a.586.586,0,0,0,.45.02.48.48,0,0,0,.31-.3,2.959,2.959,0,0,0,.22-.73A4.685,4.685,0,0,0,14,10a4.167,4.167,0,0,0-.29-1.51,3.809,3.809,0,0,0-.87-1.33,3.728,3.728,0,0,0-1.31-.86,4.132,4.132,0,0,0-1.49-.28l.36-.36a.543.543,0,0,0,.17-.42.615.615,0,0,0-.19-.42.58.58,0,0,0-.84,0L7.96,6.38a.387.387,0,0,0,0,.56L9.54,8.5a.654.654,0,0,0,.42.17.54.54,0,0,0,.42-.17.58.58,0,0,0,0-.84L9.92,7.2a3.125,3.125,0,0,1,1.1.21,2.662,2.662,0,0,1,.96.61,2.815,2.815,0,0,1,.82,1.96,3.918,3.918,0,0,1-.03.48,1.587,1.587,0,0,1-.13.46.708.708,0,0,0-.01.51A.573.573,0,0,0,12.96,11.76ZM9.62,15.18a.58.58,0,0,0,.84,0l1.58-1.56a.387.387,0,0,0,0-.56L10.46,11.5a.657.657,0,0,0-.42-.17.543.543,0,0,0-.42.17.58.58,0,0,0,0,.84l.44.44a2.774,2.774,0,0,1-1.09-.18,2.663,2.663,0,0,1-.95-.62,2.815,2.815,0,0,1-.82-1.96,3.753,3.753,0,0,1,.03-.49,1.829,1.829,0,0,1,.13-.47.683.683,0,0,0,.02-.43.574.574,0,0,0-.24-.33.582.582,0,0,0-.51-.08.544.544,0,0,0-.37.32,2.693,2.693,0,0,0-.21.71A5.361,5.361,0,0,0,6,10a4.014,4.014,0,0,0,1.18,2.82,3.881,3.881,0,0,0,1.3.87A4.235,4.235,0,0,0,9.96,14l-.34.34a.58.58,0,0,0,0,.84ZM10,18a7.786,7.786,0,0,1-3.12-.63,7.982,7.982,0,0,1-4.25-4.25A7.786,7.786,0,0,1,2,10a7.786,7.786,0,0,1,.63-3.12A7.988,7.988,0,0,1,6.88,2.63,7.794,7.794,0,0,1,10,2a7.794,7.794,0,0,1,3.12.63,7.987,7.987,0,0,1,4.25,4.25A7.786,7.786,0,0,1,18,10a7.786,7.786,0,0,1-.63,3.12,7.982,7.982,0,0,1-4.25,4.25A7.786,7.786,0,0,1,10,18Z" fill="#fff"/>
</svg>
