<svg width="12" height="18" viewBox="0 0 12 18" fill="none" xmlns="http://www.w3.org/2000/svg">
<path fill-rule="evenodd" clip-rule="evenodd" d="M9.49678 6.26147C8.81776 6.8944 8.39992 7.75663 8.39992 8.70688C8.39992 9.69837 8.85482 10.594 9.58667 11.2334L12 8.70714L9.49678 6.26147Z" fill="black"/>
<path fill-rule="evenodd" clip-rule="evenodd" d="M6.28428 3.12277C4.99106 4.58752 4.20023 6.5501 4.20023 8.70702C4.20023 10.9656 5.0674 13.0112 6.47054 14.4951L7.75403 13.1516C6.65773 11.94 6.00025 10.3928 6.00025 8.70706C6.00025 7.09438 6.60198 5.60845 7.61401 4.42192L6.28428 3.12277Z" fill="black"/>
<path fill-rule="evenodd" clip-rule="evenodd" d="M4.6155 1.49221C2.89517 3.21267 1.79997 5.80597 1.79997 8.70687C1.79997 11.7498 3.00501 14.4542 4.87256 16.1678L3.59994 17.5C2.39993 16.3276 -7.87552e-05 12.9276 -7.83863e-05 8.70689C-7.80173e-05 4.48621 2.39994 1.47701 3.59994 0.5L4.6155 1.49221Z" fill="black"/>
</svg>
