<svg version="1.2" xmlns="http://www.w3.org/2000/svg" viewBox="0 0 43 51" width="17" height="20">
	<title>copyicon</title>
	<style>
		.s0 { fill: #f77e04 } 
	</style>
	<path id="Shape 1 copy" fill-rule="evenodd" class="s0" d="m7 10c0-1.7 1.3-3 3-3h30c1.7 0 3 1.3 3 3v37c0 1.7-1.3 3-3 3h-30c-1.7 0-3-1.3-3-3zm3 35c0 1.1 0.9 2 2 2h26c1.1 0 2-0.9 2-2v-33c0-1.1-0.9-2-2-2h-26c-1.1 0-2 0.9-2 2z"/>
	<path id="Shape 1" fill-rule="evenodd" class="s0" d="m0 3c0-1.7 1.3-3 3-3h30c1.7 0 3 1.3 3 3v5h-3v-3c0-1.1-0.9-2-2-2h-26c-1.1 0-2 0.9-2 2v33c0 1.1 0.9 2 2 2h2v3h-4c-1.7 0-3-1.3-3-3z"/>
</svg>