<svg xmlns="http://www.w3.org/2000/svg" width="18.04" height="18.579" viewBox="0 0 18.04 18.579">
  <path id="dislike-outlined" d="M129.451,108.9a2.907,2.907,0,0,0-.467-2.586,2.907,2.907,0,0,0-.467-2.586,2.9,2.9,0,0,0-1.644-3.5,1.491,1.491,0,0,0-.6-.122H112.722a.721.721,0,0,0-.722.722v8.208a.721.721,0,0,0,.722.722h2.916l1.935,7.009a2.622,2.622,0,0,0,2.521,1.919,2.425,2.425,0,0,0,2.422-2.544l-.135-2.771h5.41a1.526,1.526,0,0,0,.773-.21,2.875,2.875,0,0,0,.888-4.255Zm-15.828-.773v-6.4h1.827v6.4Zm14.143,3.617h-7.09l.216,4.474a.8.8,0,0,1-.329.688.786.786,0,0,1-.476.151,1,1,0,0,1-.952-.728l-2.244-8.129V101.72h9.367a1.282,1.282,0,0,1,.758,1.168,1.268,1.268,0,0,1-.156.616l-.313.573.494.428a1.289,1.289,0,0,1,.286,1.585l-.313.573.494.428a1.289,1.289,0,0,1,.286,1.585l-.316.575.494.428a1.28,1.28,0,0,1,.442.97,1.3,1.3,0,0,1-.649,1.091Z" transform="translate(-112 -100.099)" fill="#ccc"/>
</svg>
