<svg version="1.2" xmlns="http://www.w3.org/2000/svg" viewBox="0 0 38 40" width="38" height="40">
	<title>New Project</title>
	<style>
		.s0 { fill: #aeaeb2 } 
		.s1 { fill: #dcdbdb } 
	</style>
	<path id="Shape 2" fill-rule="evenodd" class="s0" d="m27.5 40c-5.8 0-10.5-4.5-10.5-10 0-5.5 4.7-10 10.5-10 5.8 0 10.5 4.5 10.5 10 0 5.5-4.7 10-10.5 10zm-1.7-6l0.4-0.4 0.3 0.3 6.1-6.9-1.5-1.3-5.1 5.8-2.6-2.3-1.3 1.5z"/>
	<path id="Shape 1" fill-rule="evenodd" class="s1" d="m0 9c0-2.8 2.2-5 5-5h7.1c0.5-2.3 2.7-4 5.4-4 2.7 0 4.9 1.7 5.4 4h6.1c2.8 0 5 2.2 5 5v10.6c-1.9-1-4.1-1.6-6.5-1.6q-0.9 0-1.8 0.1-0.3-0.1-0.7-0.1h-16c-1.1 0-2 0.9-2 2 0 1.1 0.9 2 2 2h8.8c-2.4 2.3-3.8 5.5-3.8 9 0 2.6 0.8 5 2.1 7h-11.1c-2.8 0-5-2.2-5-5zm15-2c0 0.6 0.4 1 1 1h3c0.6 0 1-0.4 1-1 0-0.6-0.4-1-1-1h-3c-0.6 0-1 0.4-1 1zm-8 7c0 1.1 0.9 2 2 2h16c1.1 0 2-0.9 2-2 0-1.1-0.9-2-2-2h-16c-1.1 0-2 0.9-2 2z"/>
</svg>