<svg width="20" height="20" viewBox="0 0 20 20" fill="none" xmlns="http://www.w3.org/2000/svg">
<path fill-rule="evenodd" clip-rule="evenodd" d="M10 18.8462C14.8856 18.8462 18.8462 14.8856 18.8462 10C18.8462 5.1144 14.8856 1.15385 10 1.15385C5.1144 1.15385 1.15385 5.1144 1.15385 10C1.15385 14.8856 5.1144 18.8462 10 18.8462ZM10 20C15.5228 20 20 15.5228 20 10C20 4.47715 15.5228 0 10 0C4.47715 0 0 4.47715 0 10C0 15.5228 4.47715 20 10 20Z" fill="black"/>
<path fill-rule="evenodd" clip-rule="evenodd" d="M14.6154 10.3846H5.38461V9.23077H14.6154V10.3846Z" fill="black"/>
<path fill-rule="evenodd" clip-rule="evenodd" d="M9.61538 14.6154L9.61538 5.38461L10.7692 5.38461L10.7692 14.6154L9.61538 14.6154Z" fill="black"/>
</svg>
