<svg width="18" height="18" viewBox="0 0 18 18" fill="none" xmlns="http://www.w3.org/2000/svg">
<path fill-rule="evenodd" clip-rule="evenodd" d="M1 9C1 4.57143 4.56739 1 8.98669 1C13.406 1 16.9734 4.57143 17 9C17 13.4286 13.4326 17 9.01331 17C7.46922 17 6.03161 16.5714 4.80699 15.8C4.67388 15.7143 4.51414 15.6857 4.35441 15.7429L2.01165 16.6286C1.58569 16.7714 1.18636 16.3714 1.31947 15.9143L2.06489 13.3714C2.11814 13.2286 2.09151 13.0571 2.01165 12.9143C1.37271 11.7429 1 10.4286 1 9ZM6 10C6.55228 10 7 9.55229 7 9C7 8.44772 6.55228 8 6 8C5.44772 8 5 8.44772 5 9C5 9.55229 5.44772 10 6 10ZM10 9C10 9.55229 9.55229 10 9 10C8.44772 10 8 9.55229 8 9C8 8.44772 8.44772 8 9 8C9.55229 8 10 8.44772 10 9ZM12 10C12.5523 10 13 9.55229 13 9C13 8.44772 12.5523 8 12 8C11.4477 8 11 8.44772 11 9C11 9.55229 11.4477 10 12 10Z" fill="#AAAAAA"/>
</svg>
