<svg width="12" height="12" viewBox="0 0 12 12" fill="none" xmlns="http://www.w3.org/2000/svg">
<path fill-rule="evenodd" clip-rule="evenodd" d="M3.20703 1.20715C3.20703 0.931011 3.43089 0.707153 3.70703 0.707153H11.207V8.20715C11.207 8.4833 10.9832 8.70715 10.707 8.70715C10.4309 8.70715 10.207 8.4833 10.207 8.20715V1.70715H3.70703C3.43089 1.70715 3.20703 1.4833 3.20703 1.20715Z" fill="#808080"/>
<path fill-rule="evenodd" clip-rule="evenodd" d="M0.853553 10.8536C0.658291 10.6583 0.658291 10.3417 0.853553 10.1464L10.1464 0.853554C10.3417 0.658292 10.6583 0.658291 10.8536 0.853554C11.0488 1.04882 11.0488 1.3654 10.8536 1.56066L1.56066 10.8536C1.3654 11.0488 1.04882 11.0488 0.853553 10.8536Z" fill="#808080"/>
</svg>
