<svg width="22" height="17" viewBox="0 0 22 17" fill="none" xmlns="http://www.w3.org/2000/svg">
<path fill-rule="evenodd" clip-rule="evenodd" d="M10.1445 -1.52588e-05C8.81616 -1.52588e-05 5.71673 0.894722 6.1595 5.36841C6.33816 7.17356 7.12349 8.57923 7.9306 9.39472C8.63905 10.1105 8.37338 11.1842 7.48783 11.6316L2.17452 14.3158C1.28897 14.7631 0.846191 15.2105 0.846191 16.1052C0.846191 17 1.73174 17 3.06007 17H10.1445H16.7861C18.1144 17 19 17 19 16.1052C19 15.2105 18.5572 14.7631 17.6717 14.3158L12.3584 11.6316C11.4728 11.1842 11.2071 10.1105 11.9156 9.39472C12.7227 8.57923 13.508 7.17356 13.6867 5.36841C14.1295 0.894722 11.4728 -1.52588e-05 10.1445 -1.52588e-05Z" fill="white"/>
<path d="M18.4999 4.59999V11.3" stroke="white" stroke-width="1.5"/>
<path d="M15 8L21.7652 8" stroke="white" stroke-width="1.5"/>
</svg>
