<svg width="24" height="19" viewBox="0 0 24 19" fill="none" xmlns="http://www.w3.org/2000/svg">
<path d="M15.0975 11.9513L20.4813 15.0798C21.5201 15.8264 21.2857 16.3981 21.2439 17.1464C22.5975 17.1464 23.4998 16.7035 23.4999 16C23.4999 15.5 23.2848 14.9801 22.4999 14.5L17.4999 11.5C16.743 11.0564 15.7779 10.6799 16.4999 10C17.3224 9.22548 18.3178 7.71453 18.4999 6.00002C18.9511 1.75099 15.9077 1.23608 15.0975 1.23608C15.9999 2 16.4025 4.31716 16.378 5.97573C16.2058 7.69801 15.4488 9.03915 14.6707 9.8172C13.9878 10.5001 14.2439 11.5245 15.0975 11.9513Z" fill="white"/>
<path fill-rule="evenodd" clip-rule="evenodd" d="M10.5 0C9 0 5.5 1 6 6C6.20175 8.01752 7.08857 9.58857 8 10.5C8.8 11.3 8.5 12.5 7.5 13L1.5 16C0.5 16.5 0 17 0 18C0 19 1 19 2.5 19H10.5H18C19.5 19 20.5 19 20.5 18C20.5 17 20 16.5 19 16L13 13C12 12.5 11.7 11.3 12.5 10.5C13.4114 9.58857 14.2982 8.01752 14.5 6C15 1 12 0 10.5 0Z" fill="white"/>
</svg>
