<svg width="25" height="19" viewBox="0 0 25 19" fill="none" xmlns="http://www.w3.org/2000/svg">
<path fill-rule="evenodd" clip-rule="evenodd" d="M6 6C5.5 1 9 0 10.5 0C12 0 15 1 14.5 6C14.2982 8.01752 13.4114 9.58857 12.5 10.5C11.7 11.3 12 12.5 13 13L14.0711 13.5355C14.0243 13.8502 14 14.1723 14 14.5C14 16.2465 14.6888 17.8321 15.8096 19H10.5H2.5C1 19 0 19 0 18C0 17 0.5 16.5 1.5 16L7.5 13C8.5 12.5 8.8 11.3 8 10.5C7.08857 9.58857 6.20175 8.01752 6 6Z" fill="white"/>
<path fill-rule="evenodd" clip-rule="evenodd" d="M20.5 19C22.9853 19 25 16.9853 25 14.5C25 12.0147 22.9853 10 20.5 10C18.0147 10 16 12.0147 16 14.5C16 16.9853 18.0147 19 20.5 19ZM20 17V15H18V14H20V12H21V14H23V15H21V17H20Z" fill="white"/>
</svg>
