<svg width="15" height="22" viewBox="0 0 15 22" fill="none" xmlns="http://www.w3.org/2000/svg">
<path fill-rule="evenodd" clip-rule="evenodd" d="M3.12894 14.5446C3.97771 13.7255 4.50001 12.6096 4.50001 11.3799C4.50001 10.0968 3.93142 8.93775 3.01667 8.11035L0 11.3796L3.12894 14.5446Z" fill="#5D5D5D"/>
<path fill-rule="evenodd" clip-rule="evenodd" d="M7.14477 18.6063C8.76142 16.7107 9.75004 14.1708 9.75004 11.3793C9.75004 8.45631 8.66603 5.80909 6.91202 3.88867L5.30756 5.6275C6.67809 7.19544 7.50003 9.19786 7.50003 11.3795C7.50003 13.4666 6.74783 15.3896 5.48274 16.9251L7.14477 18.6063Z" fill="#5D5D5D"/>
<path fill-rule="evenodd" clip-rule="evenodd" d="M9.23053 20.716C11.381 18.4895 12.75 15.1334 12.75 11.3793C12.75 7.44145 11.2437 3.94157 8.90924 1.72394L10.5 0C12 1.51724 15 5.91724 15 11.3793C15 16.8414 12 20.7356 10.5 22L9.23053 20.716Z" fill="#5D5D5D"/>
</svg>
