<svg width="19" height="16" viewBox="0 0 19 16" fill="none" xmlns="http://www.w3.org/2000/svg">
<path d="M11.7043 7.99957L13.8522 5.85634C13.9462 5.76227 13.9991 5.63467 13.9991 5.50163C13.9991 5.36859 13.9462 5.241 13.8522 5.14692C13.7581 5.05285 13.6305 5 13.4975 5C13.3645 5 13.2369 5.05285 13.1429 5.14692L10.9999 7.29515L8.85701 5.14692C8.76295 5.05285 8.63537 5 8.50235 5C8.36933 5 8.24176 5.05285 8.1477 5.14692C8.05363 5.241 8.00079 5.36859 8.00079 5.50163C8.00079 5.63467 8.05363 5.76227 8.1477 5.85634L10.2956 7.99957L8.1477 10.1428C8.10088 10.1893 8.06372 10.2445 8.03836 10.3054C8.013 10.3663 7.99994 10.4316 7.99994 10.4975C7.99994 10.5635 8.013 10.6288 8.03836 10.6896C8.06372 10.7505 8.10088 10.8058 8.1477 10.8522C8.19413 10.899 8.24938 10.9362 8.31025 10.9616C8.37112 10.9869 8.43641 11 8.50235 11C8.56829 11 8.63358 10.9869 8.69446 10.9616C8.75533 10.9362 8.81057 10.899 8.85701 10.8522L10.9999 8.70399L13.1429 10.8522C13.1893 10.899 13.2446 10.9362 13.3054 10.9616C13.3663 10.9869 13.4316 11 13.4975 11C13.5635 11 13.6288 10.9869 13.6896 10.9616C13.7505 10.9362 13.8057 10.899 13.8522 10.8522C13.899 10.8058 13.9362 10.7505 13.9615 10.6896C13.9869 10.6288 13.9999 10.5635 13.9999 10.4975C13.9999 10.4316 13.9869 10.3663 13.9615 10.3054C13.9362 10.2445 13.899 10.1893 13.8522 10.1428L11.7043 7.99957Z" fill="black" stroke="black" stroke-width="0.2"/>
<path fill-rule="evenodd" clip-rule="evenodd" d="M5.56401 1.16485C5.66812 1.02951 5.82919 0.950195 5.99995 0.950195H17.5C17.8037 0.950195 18.0499 1.19644 18.0499 1.5002V14.5002C18.0499 14.804 17.8037 15.0502 17.5 15.0502H5.99995C5.82919 15.0502 5.66812 14.9709 5.56401 14.8355L0.564008 8.33554C0.411932 8.13784 0.411932 7.86255 0.564008 7.66485L5.56401 1.16485ZM6.27077 2.0502L1.69385 8.0002L6.27077 13.9502H16.95V2.0502H6.27077Z" fill="black"/>
</svg>
