<svg width="24" height="24" viewBox="0 0 24 24" fill="none" xmlns="http://www.w3.org/2000/svg">
<path d="M17.6666 15.7778V11.0555C17.6666 8.15611 16.1177 5.72888 13.4166 5.08666V4.44444C13.4166 3.66055 12.7744 3.02777 11.9905 3.02777C11.2066 3.02777 10.5833 3.66055 10.5833 4.44444V5.08666C7.8727 5.72888 6.33326 8.14666 6.33326 11.0555V15.7778L5.10548 16.9961C4.51048 17.5911 4.92604 18.6111 5.76659 18.6111H18.2049C19.0455 18.6111 19.4705 17.5911 18.8755 16.9961L17.6666 15.7778ZM11.9905 21.4444C13.0294 21.4444 13.8794 20.5944 13.8794 19.5555H10.1016C10.1016 20.5944 10.9421 21.4444 11.9905 21.4444ZM7.06048 5.13388C7.45715 4.77499 7.46659 4.1611 7.08881 3.78333C6.72992 3.42444 6.14437 3.41499 5.77603 3.76444C4.16103 5.23777 3.04659 7.23999 2.6877 9.48777C2.6027 10.0639 3.04659 10.5833 3.63215 10.5833C4.08548 10.5833 4.48215 10.2528 4.5577 9.79944C4.84103 7.96722 5.7477 6.33333 7.06048 5.13388ZM18.2333 3.76444C17.8555 3.41499 17.2699 3.42444 16.911 3.78333C16.5333 4.1611 16.5521 4.76555 16.9394 5.12444C18.2427 6.32388 19.1588 7.95777 19.4421 9.78999C19.5083 10.2433 19.9049 10.5739 20.3677 10.5739C20.9438 10.5739 21.3971 10.0544 21.3027 9.47833C20.9438 7.23999 19.8388 5.24722 18.2333 3.76444Z" fill="white"/>
</svg>
