<svg width="32" height="32" viewBox="0 0 32 32" fill="none" xmlns="http://www.w3.org/2000/svg">
<path d="M12.5 13.375C12.5 12.4087 11.7163 11.625 10.75 11.625H9.875C7.9418 11.625 6.375 13.1918 6.375 15.125V17.75C6.375 19.6832 7.9418 21.25 9.875 21.25H10.75C11.7163 21.25 12.5 20.4663 12.5 19.5V13.375ZM22.125 21.25C24.0582 21.25 25.625 19.6832 25.625 17.75V15.125C25.625 13.1918 24.0582 11.625 22.125 11.625H21.25C20.2837 11.625 19.5 12.4087 19.5 13.375V19.5C19.5 20.4663 20.2837 21.25 21.25 21.25H22.125ZM16 2C8.18953 2 2.25047 8.49852 2 16V16.875C2 17.3584 2.39156 17.75 2.875 17.75H3.75C4.23344 17.75 4.625 17.3584 4.625 16.875V16C4.625 9.72789 9.72789 4.625 16 4.625C22.2721 4.625 27.375 9.72789 27.375 16H27.3684C27.3728 16.1329 27.375 24.5 27.375 24.5C27.375 25.777 26.3398 26.8122 25.0628 26.8122H19.5C19.5 25.3624 18.3248 24.1872 16.875 24.1872H15.125C13.6752 24.1872 12.5 25.3624 12.5 26.8122C12.5 28.262 13.6752 29.4372 15.125 29.4372H25.0628C27.7895 29.4372 30 27.2267 30 24.5V16C29.7495 8.49852 23.8105 2 16 2Z" fill="#6E6E6E"/>
</svg>
