<svg width="32" height="32" viewBox="0 0 32 32" fill="none" xmlns="http://www.w3.org/2000/svg">
<path d="M29.3333 14.56L25.68 12.44C29.2 9.44 25.6666 3.84 21.44 5.74667L20.28 6.24L20.1333 4.96C20 3.52 19.2533 2.49334 18.2666 1.89334C16.08 0.622669 12.7466 1.49334 12.2133 4.66667L8.54663 2.56C7.26663 1.81334 5.63996 2.25334 4.90663 3.53334L3.57329 5.84C3.19996 6.48 3.42663 7.29334 4.06663 7.66667L14.4533 13.6667L16.4533 10.2L18.76 11.5333L16.76 15L27.1466 21C27.7866 21.3333 28.6133 21.1467 28.9733 20.5067L30.3066 18.2C31.04 16.92 30.6133 15.2933 29.3333 14.56ZM16.4933 6.66667C15.3333 7 14.4 5.76 14.9866 4.73334C15.3333 4.09334 16.1733 3.88 16.8133 4.24C17.84 4.84 17.64 6.38667 16.4933 6.66667ZM23.4133 10.6667C22.2666 11 21.3333 9.76 21.92 8.73334C22.28 8.09334 23.1066 7.88 23.7333 8.24C24.76 8.84 24.56 10.3867 23.4133 10.6667ZM27.8266 22.5067C28.3733 22.5067 28.8933 22.32 29.3333 22V26.6667C29.3333 28.1467 28.1466 29.3333 26.6666 29.3333H5.33329C3.86663 29.3333 2.66663 28.1467 2.66663 26.6667V14.6667H13.5333L14.6666 15.3333V26.6667H17.3333V16.8667L26.4933 22.1467C26.8933 22.3867 27.3333 22.5067 27.8266 22.5067Z" fill="#9831EC"/>
</svg>
