<svg width="10" height="10" viewBox="0 0 10 10" fill="none" xmlns="http://www.w3.org/2000/svg">
<path d="M9.49994 0.507209C9.22137 0.228638 8.77137 0.228638 8.4928 0.507209L4.99994 3.99292L1.50709 0.500066C1.22852 0.221495 0.778516 0.221495 0.499944 0.500066C0.221373 0.778638 0.221373 1.22864 0.499944 1.50721L3.9928 5.00007L0.499944 8.49292C0.221373 8.77149 0.221373 9.22149 0.499944 9.50006C0.778516 9.77864 1.22852 9.77864 1.50709 9.50006L4.99994 6.00721L8.4928 9.50006C8.77137 9.77864 9.22137 9.77864 9.49994 9.50006C9.77851 9.22149 9.77851 8.77149 9.49994 8.49292L6.00709 5.00007L9.49994 1.50721C9.77137 1.23578 9.77137 0.778638 9.49994 0.507209Z" fill="#52463A"/>
</svg>
