<svg width="12" height="12" viewBox="0 0 12 12" fill="none" xmlns="http://www.w3.org/2000/svg">
<path d="M8.32039 7.60164L6.35456 6.43498V3.79248C6.35456 3.55914 6.16789 3.37248 5.93456 3.37248H5.89956C5.66622 3.37248 5.47956 3.55914 5.47956 3.79248V6.54581C5.47956 6.74998 5.58456 6.94248 5.76539 7.04748L7.89456 8.32498C8.09289 8.44164 8.34956 8.38331 8.46622 8.18498C8.58872 7.98081 8.52456 7.71831 8.32039 7.60164ZM11.4179 1.62831L9.62122 0.134978C9.37622 -0.0691889 9.00872 -0.0400223 8.79872 0.210811C8.59456 0.455811 8.62956 0.823311 8.87456 1.03331L10.6654 2.52664C10.9104 2.73081 11.2779 2.70164 11.4879 2.45081C11.6979 2.20581 11.6629 1.83831 11.4179 1.62831ZM1.45456 2.52664L3.24539 1.03331C3.49622 0.823311 3.53122 0.455811 3.32122 0.210811C3.11706 -0.0400223 2.74956 -0.0691889 2.50456 0.134978L0.70789 1.62831C0.46289 1.83831 0.42789 2.20581 0.63789 2.45081C0.842057 2.70164 1.20956 2.73081 1.45456 2.52664ZM6.06289 1.03914C3.16372 1.03914 0.81289 3.38998 0.81289 6.28914C0.81289 9.18831 3.16372 11.5391 6.06289 11.5391C8.96206 11.5391 11.3129 9.18831 11.3129 6.28914C11.3129 3.38998 8.96206 1.03914 6.06289 1.03914ZM6.06289 10.3725C3.81122 10.3725 1.97956 8.54081 1.97956 6.28914C1.97956 4.03748 3.81122 2.20581 6.06289 2.20581C8.31456 2.20581 10.1462 4.03748 10.1462 6.28914C10.1462 8.54081 8.31456 10.3725 6.06289 10.3725Z" fill="white"/>
</svg>
