<svg version="1.2" xmlns="http://www.w3.org/2000/svg" viewBox="0 0 30 30" width="30" height="30">
	<title>New Project</title>
	<style>
		.s0 { fill: #d6d4d4 } 
	</style>
	<path id="Shape 2" fill-rule="evenodd" class="s0" d="m17.7 19.5q-0.3 0-0.6-0.2l-2.1-2.2-2.1 2.2q-0.3 0.2-0.6 0.2-0.3 0-0.5-0.2l-1.1-1.1q-0.2-0.2-0.2-0.5 0-0.3 0.2-0.6l2.2-2.1-2.2-2.1q-0.2-0.3-0.2-0.6 0-0.3 0.2-0.5l1.1-1.1q0.2-0.2 0.5-0.2 0.3 0 0.6 0.2l2.1 2.2 2.1-2.2q0.3-0.2 0.6-0.2 0.3 0 0.5 0.2l1.1 1.1q0.2 0.2 0.2 0.5 0 0.3-0.2 0.6l-2.2 2.1 2.2 2.1q0.2 0.3 0.2 0.6 0 0.3-0.2 0.5l-1.1 1.1q-0.2 0.2-0.5 0.2zm11.8-8.4q-1-3.8-3.9-6.7-2.9-2.9-6.7-3.9-3.9-1-7.8 0-3.8 1-6.7 3.9-2.9 2.9-3.9 6.7-1 3.9 0 7.8 1 3.8 3.9 6.7 2.9 2.9 6.7 3.9 3.9 1 7.8 0 3.8-1 6.7-3.9 2.9-2.9 3.9-6.7 1-3.9 0-7.8z"/>
</svg>