<svg width="32" height="32" viewBox="0 0 32 32" fill="none" xmlns="http://www.w3.org/2000/svg">
<g clip-path="url(#clip0_460_315)">
<path d="M11.5893 17.875H9.26786C8.88482 17.875 8.57143 17.5586 8.57143 17.1719V14.8281C8.57143 14.4414 8.88482 14.125 9.26786 14.125H11.5893C11.9723 14.125 12.2857 14.4414 12.2857 14.8281V17.1719C12.2857 17.5586 11.9723 17.875 11.5893 17.875ZM17.8571 17.1719V14.8281C17.8571 14.4414 17.5437 14.125 17.1607 14.125H14.8393C14.4562 14.125 14.1429 14.4414 14.1429 14.8281V17.1719C14.1429 17.5586 14.4562 17.875 14.8393 17.875H17.1607C17.5437 17.875 17.8571 17.5586 17.8571 17.1719ZM23.4286 17.1719V14.8281C23.4286 14.4414 23.1152 14.125 22.7321 14.125H20.4107C20.0277 14.125 19.7143 14.4414 19.7143 14.8281V17.1719C19.7143 17.5586 20.0277 17.875 20.4107 17.875H22.7321C23.1152 17.875 23.4286 17.5586 23.4286 17.1719ZM17.8571 22.7969V20.4531C17.8571 20.0664 17.5437 19.75 17.1607 19.75H14.8393C14.4562 19.75 14.1429 20.0664 14.1429 20.4531V22.7969C14.1429 23.1836 14.4562 23.5 14.8393 23.5H17.1607C17.5437 23.5 17.8571 23.1836 17.8571 22.7969ZM12.2857 22.7969V20.4531C12.2857 20.0664 11.9723 19.75 11.5893 19.75H9.26786C8.88482 19.75 8.57143 20.0664 8.57143 20.4531V22.7969C8.57143 23.1836 8.88482 23.5 9.26786 23.5H11.5893C11.9723 23.5 12.2857 23.1836 12.2857 22.7969ZM23.4286 22.7969V20.4531C23.4286 20.0664 23.1152 19.75 22.7321 19.75H20.4107C20.0277 19.75 19.7143 20.0664 19.7143 20.4531V22.7969C19.7143 23.1836 20.0277 23.5 20.4107 23.5H22.7321C23.1152 23.5 23.4286 23.1836 23.4286 22.7969ZM29 7.5625V28.1875C29 29.7402 27.7522 31 26.2143 31H5.78571C4.24777 31 3 29.7402 3 28.1875V7.5625C3 6.00977 4.24777 4.75 5.78571 4.75H8.57143V1.70312C8.57143 1.31641 8.88482 1 9.26786 1H11.5893C11.9723 1 12.2857 1.31641 12.2857 1.70312V4.75H19.7143V1.70312C19.7143 1.31641 20.0277 1 20.4107 1H22.7321C23.1152 1 23.4286 1.31641 23.4286 1.70312V4.75H26.2143C27.7522 4.75 29 6.00977 29 7.5625ZM26.2143 27.8359V10.375H5.78571V27.8359C5.78571 28.0293 5.94241 28.1875 6.13393 28.1875H25.8661C26.0576 28.1875 26.2143 28.0293 26.2143 27.8359Z" fill="#17BBE0"/>
</g>
<defs>
<clipPath id="clip0_460_315">
<rect width="32" height="32" fill="white"/>
</clipPath>
</defs>
</svg>
