<svg width="18" height="18" viewBox="0 0 18 18" fill="none" xmlns="http://www.w3.org/2000/svg">
<g clip-path="url(#clip0_1068_9752)">
<path d="M9.00002 0.9C13.4735 0.9 17.1 4.52649 17.1 9C17.1 13.4735 13.4735 17.1 9.00002 17.1C4.52651 17.1 0.900024 13.4735 0.900024 9C0.900024 4.52649 4.52651 0.9 9.00002 0.9ZM9.00846 11.97C8.631 11.97 8.32503 12.276 8.32503 12.6534C8.32503 13.0309 8.631 13.3369 9.00846 13.3369C9.38592 13.3369 9.6919 13.0309 9.6919 12.6534C9.6919 12.276 9.38592 11.97 9.00846 11.97ZM9.92371 5.14602C9.19313 4.8572 8.36218 4.89475 7.6544 5.28794C6.68123 5.82858 6.21395 6.66199 6.31965 7.70447C6.34974 8.00119 6.61466 8.21734 6.91137 8.18725C7.20512 8.15746 7.4199 7.89751 7.39498 7.60442L7.39241 7.57759C7.33812 6.987 7.57856 6.56555 8.17887 6.23204C8.59673 5.99991 9.08968 5.97764 9.52668 6.15039C9.93606 6.31222 10.2267 6.61939 10.3053 6.96106C10.4663 7.6607 10.2395 8.06283 9.50656 8.5287L9.46873 8.55263C9.15025 8.75553 8.91118 8.99185 8.74597 9.2606C8.61544 9.47297 8.53593 9.69626 8.49538 9.93433L8.49273 9.95023L8.48814 9.97944L8.4853 9.99851L8.48267 10.0173L8.48022 10.0359L8.47795 10.0543L8.47584 10.0726L8.47482 10.0817L8.47297 10.1L8.47126 10.1183L8.46969 10.1367L8.46828 10.1552L8.46699 10.1739L8.46585 10.1929L8.46482 10.2122L8.46391 10.2319L8.46311 10.252L8.46242 10.2725L8.46183 10.2936L8.46112 10.3264L8.46075 10.3491L8.46036 10.3845L8.46013 10.4217L8.46002 10.4828L8.46009 10.4939C8.46487 10.7881 8.70478 11.025 9.00002 11.025C9.29527 11.025 9.53518 10.788 9.53996 10.4939L9.54003 10.485L9.54011 10.44L9.54028 10.4178L9.54068 10.3856L9.54105 10.3648L9.54183 10.3346L9.54247 10.3151L9.54364 10.2868L9.54455 10.2685L9.54559 10.2507L9.54738 10.2247L9.54873 10.208L9.55022 10.1916L9.55184 10.1756L9.55361 10.16L9.55653 10.1373L9.55923 10.1189L9.56217 10.1009L9.5647 10.0869L9.5674 10.0732L9.57027 10.0597L9.5733 10.0465C9.57504 10.0392 9.57685 10.032 9.57877 10.025L9.58169 10.0144L9.58539 10.0019L9.58927 9.98955L9.5923 9.9804L9.59544 9.97134L9.59983 9.95936L9.60207 9.95342L9.6044 9.94751L9.6092 9.93577L9.61168 9.92991L9.61421 9.92409L9.61944 9.9125L9.62349 9.90384L9.62771 9.8952L9.6335 9.88373L9.63648 9.87797L9.64262 9.8665L9.649 9.85502L9.65734 9.84063L9.66605 9.82617C9.74261 9.70163 9.86394 9.58158 10.0477 9.46433L10.0753 9.44692L10.0914 9.43666L10.1074 9.42638L10.1393 9.40584L10.171 9.38504C10.6176 9.09006 10.9382 8.78538 11.1542 8.41172C11.4353 7.92532 11.5059 7.36238 11.3578 6.71894C11.1949 6.01048 10.6477 5.43222 9.92371 5.14602Z" fill="#AAAAAA"/>
</g>
<defs>
<clipPath id="clip0_1068_9752">
<rect width="18" height="18" fill="white"/>
</clipPath>
</defs>
</svg>
