<svg width="17" height="16" viewBox="0 0 17 16" fill="none" xmlns="http://www.w3.org/2000/svg">
  <path
    d="M8.5 1C4.29306 1 1 3.97078 1 7.5C1 9.33432 1.87884 11.0049 3.31903 12.1983C3.43366 12.2933 3.5 12.4344 3.5 12.5833V14.691L5.58709 13.6474C5.70274 13.5896 5.8363 13.5788 5.95972 13.6174C6.75197 13.8648 7.60706 14 8.5 14C12.7069 14 16 11.0292 16 7.5C16 3.97078 12.7069 1 8.5 1ZM0 7.5C0 3.29724 3.87038 0 8.5 0C13.1296 0 17 3.29724 17 7.5C17 11.7028 13.1296 15 8.5 15C7.57837 15 6.68979 14.8706 5.85695 14.6305L3.22361 15.9472C3.06861 16.0247 2.88454 16.0164 2.73713 15.9253C2.58973 15.8342 2.5 15.6733 2.5 15.5V12.8138C0.965618 11.4649 0 9.58848 0 7.5Z"
    fill="#576B95"
  />
</svg>