<svg width="18" height="18" viewBox="0 0 18 18" fill="none" xmlns="http://www.w3.org/2000/svg">
<g clip-path="url(#clip0_1068_9716)">
<path d="M16.5766 7.08984C16.6966 6.99902 16.875 7.08398 16.875 7.22754V13.2188C16.875 13.9951 16.2136 14.625 15.3984 14.625H2.60156C1.78638 14.625 1.125 13.9951 1.125 13.2188V7.23047C1.125 7.08398 1.30034 7.00195 1.42339 7.09277C2.11245 7.60254 3.02607 8.25 6.16377 10.4209C6.81284 10.8721 7.90796 11.8213 9 11.8154C10.0982 11.8242 11.2148 10.8545 11.8393 10.4209C14.977 8.25 15.8875 7.59961 16.5766 7.08984ZM9 10.875C9.71367 10.8867 10.7411 10.0195 11.2579 9.66211C15.34 6.84082 15.6507 6.59473 16.592 5.8916C16.7704 5.75977 16.875 5.55469 16.875 5.33789V4.78125C16.875 4.00488 16.2136 3.375 15.3984 3.375H2.60156C1.78638 3.375 1.125 4.00488 1.125 4.78125V5.33789C1.125 5.55469 1.22959 5.75684 1.40801 5.8916C2.34932 6.5918 2.66001 6.84082 6.74209 9.66211C7.25889 10.0195 8.28633 10.8867 9 10.875Z" fill="#AAAAAA"/>
</g>
<defs>
<clipPath id="clip0_1068_9716">
<rect width="18" height="18" fill="white"/>
</clipPath>
</defs>
</svg>
