<svg width="27" height="27" viewBox="0 0 27 27" fill="none" xmlns="http://www.w3.org/2000/svg">
<circle cx="13.5" cy="13.5" r="10.75" stroke="#07C160" stroke-width="1.5"/>
<circle cx="13.375" cy="13.5" r="8.75" stroke="#07C160" stroke-width="0.5"/>
<path d="M9.375 15.0028C9.375 14.2912 9.51023 13.5936 9.78068 12.9101C10.0511 12.2266 10.4081 11.5478 10.8517 10.8736C11.0464 10.5927 11.2519 10.3024 11.4683 10.0028C11.6955 9.70318 11.9227 9.42228 12.1498 9.16011C12.3878 8.89794 12.6042 8.6779 12.7989 8.5H15.233V8.66854C15.0166 8.89326 14.7678 9.16479 14.4866 9.48315C14.2053 9.8015 13.9294 10.1245 13.659 10.4522C13.3993 10.78 13.1613 11.089 12.945 11.3792C12.7394 11.6695 12.5934 11.9036 12.5068 12.0815L12.5231 12.2219C12.6853 12.1283 12.8801 12.0487 13.1073 11.9831C13.3453 11.9082 13.6752 11.8708 14.0971 11.8708C14.6813 11.8708 15.2168 11.9972 15.7036 12.25C16.2012 12.5028 16.6015 12.8633 16.9044 13.3315C17.2181 13.7996 17.375 14.3614 17.375 15.0169C17.375 15.7753 17.1911 16.4167 16.8233 16.941C16.4663 17.456 15.9849 17.8446 15.3791 18.1067C14.7732 18.3689 14.1079 18.5 13.3831 18.5C12.6475 18.5 11.9768 18.3689 11.3709 18.1067C10.7651 17.8446 10.2783 17.456 9.9105 16.941C9.5535 16.4167 9.375 15.7706 9.375 15.0028ZM11.7117 14.9466C11.7117 15.2182 11.7712 15.4757 11.8902 15.7191C12.02 15.9532 12.2093 16.1451 12.4582 16.2949C12.707 16.4354 13.0153 16.5056 13.3831 16.5056C13.7401 16.5056 14.0376 16.4401 14.2756 16.309C14.5244 16.1685 14.7137 15.9813 14.8436 15.7472C14.9734 15.5131 15.0383 15.2463 15.0383 14.9466C15.0383 14.6657 14.9734 14.4082 14.8436 14.1742C14.7137 13.9401 14.5244 13.7528 14.2756 13.6124C14.0376 13.4625 13.7401 13.3876 13.3831 13.3876C13.0153 13.3876 12.707 13.4672 12.4582 13.6264C12.2093 13.7762 12.02 13.9682 11.8902 14.2022C11.7712 14.4363 11.7117 14.6845 11.7117 14.9466Z" fill="#07C160"/>
</svg>
