<svg width="77" height="76" viewBox="0 0 77 76" fill="none" xmlns="http://www.w3.org/2000/svg">
<path d="M73.5169 23.2064C71.5986 18.6789 68.8594 14.6148 65.3723 11.1277C61.8852 7.64064 57.8211 4.90139 53.2936 2.9831C48.6035 1.00791 43.629 0 38.5 0C33.371 0 28.3965 1.00791 23.7064 2.99123C19.1789 4.90952 15.1148 7.64877 11.6277 11.1358C8.14064 14.6229 5.40139 18.6871 3.4831 23.2145C1.50791 27.8965 0.5 32.871 0.5 38C0.5 43.129 1.50791 48.1035 3.49123 52.7936C5.40952 57.3211 8.14877 61.3852 11.6358 64.8723C15.1229 68.3594 19.1871 71.0986 23.7145 73.0169C28.4046 75.0002 33.3791 76.0081 38.5081 76.0081C43.6371 76.0081 48.6117 75.0002 53.3017 73.0169C57.8292 71.0986 61.8934 68.3594 65.3804 64.8723C68.8675 61.3852 71.6067 57.3211 73.525 52.7936C75.5083 48.1035 76.5163 43.129 76.5163 38C76.5163 32.871 75.5083 27.8965 73.525 23.2064H73.5169ZM59.6662 59.1662C54.0089 64.8235 46.4983 67.9367 38.5 67.9367C30.5017 67.9367 22.983 64.8235 17.3338 59.1662C11.6765 53.5089 8.56332 45.9983 8.56332 38C8.56332 30.0017 11.6765 22.483 17.3338 16.8338C22.9911 11.1765 30.5017 8.06332 38.5 8.06332C46.4983 8.06332 54.0089 11.1765 59.6662 16.8338C65.3235 22.4911 68.4367 30.0017 68.4367 38C68.4367 45.9983 65.3235 53.5089 59.6662 59.1662Z" fill="url(#paint0_linear_3_636)"/>
<path d="M43.8647 37.7724C43.9216 41.2107 41.1579 43.2428 38.4512 43.2428C35.7445 43.2428 32.9808 41.2107 32.9808 37.7724V23.499C32.9808 19.89 35.5169 18.0287 38.4512 18.0287C41.3855 18.0287 43.8647 19.89 43.8647 23.499V37.7724ZM38.5569 57.9795C35.5656 57.9795 33.0865 55.3865 33.0865 52.4522C33.0865 49.5179 35.5656 46.9249 38.5569 46.9249C41.5481 46.9249 44.0273 49.5179 44.0273 52.4522C44.0273 55.3865 41.5481 57.9795 38.5569 57.9795Z" fill="url(#paint1_linear_3_636)"/>
<defs>
<linearGradient id="paint0_linear_3_636" x1="75.6059" y1="2.43038" x2="18.1304" y2="57.5324" gradientUnits="userSpaceOnUse">
<stop stop-color="#FD8047"/>
<stop offset="1" stop-color="#DF324E"/>
</linearGradient>
<linearGradient id="paint1_linear_3_636" x1="60.2027" y1="5.54352" x2="25.2264" y2="57.5974" gradientUnits="userSpaceOnUse">
<stop stop-color="#FD8047"/>
<stop offset="1" stop-color="#DF324E"/>
</linearGradient>
</defs>
</svg>
