<svg width="14" height="14" viewBox="0 0 14 14" fill="none" xmlns="http://www.w3.org/2000/svg">
<circle cx="7" cy="7" r="7" fill="#737373"/>
<path d="M7.69328 6.99958L9.80765 4.88983C9.90024 4.79723 9.95225 4.67163 9.95225 4.54067C9.95225 4.40971 9.90024 4.28411 9.80765 4.1915C9.71505 4.0989 9.58947 4.04688 9.45853 4.04688C9.32759 4.04688 9.20201 4.0989 9.10942 4.1915L6.99997 6.30617L4.89052 4.1915C4.79793 4.0989 4.67235 4.04687 4.54141 4.04688C4.41046 4.04688 4.28488 4.0989 4.19229 4.1915C4.0997 4.28411 4.04768 4.40971 4.04768 4.54067C4.04768 4.67163 4.0997 4.79723 4.19229 4.88983L6.30666 6.99958L4.19229 9.10933C4.1462 9.15504 4.10962 9.20943 4.08466 9.26936C4.0597 9.32929 4.04684 9.39357 4.04684 9.45849C4.04684 9.52341 4.0597 9.58769 4.08466 9.64762C4.10962 9.70755 4.1462 9.76194 4.19229 9.80766C4.238 9.85375 4.29239 9.89034 4.35231 9.9153C4.41223 9.94027 4.4765 9.95312 4.54141 9.95312C4.60632 9.95312 4.67059 9.94027 4.73051 9.9153C4.79043 9.89034 4.84481 9.85375 4.89052 9.80766L6.99997 7.69299L9.10942 9.80766C9.15513 9.85375 9.20951 9.89034 9.26943 9.9153C9.32935 9.94027 9.39362 9.95312 9.45853 9.95312C9.52344 9.95312 9.58771 9.94027 9.64763 9.9153C9.70755 9.89034 9.76194 9.85375 9.80765 9.80766C9.85373 9.76194 9.89032 9.70755 9.91528 9.64762C9.94024 9.58769 9.95309 9.52341 9.95309 9.45849C9.95309 9.39357 9.94024 9.32929 9.91528 9.26936C9.89032 9.20943 9.85373 9.15504 9.80765 9.10933L7.69328 6.99958Z" fill="white"/>
</svg>
