<svg width="32" height="32" viewBox="0 0 32 32" fill="none" xmlns="http://www.w3.org/2000/svg">
<path d="M29.722 15.8651C28.4405 10.1452 26.5119 7.09227 23.651 6.25836C23.0496 6.0842 22.4258 5.9972 21.7991 6.00007C20.9707 6.00007 20.2493 6.1993 19.4862 6.41046C18.5666 6.66517 17.5219 6.95448 15.9988 6.95448C14.4756 6.95448 13.4303 6.66577 12.5089 6.41106C11.7452 6.1993 11.0244 6.00007 10.1984 6.00007C9.55037 5.99785 8.90515 6.08458 8.28129 6.25776C5.4355 7.08809 3.5081 10.1398 2.20786 15.8615C0.809736 22.0186 1.49792 25.906 4.13768 26.8079C4.49952 26.9338 4.88024 26.9988 5.26391 27C7.07228 27 8.52237 25.5129 9.51326 24.2955C10.6328 22.9175 11.9434 22.2184 15.9988 22.2184C19.6209 22.2184 21.12 22.7034 22.4148 24.2955C23.2286 25.2964 23.9978 25.9967 24.7651 26.4375C25.7856 27.0233 26.8055 27.1533 27.7958 26.8175C29.3558 26.292 30.2501 24.9027 30.4543 22.6873C30.6096 20.9884 30.3703 18.7569 29.722 15.8651ZM13.0986 15.5441H11.1651V17.4529C11.1651 17.7061 11.0633 17.9488 10.882 18.1278C10.7007 18.3068 10.4548 18.4074 10.1984 18.4074C9.94203 18.4074 9.69614 18.3068 9.51485 18.1278C9.33355 17.9488 9.2317 17.7061 9.2317 17.4529V15.5441H7.29826C7.04186 15.5441 6.79598 15.4436 6.61468 15.2646C6.43338 15.0856 6.33153 14.8429 6.33153 14.5897C6.33153 14.3366 6.43338 14.0938 6.61468 13.9149C6.79598 13.7359 7.04186 13.6353 7.29826 13.6353H9.2317V11.7265C9.2317 11.4734 9.33355 11.2306 9.51485 11.0516C9.69614 10.8727 9.94203 10.7721 10.1984 10.7721C10.4548 10.7721 10.7007 10.8727 10.882 11.0516C11.0633 11.2306 11.1651 11.4734 11.1651 11.7265V13.6353H13.0986C13.355 13.6353 13.6009 13.7359 13.7822 13.9149C13.9635 14.0938 14.0653 14.3366 14.0653 14.5897C14.0653 14.8429 13.9635 15.0856 13.7822 15.2646C13.6009 15.4436 13.355 15.5441 13.0986 15.5441ZM18.1739 15.7827C17.9349 15.7827 17.7012 15.7128 17.5025 15.5817C17.3038 15.4506 17.1489 15.2643 17.0575 15.0463C16.966 14.8283 16.9421 14.5884 16.9887 14.357C17.0353 14.1256 17.1504 13.913 17.3194 13.7461C17.4884 13.5793 17.7037 13.4657 17.9381 13.4196C18.1725 13.3736 18.4155 13.3972 18.6363 13.4875C18.8571 13.5778 19.0459 13.7307 19.1786 13.9269C19.3114 14.1231 19.3823 14.3538 19.3823 14.5897C19.3823 14.9061 19.255 15.2096 19.0284 15.4333C18.8017 15.657 18.4944 15.7827 18.1739 15.7827ZM20.8324 18.4074C20.5932 18.4074 20.3595 18.3373 20.1607 18.2061C19.9619 18.0749 19.807 17.8884 19.7157 17.6702C19.6243 17.452 19.6005 17.212 19.6474 16.9805C19.6943 16.749 19.8097 16.5364 19.979 16.3697C20.1483 16.203 20.3639 16.0896 20.5985 16.0439C20.8331 15.9982 21.0761 16.0223 21.2969 16.113C21.5177 16.2038 21.7062 16.3571 21.8386 16.5537C21.971 16.7503 22.0414 16.9812 22.0408 17.2173C22.04 17.5332 21.9123 17.8359 21.6858 18.059C21.4592 18.2821 21.1523 18.4074 20.8324 18.4074ZM20.8324 13.1581C20.5934 13.1581 20.3597 13.0882 20.161 12.9571C19.9623 12.826 19.8074 12.6396 19.7159 12.4217C19.6245 12.2037 19.6006 11.9638 19.6472 11.7324C19.6938 11.5009 19.8089 11.2884 19.9779 11.1215C20.1469 10.9547 20.3622 10.8411 20.5966 10.795C20.831 10.749 21.074 10.7726 21.2948 10.8629C21.5156 10.9532 21.7043 11.1061 21.8371 11.3023C21.9699 11.4985 22.0408 11.7292 22.0408 11.9651C22.0408 12.2815 21.9135 12.585 21.6868 12.8087C21.4602 13.0324 21.1529 13.1581 20.8324 13.1581ZM23.4909 15.7827C23.2519 15.7827 23.0182 15.7128 22.8195 15.5817C22.6208 15.4506 22.4659 15.2643 22.3744 15.0463C22.283 14.8283 22.259 14.5884 22.3057 14.357C22.3523 14.1256 22.4674 13.913 22.6364 13.7461C22.8054 13.5793 23.0207 13.4657 23.2551 13.4196C23.4895 13.3736 23.7325 13.3972 23.9533 13.4875C24.1741 13.5778 24.3628 13.7307 24.4956 13.9269C24.6284 14.1231 24.6993 14.3538 24.6993 14.5897C24.6993 14.9061 24.5719 15.2096 24.3453 15.4333C24.1187 15.657 23.8113 15.7827 23.4909 15.7827Z" fill="#6E6E6E"/>
</svg>
