<svg width="16" height="15" viewBox="0 0 16 15" fill="none" xmlns="http://www.w3.org/2000/svg">
<path d="M12.17 14.75C12.0501 14.7505 11.9318 14.7222 11.825 14.6675L8 12.665L4.175 14.6675C4.0508 14.7328 3.91076 14.762 3.77081 14.7517C3.63086 14.7413 3.49661 14.692 3.38333 14.6091C3.27004 14.5263 3.18226 14.4134 3.12997 14.2832C3.07767 14.1529 3.06296 14.0107 3.08751 13.8725L3.8375 9.65L0.747505 6.65C0.651098 6.55379 0.582709 6.43315 0.549676 6.30102C0.516643 6.16889 0.520214 6.03026 0.560005 5.9C0.603475 5.76671 0.683437 5.64827 0.790818 5.55812C0.898198 5.46797 1.0287 5.40973 1.16751 5.39L5.4425 4.7675L7.32501 0.92C7.38642 0.793197 7.48231 0.686257 7.60169 0.611431C7.72107 0.536604 7.85911 0.496918 8 0.496918C8.1409 0.496918 8.27894 0.536604 8.39832 0.611431C8.5177 0.686257 8.61359 0.793197 8.675 0.92L10.58 4.76L14.855 5.3825C14.9938 5.40223 15.1243 5.46047 15.2317 5.55062C15.3391 5.64077 15.419 5.75921 15.4625 5.8925C15.5023 6.02276 15.5059 6.16139 15.4728 6.29352C15.4398 6.42565 15.3714 6.54629 15.275 6.6425L12.185 9.6425L12.935 13.865C12.9618 14.0056 12.9478 14.1509 12.8946 14.2838C12.8414 14.4167 12.7514 14.5316 12.635 14.615C12.4992 14.7102 12.3357 14.7576 12.17 14.75ZM8 11.075C8.12023 11.072 8.23916 11.1004 8.34501 11.1575L11.1725 12.6575L10.6325 9.5C10.6116 9.37944 10.6204 9.25558 10.6583 9.13923C10.6962 9.02288 10.762 8.91758 10.85 8.8325L13.1 6.635L9.95001 6.17C9.83449 6.14674 9.72609 6.0966 9.63357 6.02363C9.54105 5.95066 9.46703 5.85692 9.41751 5.75L8 2.9375L6.5825 5.75C6.52824 5.85778 6.44877 5.95087 6.35085 6.02138C6.25292 6.09189 6.13943 6.13772 6.02 6.155L2.87001 6.62L5.12 8.8175C5.20796 8.90258 5.27377 9.00788 5.31168 9.12423C5.34959 9.24058 5.35846 9.36444 5.3375 9.485L4.7975 12.605L7.625 11.105C7.74481 11.0605 7.87464 11.0501 8 11.075Z" fill="#D9D9D9"/>
</svg>
