<svg width="16" height="15" viewBox="0 0 16 15" fill="none" xmlns="http://www.w3.org/2000/svg">
<path d="M12.1699 14.75C12.05 14.7505 11.9317 14.7222 11.8249 14.6675L7.99994 12.665L4.17494 14.6675C4.05074 14.7328 3.9107 14.762 3.77075 14.7517C3.6308 14.7413 3.49655 14.692 3.38327 14.6091C3.26998 14.5263 3.1822 14.4134 3.1299 14.2832C3.07761 14.1529 3.0629 14.0107 3.08744 13.8725L3.83744 9.65L0.747444 6.65C0.651037 6.55379 0.582648 6.43315 0.549615 6.30102C0.516582 6.16889 0.520153 6.03026 0.559944 5.9C0.603414 5.76671 0.683376 5.64826 0.790757 5.55812C0.898137 5.46797 1.02864 5.40973 1.16744 5.39L5.44244 4.7675L7.32494 0.92C7.38636 0.793197 7.48225 0.686257 7.60163 0.611431C7.72101 0.536604 7.85905 0.496918 7.99994 0.496918C8.14084 0.496918 8.27888 0.536604 8.39826 0.611431C8.51764 0.686257 8.61353 0.793197 8.67494 0.92L10.5799 4.76L14.8549 5.3825C14.9938 5.40223 15.1243 5.46047 15.2316 5.55062C15.339 5.64077 15.419 5.75921 15.4624 5.8925C15.5022 6.02276 15.5058 6.16139 15.4728 6.29352C15.4397 6.42565 15.3714 6.54629 15.2749 6.6425L12.1849 9.6425L12.9349 13.865C12.9617 14.0056 12.9477 14.1509 12.8945 14.2838C12.8414 14.4167 12.7513 14.5316 12.6349 14.615C12.4991 14.7102 12.3356 14.7576 12.1699 14.75Z" fill="#F77E04"/>
</svg>
