<svg xmlns="http://www.w3.org/2000/svg" width="12" height="12" viewBox="0 0 12 12">
  <g id="组_3187" data-name="组 3187" transform="translate(0.089)">
    <g id="组_3132" data-name="组 3132" transform="translate(0.717 0.559)">
      <path id="like-outlined" d="M122.136,105.581a1.685,1.685,0,0,0,.342-1.018,1.705,1.705,0,0,0-.858-1.455.886.886,0,0,0-.449-.122H118.03l.079-1.61A1.408,1.408,0,0,0,116.7,99.9a1.523,1.523,0,0,0-1.464,1.115l-1.125,4.073h-1.693a.419.419,0,0,0-.419.419v4.767a.419.419,0,0,0,.419.419h7.875a.87.87,0,0,0,.347-.071,1.687,1.687,0,0,0,.955-2.035,1.689,1.689,0,0,0,.271-1.5,1.685,1.685,0,0,0,.342-1.018A1.789,1.789,0,0,0,122.136,105.581Z" transform="translate(-112 -99.899)" fill="none"/>
      <path id="like-outlined-2" data-name="like-outlined" d="M122.136,105.581a1.685,1.685,0,0,0,.342-1.018,1.705,1.705,0,0,0-.858-1.455.886.886,0,0,0-.449-.122H118.03l.079-1.61A1.408,1.408,0,0,0,116.7,99.9a1.523,1.523,0,0,0-1.464,1.115l-1.125,4.073h-1.693a.419.419,0,0,0-.419.419v4.767a.419.419,0,0,0,.419.419h7.875a.87.87,0,0,0,.347-.071,1.687,1.687,0,0,0,.955-2.035,1.689,1.689,0,0,0,.271-1.5,1.685,1.685,0,0,0,.342-1.018A1.789,1.789,0,0,0,122.136,105.581Zm-9.193,4.169v-3.72H114v3.72Zm8.335-4.623-.287.249.182.333a.736.736,0,0,1,.09.358.748.748,0,0,1-.257.563l-.287.249.182.333a.736.736,0,0,1,.09.358.748.748,0,0,1-.257.563l-.287.249.182.333a.736.736,0,0,1,.09.358.745.745,0,0,1-.44.678h-5.439v-3.76l1.3-4.721a.578.578,0,0,1,.553-.423.46.46,0,0,1,.276.088.465.465,0,0,1,.191.4l-.126,2.6h4.118a.8.8,0,0,1,.363.778Z" transform="translate(-112 -99.899)" fill="#1f1f21"/>
    </g>
    <rect id="矩形_1473" data-name="矩形 1473" width="12" height="12" transform="translate(-0.089)" fill="none"/>
  </g>
</svg>
