<svg width="18" height="18" viewBox="0 0 18 18" fill="none" xmlns="http://www.w3.org/2000/svg">
<path d="M14.3036 8.01562H13.5804V5.80078C13.5804 3.22295 11.5252 1.125 9 1.125C6.47478 1.125 4.41964 3.22295 4.41964 5.80078V8.01562H3.69643C2.89788 8.01562 2.25 8.677 2.25 9.49219V15.3984C2.25 16.2136 2.89788 16.875 3.69643 16.875H14.3036C15.1021 16.875 15.75 16.2136 15.75 15.3984V9.49219C15.75 8.677 15.1021 8.01562 14.3036 8.01562ZM11.1696 8.01562H6.83036V5.80078C6.83036 4.57954 7.80368 3.58594 9 3.58594C10.1963 3.58594 11.1696 4.57954 11.1696 5.80078V8.01562Z" fill="#AAAAAA"/>
</svg>
