<svg width="18" height="18" viewBox="0 0 18 18" fill="none" xmlns="http://www.w3.org/2000/svg">
<g clip-path="url(#clip0_1068_10968)">
<path d="M13.2 0H4.8C3.81 0 3 0.759375 3 1.6875V16.3125C3 17.2406 3.81 18 4.8 18H13.2C14.19 18 15 17.2406 15 16.3125V1.6875C15 0.759375 14.19 0 13.2 0ZM9 16.875C8.3364 16.875 7.8 16.3721 7.8 15.75C7.8 15.1279 8.3364 14.625 9 14.625C9.6636 14.625 10.2 15.1279 10.2 15.75C10.2 16.3721 9.6636 16.875 9 16.875ZM13.8 13.5H4.2V2.25H13.8V13.5Z" fill="#AAAAAA"/>
</g>
<defs>
<clipPath id="clip0_1068_10968">
<rect width="18" height="18" fill="white"/>
</clipPath>
</defs>
</svg>
