<svg width="27" height="27" viewBox="0 0 27 27" fill="none" xmlns="http://www.w3.org/2000/svg">
<path d="M7.625 9.81579L6.87836 9.88672L7.625 9.81579ZM9.625 14.5526L9.08125 15.0692L9.625 14.5526ZM9.125 17.1842L8.77569 16.5205L9.125 17.1842ZM3.125 20.3421L3.47431 21.0058L3.125 20.3421ZM20.625 20.3421L20.2757 21.0058L20.625 20.3421ZM14.625 17.1842L14.9743 16.5205L14.625 17.1842ZM14.125 14.5526L14.6687 15.0692L14.125 14.5526ZM16.125 9.81579L16.8716 9.88672L16.125 9.81579ZM8.37164 9.74486C8.13915 7.29761 8.83885 5.96742 9.63311 5.23587C10.4619 4.4725 11.5135 4.25 12.125 4.25V2.75C11.2365 2.75 9.78809 3.05382 8.61689 4.13255C7.41115 5.2431 6.61085 7.07081 6.87836 9.88672L8.37164 9.74486ZM10.1687 14.0361C9.37504 13.2006 8.55782 11.7046 8.37164 9.74486L6.87836 9.88672C7.09569 12.1744 8.0521 13.9859 9.08125 15.0692L10.1687 14.0361ZM9.47431 17.8479C10.8559 17.1207 11.3555 15.2853 10.1687 14.0361L9.08125 15.0692C9.49451 15.5042 9.39407 16.1951 8.77569 16.5205L9.47431 17.8479ZM3.47431 21.0058L9.47431 17.8479L8.77569 16.5205L2.77569 19.6784L3.47431 21.0058ZM2.375 22.4474C2.375 22.0521 2.46449 21.8257 2.59712 21.6512C2.7478 21.4529 3.00722 21.2516 3.47431 21.0058L2.77569 19.6784C2.24278 19.9589 1.7522 20.2839 1.40288 20.7436C1.03551 21.2269 0.875 21.79 0.875 22.4474H2.375ZM4.125 22.75C3.32602 22.75 2.83479 22.7423 2.52851 22.6502C2.39951 22.6114 2.38333 22.5785 2.39272 22.5904C2.40687 22.6083 2.375 22.5897 2.375 22.4474H0.875C0.875 22.8313 0.968128 23.2075 1.21665 23.5214C1.46042 23.8294 1.78799 23.9939 2.09649 24.0866C2.66521 24.2577 3.42398 24.25 4.125 24.25V22.75ZM12.125 22.75H4.125V24.25H12.125V22.75ZM12.125 24.25H19.625V22.75H12.125V24.25ZM19.625 24.25C20.326 24.25 21.0848 24.2577 21.6535 24.0866C21.962 23.9939 22.2896 23.8294 22.5333 23.5214C22.7819 23.2075 22.875 22.8313 22.875 22.4474H21.375C21.375 22.5897 21.3431 22.6083 21.3573 22.5904C21.3667 22.5785 21.3505 22.6114 21.2215 22.6502C20.9152 22.7423 20.424 22.75 19.625 22.75V24.25ZM22.875 22.4474C22.875 21.79 22.7145 21.2269 22.3471 20.7436C21.9978 20.2839 21.5072 19.9589 20.9743 19.6784L20.2757 21.0058C20.7428 21.2516 21.0022 21.4529 21.1529 21.6512C21.2855 21.8257 21.375 22.0521 21.375 22.4474H22.875ZM20.9743 19.6784L14.9743 16.5205L14.2757 17.8479L20.2757 21.0058L20.9743 19.6784ZM14.9743 16.5205C14.3559 16.1951 14.2555 15.5042 14.6687 15.0692L13.5813 14.0361C12.3945 15.2853 12.8941 17.1207 14.2757 17.8479L14.9743 16.5205ZM14.6687 15.0692C15.6979 13.9859 16.6543 12.1744 16.8716 9.88672L15.3784 9.74486C15.1922 11.7046 14.375 13.2006 13.5813 14.0361L14.6687 15.0692ZM16.8716 9.88672C17.1355 7.10917 16.4856 5.29064 15.4187 4.16765C14.3682 3.06177 13.0254 2.75 12.125 2.75V4.25C12.7246 4.25 13.6318 4.46454 14.3313 5.20077C15.0144 5.91989 15.6145 7.25925 15.3784 9.74486L16.8716 9.88672Z" fill="black"/>
<line x1="18.625" y1="9.75" x2="26.625" y2="9.75" stroke="black" stroke-width="1.5"/>
<line x1="20.625" y1="13.25" x2="26.625" y2="13.25" stroke="black" stroke-width="1.5"/>
<line x1="22.625" y1="16.75" x2="26.625" y2="16.75" stroke="black" stroke-width="1.5"/>
</svg>
