<svg width="27" height="27" viewBox="0 0 27 27" fill="none" xmlns="http://www.w3.org/2000/svg">
<path d="M9.125 9.81579L8.37836 9.88672L9.125 9.81579ZM11.125 14.5526L10.5813 15.0692L11.125 14.5526ZM10.625 17.1842L10.2757 16.5205L10.625 17.1842ZM4.625 20.3421L4.97431 21.0058L4.625 20.3421ZM22.125 20.3421L21.7757 21.0058L22.125 20.3421ZM16.125 17.1842L16.4743 16.5205L16.125 17.1842ZM15.625 14.5526L16.1687 15.0692L15.625 14.5526ZM17.625 9.81579L18.3716 9.88672L17.625 9.81579ZM9.87164 9.74486C9.63915 7.29761 10.3389 5.96742 11.1331 5.23587C11.9619 4.4725 13.0135 4.25 13.625 4.25V2.75C12.7365 2.75 11.2881 3.05382 10.1169 4.13255C8.91115 5.2431 8.11085 7.07081 8.37836 9.88672L9.87164 9.74486ZM11.6687 14.0361C10.875 13.2006 10.0578 11.7046 9.87164 9.74486L8.37836 9.88672C8.59569 12.1744 9.5521 13.9859 10.5813 15.0692L11.6687 14.0361ZM10.9743 17.8479C12.3559 17.1207 12.8555 15.2853 11.6687 14.0361L10.5813 15.0692C10.9945 15.5042 10.8941 16.1951 10.2757 16.5205L10.9743 17.8479ZM4.97431 21.0058L10.9743 17.8479L10.2757 16.5205L4.27569 19.6784L4.97431 21.0058ZM3.875 22.4474C3.875 22.0521 3.96449 21.8257 4.09712 21.6512C4.2478 21.4529 4.50722 21.2516 4.97431 21.0058L4.27569 19.6784C3.74278 19.9589 3.2522 20.2839 2.90288 20.7436C2.53551 21.2269 2.375 21.79 2.375 22.4474H3.875ZM5.625 22.75C4.82602 22.75 4.33479 22.7423 4.02851 22.6502C3.89951 22.6114 3.88333 22.5785 3.89272 22.5904C3.90687 22.6083 3.875 22.5897 3.875 22.4474H2.375C2.375 22.8313 2.46813 23.2075 2.71665 23.5214C2.96042 23.8294 3.28799 23.9939 3.59649 24.0866C4.16521 24.2577 4.92398 24.25 5.625 24.25V22.75ZM13.625 22.75H5.625V24.25H13.625V22.75ZM13.625 24.25H21.125V22.75H13.625V24.25ZM21.125 24.25C21.826 24.25 22.5848 24.2577 23.1535 24.0866C23.462 23.9939 23.7896 23.8294 24.0333 23.5214C24.2819 23.2075 24.375 22.8313 24.375 22.4474H22.875C22.875 22.5897 22.8431 22.6083 22.8573 22.5904C22.8667 22.5785 22.8505 22.6114 22.7215 22.6502C22.4152 22.7423 21.924 22.75 21.125 22.75V24.25ZM24.375 22.4474C24.375 21.79 24.2145 21.2269 23.8471 20.7436C23.4978 20.2839 23.0072 19.9589 22.4743 19.6784L21.7757 21.0058C22.2428 21.2516 22.5022 21.4529 22.6529 21.6512C22.7855 21.8257 22.875 22.0521 22.875 22.4474H24.375ZM22.4743 19.6784L16.4743 16.5205L15.7757 17.8479L21.7757 21.0058L22.4743 19.6784ZM16.4743 16.5205C15.8559 16.1951 15.7555 15.5042 16.1687 15.0692L15.0813 14.0361C13.8945 15.2853 14.3941 17.1207 15.7757 17.8479L16.4743 16.5205ZM16.1687 15.0692C17.1979 13.9859 18.1543 12.1744 18.3716 9.88672L16.8784 9.74486C16.6922 11.7046 15.875 13.2006 15.0813 14.0361L16.1687 15.0692ZM18.3716 9.88672C18.6355 7.10917 17.9856 5.29064 16.9187 4.16765C15.8682 3.06177 14.5254 2.75 13.625 2.75V4.25C14.2246 4.25 15.1318 4.46454 15.8313 5.20077C16.5144 5.91989 17.1145 7.25925 16.8784 9.74486L18.3716 9.88672Z" fill="black"/>
</svg>
