<svg width="32" height="32" viewBox="0 0 32 32" fill="none" xmlns="http://www.w3.org/2000/svg">
<g clip-path="url(#clip0_342_1106)">
<path d="M2.02755 7.60836C2.16755 9.05836 2.64755 10.4084 3.22755 11.6784C3.27755 11.7684 3.38755 11.8184 3.47755 11.7884C3.58755 11.7484 3.64755 11.6384 3.60755 11.5284C3.17755 10.2284 2.86755 8.88836 2.88755 7.56836C2.89755 6.27836 3.27755 4.96836 4.21755 4.29836C5.11755 3.58836 6.38755 3.44836 7.62755 3.64836C8.87755 3.84836 10.1075 4.28836 11.2975 4.87836C13.6675 6.01836 15.8375 7.60836 17.7775 9.42836C19.7175 11.2384 21.4775 13.2684 22.8975 15.4684C23.6175 16.5584 24.2375 17.7084 24.7475 18.8684C25.2475 20.0284 25.6376 21.2384 25.7875 22.3684C25.9576 23.4784 25.9075 24.5684 25.5975 25.1384C25.5248 25.3858 25.3778 25.522 25.2261 25.6627C25.1694 25.7153 25.112 25.7685 25.0575 25.8284C25.0121 25.8511 24.9661 25.8754 24.919 25.9003C24.6754 26.0291 24.3997 26.1748 23.9975 26.2084C23.0875 26.3984 21.8975 26.2584 20.7175 25.9684C19.5175 25.6984 18.3075 25.2484 17.1075 24.7184C16.6871 24.5025 15.3084 23.9227 14.9453 23.7383C14.348 23.4919 14.0195 23.3164 14.0195 23.3164C14.0195 23.3164 13.7613 24.4239 13.5 25.5C13.867 25.7967 15.2899 26.9226 15.6775 27.1984C16.8475 28.0884 18.1775 28.7884 19.5975 29.3884C21.0375 29.9484 22.6175 30.3784 24.4675 30.2584C25.3775 30.2184 26.3875 29.8884 27.3175 29.3684C27.4034 29.3025 27.4913 29.2378 27.5794 29.1728C27.9329 28.9126 28.2914 28.6485 28.5475 28.2884C28.7275 28.0784 28.8975 27.8584 29.0575 27.6384C29.1875 27.3984 29.3075 27.1684 29.4275 26.9284C30.3075 24.9584 30.0675 23.1284 29.7175 21.5684C29.3275 19.9784 28.6875 18.5884 27.9675 17.2784C27.2475 15.9684 26.4375 14.7384 25.5375 13.5884C23.7675 11.2684 21.7275 9.22836 19.4875 7.42836C17.2575 5.62836 14.7975 4.07836 12.0875 3.00836C10.7375 2.48836 9.29755 2.10836 7.78755 2.01836C6.30755 1.91836 4.59755 2.20836 3.39755 3.34836C2.77755 3.88836 2.38755 4.63836 2.19755 5.37836C1.99755 6.12836 1.96755 6.87836 2.02755 7.60836Z" fill="#6E6E6E"/>
<path d="M5.38044 16.5682C4.99161 15.755 5.79262 14.8829 6.6359 15.2013L9.29187 16.2043C9.65097 16.3399 10.056 16.258 10.3342 15.9935L12.3917 14.0373C13.045 13.4162 14.1219 13.9085 14.0796 14.8089L13.9465 17.6448C13.9285 18.0282 14.1316 18.3881 14.4691 18.571L16.9653 19.9233C17.7579 20.3527 17.6225 21.529 16.7531 21.7671L14.0148 22.5168C13.6446 22.6181 13.3651 22.9225 13.2955 23.3L12.7807 26.092C12.6173 26.9784 11.4567 27.2131 10.9616 26.4598L9.40242 24.0873C9.19161 23.7665 8.81579 23.5947 8.43527 23.6452L5.62087 24.0184C4.7273 24.1369 4.14541 23.1056 4.70885 22.402L6.48347 20.1859C6.72341 19.8863 6.77067 19.4758 6.60509 19.1295L5.38044 16.5682Z" fill="#6E6E6E"/>
</g>
<defs>
<clipPath id="clip0_342_1106">
<rect width="32" height="32" fill="white"/>
</clipPath>
</defs>
</svg>
