<svg width="14" height="14" viewBox="0 0 14 14" fill="none" xmlns="http://www.w3.org/2000/svg">
<path fill-rule="evenodd" clip-rule="evenodd" d="M7 1.66668C4.05448 1.66668 1.66667 4.05449 1.66667 7.00001C1.66667 9.94553 4.05448 12.3333 7 12.3333C9.94552 12.3333 12.3333 9.94553 12.3333 7.00001C12.3333 4.05449 9.94552 1.66668 7 1.66668ZM0.333336 7.00001C0.333336 3.31811 3.3181 0.333344 7 0.333344C10.6819 0.333344 13.6667 3.31811 13.6667 7.00001C13.6667 10.6819 10.6819 13.6667 7 13.6667C3.3181 13.6667 0.333336 10.6819 0.333336 7.00001Z" fill="white"/>
<path d="M7.66667 10.3333C7.66667 10.5101 7.59643 10.6797 7.47141 10.8047C7.34638 10.9298 7.17681 11 7 11C6.82319 11 6.65362 10.9298 6.5286 10.8047C6.40357 10.6797 6.33334 10.5101 6.33334 10.3333C6.33334 10.1565 6.40357 9.98694 6.5286 9.86192C6.65362 9.73689 6.82319 9.66666 7 9.66666C7.17681 9.66666 7.34638 9.73689 7.47141 9.86192C7.59643 9.98694 7.66667 10.1565 7.66667 10.3333Z" fill="white"/>
<path fill-rule="evenodd" clip-rule="evenodd" d="M7 3.08334C7.96773 3.08334 9.07366 3.63566 9.32038 4.86927C9.43246 5.42967 9.35112 5.91601 9.1409 6.32867C8.93945 6.72409 8.63963 7.01229 8.38049 7.22431C8.2499 7.33116 8.11874 7.42714 8.00865 7.50761C7.89224 7.59271 7.80492 7.65659 7.73263 7.71648C7.70394 7.74025 7.68246 7.75963 7.66666 7.77479V8.33334C7.66666 8.70153 7.36819 9.00001 7 9.00001C6.63181 9.00001 6.33333 8.70153 6.33333 8.33334V7.66668C6.33333 7.16086 6.70569 6.83583 6.88194 6.68979C6.98651 6.60314 7.10338 6.51775 7.20593 6.44281C7.21126 6.43892 7.21656 6.43505 7.22181 6.43121C7.33438 6.34892 7.43759 6.27303 7.53617 6.19237C7.73536 6.0294 7.87304 5.88009 7.95284 5.72343C8.02387 5.58401 8.06753 5.40369 8.01294 5.13075C7.92633 4.6977 7.53227 4.41668 7 4.41668C6.46773 4.41668 6.07366 4.6977 5.98705 5.13075C5.91484 5.49179 5.56363 5.72594 5.20259 5.65373C4.84155 5.58152 4.6074 5.23031 4.67961 4.86927C4.92633 3.63566 6.03227 3.08334 7 3.08334ZM7.62759 7.81674C7.62755 7.81674 7.62804 7.816 7.62921 7.8145C7.62822 7.81598 7.62763 7.81673 7.62759 7.81674Z" fill="white"/>
</svg>
