<svg width="18" height="17" viewBox="0 0 18 17" fill="none" xmlns="http://www.w3.org/2000/svg">
<path d="M8.9999 0.400024C13.4734 0.400024 17.0999 4.02651 17.0999 8.50002C17.0999 12.9735 13.4734 16.6 8.9999 16.6C4.52639 16.6 0.899902 12.9735 0.899902 8.50002C0.899902 4.02651 4.52639 0.400024 8.9999 0.400024ZM9.00834 11.47C8.63088 11.47 8.3249 11.776 8.3249 12.1535C8.3249 12.5309 8.63088 12.8369 9.00834 12.8369C9.3858 12.8369 9.69178 12.5309 9.69178 12.1535C9.69178 11.776 9.3858 11.47 9.00834 11.47ZM9.92359 4.64604C9.193 4.35723 8.36206 4.39478 7.65427 4.78796C6.68111 5.3286 6.21382 6.16201 6.31953 7.2045C6.34962 7.50121 6.61454 7.71736 6.91125 7.68727C7.20499 7.65749 7.41978 7.39753 7.39485 7.10445L7.39229 7.07761C7.338 6.48702 7.57844 6.06557 8.17875 5.73207C8.59661 5.49994 9.08956 5.47766 9.52656 5.65041C9.93594 5.81224 10.2266 6.11942 10.3052 6.46109C10.4661 7.16072 10.2393 7.56286 9.50644 8.02872L9.46861 8.05265C9.15012 8.25556 8.91106 8.49187 8.74585 8.76063C8.61532 8.973 8.53581 9.19629 8.49526 9.43436L8.49261 9.45026L8.48802 9.47947L8.48518 9.49854L8.48255 9.51733L8.4801 9.5359L8.47782 9.55432L8.47571 9.57263L8.4747 9.58176L8.47285 9.60002L8.47114 9.61831L8.46957 9.63671L8.46815 9.65522L8.46687 9.67395L8.46572 9.69293L8.46469 9.71222L8.46378 9.7319L8.46299 9.75198L8.4623 9.77255L8.46171 9.79365L8.461 9.82642L8.46063 9.8491L8.46024 9.88452L8.46 9.92174L8.4599 9.98281L8.45997 9.99395C8.46475 10.2881 8.70466 10.525 8.9999 10.525C9.29515 10.525 9.53506 10.2881 9.53983 9.99397L9.5399 9.98502L9.53999 9.94L9.54016 9.91781L9.54056 9.88558L9.54093 9.86479L9.54171 9.83458L9.54235 9.81511L9.54351 9.78679L9.54443 9.7685L9.54547 9.75068L9.54726 9.72474L9.54861 9.70799L9.5501 9.69162L9.55171 9.67566L9.55349 9.66003L9.55641 9.63728L9.55911 9.61889L9.56204 9.60097L9.56457 9.58696L9.56727 9.57323L9.57014 9.55976L9.57318 9.54653C9.57492 9.53924 9.57673 9.53207 9.57865 9.52498L9.58157 9.51442L9.58526 9.50191L9.58914 9.48957L9.59218 9.48043L9.59532 9.47137L9.59971 9.45939L9.60195 9.45345L9.60428 9.44754L9.60907 9.43579L9.61155 9.42994L9.61409 9.42412L9.61932 9.41252L9.62337 9.40387L9.62759 9.39523L9.63337 9.38375L9.63636 9.378L9.6425 9.36652L9.64888 9.35505L9.65722 9.34065L9.66593 9.32619C9.74249 9.20165 9.86382 9.0816 10.0476 8.96436L10.0751 8.94694L10.0913 8.93668L10.1073 8.92641L10.1391 8.90587L10.1709 8.88506C10.6175 8.59009 10.9381 8.28541 11.1541 7.91175C11.4352 7.42534 11.5057 6.86241 11.3577 6.21896C11.1947 5.5105 10.6475 4.93224 9.92359 4.64604Z" fill="#AEAEAE"/>
</svg>
