<svg width="16" height="16" viewBox="0 0 16 16" fill="none" xmlns="http://www.w3.org/2000/svg">
<circle cx="8" cy="8" r="8" fill="white"/>
<path d="M8.68557 11V9.1338C8.68557 8.34637 8.77377 7.66131 8.95017 7.07862C9.12657 6.49592 9.63477 5.63646 10.5709 5.06065L11.3835 5.96982C11.0646 6.24257 10.6778 6.52453 10.4533 7.05998C10.2288 7.57969 10.2491 8.03928 10.2491 8.49598H11.5V11H8.68557ZM4.5 11V9.1338C4.5 8.36212 4.58018 7.68493 4.74055 7.10224C4.91695 6.50379 5.30788 5.59415 6.31904 5L7.13271 5.91856C6.69581 6.39869 6.50282 6.48486 6.27831 7.02031C6.0538 7.54001 6.06357 8.03928 6.06357 8.49598H7.31443V11H4.5Z" fill="#4C4C4C"/>
</svg>
