<svg width="32" height="32" viewBox="0 0 32 32" fill="none" xmlns="http://www.w3.org/2000/svg">
<path d="M27.667 26.7848C27.6668 28.4414 26.3235 29.7846 24.667 29.7848H8C6.34326 29.7848 5.00018 28.4415 5 26.7848L5 11C7.70248 13.2503 11.7755 14.6846 16.333 14.6846C20.8908 14.6846 24.9645 13.2505 27.667 11V26.7848Z" fill="#E70000"/>
<path d="M24.667 2.40007C26.3236 2.40031 27.667 3.74336 27.667 5.40007V9.50005C24.9645 11.7505 20.8908 13.1846 16.333 13.1846C11.7755 13.1846 7.70248 11.7504 5 9.50005V5.40007C5 3.74322 6.34315 2.40007 8 2.40007H24.667Z" fill="#E70000"/>
<path d="M20.1866 14.08C20.1866 16.3333 18.3599 18.16 16.1066 18.16C13.8533 18.16 12.0266 16.3333 12.0266 14.08C12.0266 11.8267 13.8533 10 16.1066 10C18.3599 10 20.1866 11.8267 20.1866 14.08Z" fill="white"/>
<path d="M18.6049 14.0825C18.6049 15.4495 17.4967 16.5577 16.1297 16.5577C14.7627 16.5577 13.6545 15.4495 13.6545 14.0825C13.6545 12.7155 14.7627 11.6073 16.1297 11.6073C17.4967 11.6073 18.6049 12.7155 18.6049 14.0825Z" fill="#E70000"/>
</svg>
