<svg width="32" height="32" viewBox="0 0 32 32" fill="none" xmlns="http://www.w3.org/2000/svg">
<path fill-rule="evenodd" clip-rule="evenodd" d="M16.0303 1.99995C12.5174 1.99995 9.31621 3.16018 7.42278 4.10857C7.25212 4.19403 7.09217 4.27777 6.94349 4.35878C6.64935 4.5191 6.39959 4.66875 6.19995 4.79996L8.35434 7.97145L9.36836 8.37514C13.3322 10.3751 18.6477 10.3751 22.6115 8.37514L23.763 7.77776L25.8 4.79996C25.5015 4.60095 25.0886 4.3595 24.5806 4.10278C24.5497 4.08712 24.5184 4.07142 24.4867 4.05567C22.6014 3.1176 19.478 1.99995 16.0303 1.99995ZM11.0196 5.5903C10.2443 5.44725 9.48246 5.24996 8.76335 5.0236C10.5377 4.23571 13.182 3.39995 16.0303 3.39995C18.0038 3.39995 19.8697 3.80123 21.4131 4.30933C19.6044 4.56464 17.6743 4.99564 15.8357 5.52753C14.389 5.94604 12.698 5.89998 11.0196 5.5903Z" fill="#FF9D00"/>
<path fill-rule="evenodd" clip-rule="evenodd" d="M23.433 9.52888L23.2423 9.62506C18.8818 11.8252 13.0982 11.8252 8.73778 9.62506L8.55648 9.53364C2.00635 16.7212 -4.8653 30.1997 16.0303 29.9977C36.9116 29.7959 29.9323 16.4732 23.433 9.52888ZM17.1979 14.6H14.8021V15.72C14.0236 15.7181 13.275 15.9999 12.7148 16.5055C12.1547 17.011 11.8272 17.7005 11.8016 18.4281C11.7761 19.1556 12.0545 19.8638 12.5779 20.4025C13.1014 20.9413 13.8287 21.2684 14.6057 21.3144L14.8021 21.32H17.1979L17.3057 21.3289C17.4438 21.3523 17.5688 21.4203 17.6587 21.521C17.7487 21.6217 17.798 21.7488 17.798 21.88C17.798 22.0112 17.7487 22.1383 17.6587 22.2389C17.5688 22.3397 17.4438 22.4076 17.3057 22.431L17.1979 22.44H12.4063V24.68H14.8021V25.8H17.1979V24.68C17.9765 24.6818 18.725 24.4 19.2852 23.8944C19.8453 23.389 20.1728 22.6994 20.1984 21.9719C20.2239 21.2444 19.9455 20.5362 19.4221 19.9974C18.8986 19.4586 18.1713 19.1316 17.3943 19.0856L17.1979 19.08H14.8021L14.6943 19.071C14.5562 19.0476 14.4312 18.9797 14.3413 18.8789C14.2513 18.7783 14.202 18.6511 14.202 18.52C14.202 18.3888 14.2513 18.2617 14.3413 18.161C14.4312 18.0603 14.5562 17.9923 14.6943 17.9689L14.8021 17.96H19.5937V15.72H17.1979V14.6Z" fill="#FF9D00"/>
</svg>
