<svg width="16" height="16" viewBox="0 0 16 16" fill="none" xmlns="http://www.w3.org/2000/svg">
<path fill-rule="evenodd" clip-rule="evenodd" d="M8.00001 2.08331C4.73422 2.08331 2.08334 4.73419 2.08334 7.99998C2.08334 11.2658 4.73422 13.9166 8.00001 13.9166C11.2658 13.9166 13.9167 11.2658 13.9167 7.99998C13.9167 7.58577 14.2525 7.24998 14.6667 7.24998C15.0809 7.24998 15.4167 7.58577 15.4167 7.99998C15.4167 12.0942 12.0942 15.4166 8.00001 15.4166C3.9058 15.4166 0.583344 12.0942 0.583344 7.99998C0.583344 3.90577 3.9058 0.583313 8.00001 0.583313C8.41422 0.583313 8.75001 0.919099 8.75001 1.33331C8.75001 1.74753 8.41422 2.08331 8.00001 2.08331Z" fill="#CBCBCB"/>
<path fill-rule="evenodd" clip-rule="evenodd" d="M11.25 1.33331C11.25 0.919099 11.5858 0.583313 12 0.583313H14.6667C15.0809 0.583313 15.4167 0.919099 15.4167 1.33331V3.99998C15.4167 4.41419 15.0809 4.74998 14.6667 4.74998C14.2525 4.74998 13.9167 4.41419 13.9167 3.99998V2.08331H12C11.5858 2.08331 11.25 1.74753 11.25 1.33331Z" fill="#CBCBCB"/>
<path fill-rule="evenodd" clip-rule="evenodd" d="M15.197 0.802983C15.4899 1.09588 15.4899 1.57075 15.197 1.86364L11.8637 5.19698C11.5708 5.48987 11.0959 5.48987 10.803 5.19698C10.5101 4.90408 10.5101 4.42921 10.803 4.13632L14.1363 0.802983C14.4292 0.51009 14.9041 0.51009 15.197 0.802983Z" fill="#CBCBCB"/>
<path d="M8.625 8.84244H10.5V10.1712H8.625V11.5H7.375V10.1712H5.5V8.84244H7.375V8.17806H5.5V6.84928H7.11625L5.79 5.44011L6.675 4.5L8 5.90983L9.32563 4.5L10.21 5.44011L8.88375 6.84928H10.5V8.17806H8.625V8.84244Z" fill="#CBCBCB"/>
</svg>
