<svg width="77" height="76" viewBox="0 0 77 76" fill="none" xmlns="http://www.w3.org/2000/svg">
<g clip-path="url(#clip0_3_1013)">
<path d="M70.233 25.1897C68.079 25.775 66.811 27.9859 67.3963 30.1399C68.0872 32.6841 68.4367 35.3339 68.4367 38C68.4367 45.9983 65.3235 53.517 59.6662 59.1662C54.0089 64.8235 46.4983 67.9367 38.5 67.9367C30.5017 67.9367 22.983 64.8235 17.3338 59.1662C11.6765 53.5089 8.56332 45.9983 8.56332 38C8.56332 30.0017 11.6765 22.483 17.3338 16.8338C22.9911 11.1765 30.5017 8.06332 38.5 8.06332C46.4983 8.06332 46.3845 8.83551 50.0422 10.3636C52.0987 11.2252 54.4641 10.2498 55.3175 8.2015C56.1791 6.14503 55.2037 3.77968 53.1554 2.9262C48.506 0.983529 43.5802 0 38.5 0C33.4198 0 28.3965 1.00791 23.7064 2.99123C19.1789 4.90952 15.1148 7.64877 11.6277 11.1358C8.14064 14.6229 5.40139 18.6871 3.4831 23.2145C1.50791 27.8965 0.5 32.871 0.5 38C0.5 43.129 1.50791 48.1035 3.49123 52.7936C5.40952 57.3211 8.14877 61.3852 11.6358 64.8723C15.1229 68.3594 19.1871 71.0986 23.7145 73.0169C28.4046 75.0002 33.3791 76.0081 38.5081 76.0081C43.6371 76.0081 48.6117 75.0002 53.3017 73.0169C57.8292 71.0986 61.8934 68.3594 65.3804 64.8723C68.8675 61.3852 71.6067 57.3211 73.525 52.7936C75.5083 48.1035 76.5163 43.129 76.5163 38C76.5163 32.871 76.0692 31.2616 75.1913 28.0265C74.6061 25.8725 72.3952 24.6045 70.2412 25.1897H70.233Z" fill="#B4E06A"/>
<path d="M25.9092 33.3181C24.3323 31.7412 21.78 31.7412 20.2031 33.3181C18.6262 34.895 18.6262 37.4473 20.2031 39.0242L33.6799 52.501C34.4358 53.2569 35.4681 53.6796 36.533 53.6796C37.5978 53.6796 36.6793 53.6796 36.7606 53.6796C37.9067 53.6145 38.9715 53.0699 39.6868 52.1677L68.4855 16.151C69.8754 14.4116 69.5909 11.8755 67.8515 10.4856C66.112 9.09562 63.576 9.38011 62.186 11.1196L36.2078 43.6167L25.9255 33.3343L25.9092 33.3181Z" fill="url(#paint0_linear_3_1013)"/>
</g>
<defs>
<linearGradient id="paint0_linear_3_1013" x1="66.8842" y1="2.64171" x2="23.8853" y2="49.3147" gradientUnits="userSpaceOnUse">
<stop stop-color="#B4E06A"/>
<stop offset="1" stop-color="#77DF68"/>
</linearGradient>
<clipPath id="clip0_3_1013">
<rect width="76" height="76" fill="white" transform="translate(0.5)"/>
</clipPath>
</defs>
</svg>
