<svg width="19" height="18" viewBox="0 0 19 18" fill="none" xmlns="http://www.w3.org/2000/svg">
<path d="M3.79444 12.1961C2.46736 9.86279 1.72454 7.21387 1.63312 4.4982C1.62601 4.28696 1.74269 4.09181 1.92964 3.9932L9.23762 0.138457C9.40182 0.0518294 9.59824 0.0518294 9.76244 0.138457L17.0704 3.9932C17.2574 4.09181 17.3741 4.28696 17.3669 4.4982C17.2755 7.21387 16.5327 9.86279 15.2056 12.1961C13.8779 14.5305 12.0108 16.4692 9.78111 17.8324C9.60848 17.9379 9.39158 17.9379 9.21895 17.8324C6.98926 16.4692 5.12213 14.5305 3.79444 12.1961Z" fill="#AAAAAA"/>
<path d="M6.6875 9.5625L8.9375 11.25L13.4375 6.75" stroke="white" stroke-width="2" stroke-linecap="round" stroke-linejoin="round"/>
</svg>
