<svg width="17" height="15" viewBox="0 0 17 15" fill="none" xmlns="http://www.w3.org/2000/svg">
<path d="M12.7974 14.9296C12.6734 14.9301 12.5512 14.9015 12.4409 14.8463L8.48843 12.8237L4.53599 14.8463C4.40764 14.9122 4.26294 14.9417 4.11833 14.9313C3.97371 14.9209 3.83499 14.871 3.71793 14.7873C3.60087 14.7037 3.51016 14.5896 3.45613 14.4581C3.40209 14.3266 3.38689 14.1828 3.41225 14.0433L4.18724 9.77837L0.994284 6.74823C0.894665 6.65105 0.823996 6.5292 0.789863 6.39574C0.755729 6.26228 0.759419 6.12226 0.800536 5.99069C0.845455 5.85606 0.928081 5.73643 1.03904 5.64538C1.15 5.55432 1.28484 5.4955 1.42828 5.47557L5.84572 4.84681L7.79094 0.960658C7.8544 0.832581 7.95349 0.724567 8.07684 0.648989C8.2002 0.57341 8.34284 0.533325 8.48843 0.533325C8.63402 0.533325 8.77666 0.57341 8.90002 0.648989C9.02338 0.724567 9.12246 0.832581 9.18592 0.960658L11.1544 4.83924L15.5718 5.46799C15.7153 5.48792 15.8501 5.54675 15.9611 5.6378C16.072 5.72885 16.1547 5.84848 16.1996 5.98312C16.2407 6.11468 16.2444 6.25471 16.2103 6.38817C16.1761 6.52163 16.1055 6.64348 16.0058 6.74065L12.8129 9.77079L13.5879 14.0357C13.6155 14.1777 13.601 14.3245 13.5461 14.4588C13.4912 14.593 13.3981 14.7091 13.2779 14.7933C13.1375 14.8894 12.9686 14.9373 12.7974 14.9296Z" fill="white"/>
</svg>
