<svg width="16" height="16" viewBox="0 0 16 16" fill="none" xmlns="http://www.w3.org/2000/svg">
<path d="M8.25464 0C10.4615 0 12.2228 0.668464 13.5385 2.02695C14.7056 3.25606 15.2997 4.78706 15.2997 6.64151C15.2997 8.19407 14.8117 9.57412 13.878 10.8248C12.9443 12.0108 11.9257 12.6146 10.8223 12.6146C9.93103 12.6146 9.44297 12.1402 9.35809 11.1914C8.63661 12.1617 7.74536 12.6577 6.68435 12.6577C5.7931 12.6577 5.07162 12.3342 4.51989 11.7305C3.96817 11.1267 3.69231 10.3504 3.69231 9.42318C3.69231 7.82749 4.15915 6.42588 5.13528 5.26146C6.06896 4.09703 7.15119 3.53639 8.4244 3.53639C9.44297 3.53639 10.122 4.07547 10.4615 5.15364L10.8011 3.94609H12.1592L10.6525 9.57412C10.4828 10.1995 10.3979 10.6307 10.3979 10.8895C10.3979 11.2345 10.5889 11.4286 10.992 11.4286C11.6499 11.4286 12.3077 10.9973 12.9655 10.1563C13.7294 9.16442 14.1114 8 14.1114 6.66307C14.1114 5.13207 13.6021 3.85984 12.5836 2.84636C11.4801 1.74663 9.99469 1.20755 8.16976 1.20755C6.21751 1.20755 4.60477 1.85445 3.35279 3.16981C2.07958 4.46361 1.46419 6.12399 1.46419 8.10782C1.46419 10.2857 2.07958 11.9677 3.35279 13.1536C4.54111 14.2749 6.19629 14.8571 8.27586 14.8571C9.76127 14.8571 11.0557 14.5768 12.1592 14.0377C13.1353 13.5418 13.9416 12.8733 14.5358 12.0108H16C15.2573 13.3046 14.1963 14.2965 12.7958 14.9865C11.4377 15.655 9.93103 16 8.27586 16C5.72944 16 3.71353 15.2884 2.24934 13.8652C0.742706 12.3989 0 10.4798 0 8.06469C0 5.80054 0.742706 3.92453 2.24934 2.41509C3.81963 0.797843 5.81432 0 8.25464 0ZM8.65782 4.89488C7.74536 4.89488 6.96021 5.32614 6.28117 6.23181C5.53846 7.13747 5.17772 8.21563 5.17772 9.48787C5.17772 10.0701 5.30504 10.5229 5.5809 10.8679C5.87798 11.2129 6.28117 11.3854 6.79045 11.3854C7.32095 11.3854 7.85146 11.1698 8.36074 10.7385C8.87003 10.3073 9.20955 9.78976 9.37931 9.22911L9.84615 7.46092C9.99469 6.90027 10.0796 6.55526 10.0796 6.42588C10.0796 6.03774 9.95225 5.69272 9.71883 5.4124C9.42175 5.06738 9.08223 4.89488 8.65782 4.89488Z" fill="white"/>
</svg>
