<svg width="16" height="16" viewBox="0 0 16 16" fill="none" xmlns="http://www.w3.org/2000/svg">
<path fill-rule="evenodd" clip-rule="evenodd" d="M8.00001 2.66667C5.05449 2.66667 2.66668 5.05448 2.66668 8C2.66668 10.9455 5.05449 13.3333 8.00001 13.3333C10.9455 13.3333 13.3333 10.9455 13.3333 8C13.3333 5.05448 10.9455 2.66667 8.00001 2.66667ZM1.33334 8C1.33334 4.3181 4.31811 1.33333 8.00001 1.33333C11.6819 1.33333 14.6667 4.3181 14.6667 8C14.6667 11.6819 11.6819 14.6667 8.00001 14.6667C4.31811 14.6667 1.33334 11.6819 1.33334 8Z" fill="white"/>
<path d="M8.7076 9.24897H7.31579L7.02339 4H9L8.7076 9.24897ZM7 11.0867C7 10.7492 7.09747 10.5144 7.2924 10.3824C7.48733 10.243 7.72515 10.1733 8.00585 10.1733C8.27875 10.1733 8.51267 10.243 8.7076 10.3824C8.90253 10.5144 9 10.7492 9 11.0867C9 11.4094 8.90253 11.6442 8.7076 11.7909C8.51267 11.9303 8.27875 12 8.00585 12C7.72515 12 7.48733 11.9303 7.2924 11.7909C7.09747 11.6442 7 11.4094 7 11.0867Z" fill="white"/>
</svg>
