<svg width="18" height="18" viewBox="0 0 18 18" fill="none" xmlns="http://www.w3.org/2000/svg">
<path d="M9 9C11.148 9 12.8883 7.25977 12.8883 5.11172C12.8883 2.96367 11.148 1.22695 9 1.22695C6.85195 1.22695 5.11172 2.96719 5.11172 5.11172C5.11172 7.25625 6.85195 9 9 9ZM11.7211 9.97031H11.2148C10.5398 10.2797 9.79102 10.4555 9 10.4555C8.20898 10.4555 7.46367 10.2797 6.78516 9.97031H6.27891C4.02539 9.97031 2.19727 11.7984 2.19727 14.052V15.3141C2.19727 16.1191 2.85117 16.773 3.65625 16.773H14.3438C15.1488 16.773 15.8027 16.1191 15.8027 15.3141V14.052C15.8027 11.7984 13.9746 9.97031 11.7211 9.97031Z" fill="#AAAAAA"/>
</svg>
