<svg width="18" height="18" viewBox="0 0 18 18" fill="none" xmlns="http://www.w3.org/2000/svg">
<path d="M3.29444 12.1961C1.96736 9.86276 1.22454 7.21384 1.13312 4.49817C1.12601 4.28693 1.24269 4.09178 1.42964 3.99317L8.73762 0.138427C8.90182 0.0517988 9.09824 0.0517988 9.26244 0.138427L16.5704 3.99317C16.7574 4.09178 16.8741 4.28693 16.8669 4.49817C16.7755 7.21384 16.0327 9.86276 14.7056 12.1961C13.3779 14.5305 11.5108 16.4692 9.28111 17.8323C9.10848 17.9378 8.89158 17.9378 8.71895 17.8323C6.48926 16.4692 4.62213 14.5305 3.29444 12.1961Z" fill="#AAAAAA"/>
<path d="M6.1875 9.5625L8.4375 11.25L12.9375 6.75" stroke="white" stroke-width="2" stroke-linecap="round" stroke-linejoin="round"/>
</svg>
