<svg width="28" height="28" viewBox="0 0 28 28" fill="none" xmlns="http://www.w3.org/2000/svg">
<path d="M4.66669 14H3.33335V24.6667C3.33335 26.1387 4.52802 27.3333 6.00002 27.3333H12.6667V14H6.00002H4.66669ZM22 14H15.3334V27.3333H22C23.472 27.3333 24.6667 26.1387 24.6667 24.6667V14H23.3334H22ZM23.0547 7.33333C23.2294 6.78533 23.3334 6.128 23.3334 5.33333C23.3334 2.76 21.24 0.666668 18.6667 0.666668C16.504 0.666668 15.06 2.64267 14.128 4.78C13.2094 2.76 11.692 0.666668 9.33335 0.666668C6.76002 0.666668 4.66669 2.76 4.66669 5.33333C4.66669 6.128 4.77202 6.78533 4.94535 7.33333H0.666687V12.6667H12.6667V10H14H15.3334V10.1213V12.6667H27.3334V7.33333H23.0547ZM7.33335 5.33333C7.33335 4.23067 8.23069 3.33333 9.33335 3.33333C10.5174 3.33333 11.6187 5.36667 12.264 7.33333H8.66669C8.16802 7.33333 7.33335 7.33333 7.33335 5.33333ZM18.6667 3.33333C19.7694 3.33333 20.6667 4.23067 20.6667 5.33333C20.6667 7.33333 19.832 7.33333 19.3334 7.33333H16.0307C16.7107 5.232 17.6987 3.33333 18.6667 3.33333Z" fill="#C700A7"/>
</svg>
