<svg width="32" height="32" viewBox="0 0 32 32" fill="none" xmlns="http://www.w3.org/2000/svg">
<g clip-path="url(#clip0_2134_2541)">
<path d="M32 19.9692C32 15.5384 27.5692 11.9692 22.0308 11.9692C16.4923 11.9692 12.0615 15.5384 12.0615 19.9692C12.0615 24.4 16.4923 27.9692 22.0308 27.9692C27.5692 27.9692 23.7538 27.8461 24.6154 27.6L30.0308 29.9384L28.1846 26.2461C30.5231 24.7692 32 22.5538 32 19.9692Z" fill="#00C70A"/>
<path d="M12.0615 2C5.41538 2 0 6.43077 0 11.9692C0 17.5077 1.84615 18 4.55385 19.8462L2.95385 23.0462L7.26154 21.2C8.24615 21.5692 9.10769 21.8154 10.2154 21.9385C10.0923 21.3231 9.96923 20.7077 9.96923 20.0923C9.96923 14.5538 15.3846 10.1231 21.9077 10.1231C28.4308 10.1231 23.1385 10.1231 23.6308 10.1231C22.5231 5.44615 17.7231 2 11.8154 2H12.0615Z" fill="#00C70A"/>
<path d="M9.47692 7.90768C9.47692 8.76922 8.86154 9.3846 8 9.3846C7.13846 9.3846 6.52308 8.76922 6.52308 7.90768C6.52308 7.04614 7.13846 6.43076 8 6.43076C8.86154 6.43076 9.47692 7.04614 9.47692 7.90768Z" fill="#FCFCFC"/>
<path d="M17.4769 7.90768C17.4769 8.76922 16.8615 9.3846 16 9.3846C15.1385 9.3846 14.5231 8.76922 14.5231 7.90768C14.5231 7.04614 15.1385 6.43076 16 6.43076C16.8615 6.43076 17.4769 7.04614 17.4769 7.90768Z" fill="#FCFCFC"/>
<path d="M20.5538 18C20.5538 18.8615 19.9385 19.4769 19.0769 19.4769C18.2154 19.4769 17.6 18.8615 17.6 18C17.6 17.1385 18.2154 16.5231 19.0769 16.5231C19.9385 16.5231 20.5538 17.1385 20.5538 18Z" fill="#FCFCFC"/>
<path d="M26.4615 18C26.4615 18.8615 25.8462 19.4769 24.9846 19.4769C24.1231 19.4769 23.5077 18.8615 23.5077 18C23.5077 17.1385 24.1231 16.5231 24.9846 16.5231C25.8462 16.5231 26.4615 17.1385 26.4615 18Z" fill="#FCFCFC"/>
</g>
<defs>
<clipPath id="clip0_2134_2541">
<rect width="32" height="32" fill="white"/>
</clipPath>
</defs>
</svg>
