<?xml version="1.0" encoding="UTF-8"?>
<svg width="34px" height="33px" viewBox="0 0 34 33" version="1.1" xmlns="http://www.w3.org/2000/svg" xmlns:xlink="http://www.w3.org/1999/xlink">
    <title>101B0E16-C89B-44F5-A73D-842947AD4EAB</title>
    <g id="介面" stroke="none" stroke-width="1" fill="none" fill-rule="evenodd">
        <g id="公告展開彈窗" transform="translate(-40.000000, -39.000000)">
            <g id="1" transform="translate(20.000000, 30.000000)">
                <g id="ic_service_d" transform="translate(20.000000, 9.000000)">
                    <circle id="椭圆形" fill="#59A1FE" cx="16" cy="17" r="16"></circle>
                    <path d="M16.0941781,23.2930602 C16.1951029,23.2930602 16.2977901,23.2868481 16.4011708,23.2745684 C17.3925909,23.1555853 18.2344586,22.4626054 18.5451785,21.5076488 C18.5686399,21.4362243 18.5347769,21.3596856 18.4663861,21.3283073 C18.3987755,21.2968135 18.3169493,21.3240311 18.2786944,21.3881167 C18.2750827,21.3942132 17.8811787,22.0304464 16.347689,22.2375545 C16.1181308,22.2683549 15.8947557,22.2845063 15.6830247,22.2845063 C14.6086516,22.2838129 14.1298875,21.8788715 14.1254957,21.8751443 C14.0714361,21.8270656 13.9889165,21.8258232 13.9334989,21.8726594 C13.8775323,21.9194957 13.8646458,22.0008885 13.9028141,22.0631827 C14.370512,22.821404 15.2097793,23.2930602 16.0941781,23.2930602 L16.0941781,23.2930602 Z M24.3396393,13.7892615 C24.3261172,13.7892615 24.3138086,13.7917463 24.300951,13.7917463 C23.4024233,9.90176668 19.9691909,7 15.8528891,7 C11.6233829,7 8.11135816,10.0620096 7.3329404,14.1129834 C6.57607712,14.249187 6,14.9144292 6,15.7189378 L6,18.93885 C6,19.8413072 6.72369363,20.5731199 7.61725168,20.5731199 C8.12129748,20.5731199 8.56619843,20.3350958 8.86215381,19.9695362 C9.57726607,21.8609287 11.0330902,23.3859526 12.8755083,24.1905767 C12.8799001,24.1809841 12.9147745,24.1131423 12.9567566,24.0590827 C12.9857656,24.0216079 13.0182708,23.9909231 13.0461529,23.9909231 C13.0750463,23.9909231 13.1015705,24.0014114 13.1242518,24.0174184 C12.6978427,23.6999374 11.157592,22.0680368 10.8239596,19.7907437 C10.6775855,18.7884019 11.4283523,17.8044363 12.3027251,17.6416796 C13.7064255,17.3803097 15.1027869,17.082563 16.5064873,16.8261338 C17.3988029,16.6633771 18.0085987,16.1738936 18.3814972,15.3588968 C18.4688709,15.1683735 18.5950485,14.7831664 18.6529509,14.2276325 C18.6682933,14.1450262 18.7360195,14.0816051 18.8228154,14.0816051 C18.8807178,14.0816051 18.9299233,14.1111631 18.962544,14.1537231 L19.0012612,14.1296838 C19.5545125,14.932921 20.6516825,16.7114558 20.8092384,18.5868124 C20.990169,20.7309068 20.8892442,22.1994152 19.2480977,23.7017577 C19.2461619,23.7036647 19.243677,23.7060339 19.2413078,23.7079698 C19.2185108,23.7325581 19.2049598,23.7646009 19.2049598,23.799822 C19.2049598,23.8459937 19.229577,23.885491 19.2652315,23.9095303 C19.2787825,23.9150779 19.2923336,23.9225035 19.3058846,23.928051 C19.3169219,23.9305359 19.3274391,23.9341475 19.3385052,23.9341475 C19.3496581,23.9341475 19.3594819,23.9305359 19.3693056,23.928051 C19.3926804,23.9157424 19.4147839,23.9015269 19.4375808,23.8892183 C21.0972769,22.9748858 22.3704946,21.447955 22.9588514,19.6114022 C23.1970199,19.9652311 23.5699184,20.2198688 24.0030887,20.3086872 C23.3082885,23.4686745 20.4899371,25.4464294 16.9982245,25.7466321 C16.7889783,25.2275617 16.2738663,24.8589394 15.6689247,24.8589394 C14.8788629,24.8589394 14.2382378,25.4846843 14.2382378,26.2558787 C14.2382378,27.027102 14.8787473,27.6521246 15.6689247,27.6521246 C16.305938,27.6521246 16.8394262,27.2428781 17.0246331,26.6805832 C21.0664476,26.352036 24.3064697,23.9496055 24.9828647,20.2168061 C25.5803808,19.9670514 26,19.3808326 26,18.6965208 L26,15.4384693 C26,14.5278641 25.2565722,13.7892615 24.3396393,13.7892615 L24.3396393,13.7892615 Z M22.8485941,14.7251484 C21.7944464,11.8695534 19.0627753,9.82961981 15.8492774,9.82961981 C12.649215,9.82961981 9.9273677,11.8522751 8.86339622,14.6893783 C8.81046347,14.6245993 8.74837149,14.5691817 8.68743526,14.5130707 C9.2897765,11.055799 12.2652503,8.42716184 15.8528891,8.42716184 C19.4233652,8.42716184 22.3895643,11.0299394 23.0116686,14.4632006 C22.9501834,14.5458069 22.8935234,14.6320249 22.8485941,14.7251484 L22.8485941,14.7251484 Z" id="形状" fill="#D4EBFF" fill-rule="nonzero"></path>
                    <circle id="椭圆形" fill="#FF5246" opacity="0" cx="29" cy="5" r="5"></circle>
                </g>
            </g>
        </g>
    </g>
</svg>