<svg width="34" height="33" viewBox="0 0 34 33" xmlns="http://www.w3.org/2000/svg">
    <g fill="none" fill-rule="evenodd">
        <circle fill="#59A1FE" cx="16" cy="17" r="16"/>
        <path d="M16.094 23.293a2.589 2.589 0 0 0 2.451-1.785.146.146 0 0 0-.079-.18.148.148 0 0 0-.187.06c-.004.006-.398.642-1.931.85-.23.03-.453.047-.665.047-1.074-.001-1.553-.406-1.558-.41a.147.147 0 0 0-.222.188 2.595 2.595 0 0 0 2.191 1.23zm8.246-9.504c-.014 0-.026.003-.039.003C23.402 9.902 19.969 7 15.853 7c-4.23 0-7.742 3.062-8.52 7.113A1.628 1.628 0 0 0 6 15.719v3.22c0 .902.724 1.634 1.617 1.634.504 0 .95-.238 1.245-.603a7.515 7.515 0 0 0 4.014 4.22.855.855 0 0 1 .08-.13c.03-.038.062-.07.09-.07.029 0 .056.011.078.027-.426-.317-1.966-1.949-2.3-4.226-.146-1.003.604-1.987 1.479-2.15 1.403-.26 2.8-.558 4.203-.815.893-.163 1.503-.652 1.875-1.467.088-.19.214-.576.272-1.131a.174.174 0 0 1 .17-.146c.058 0 .107.03.14.072L19 14.13c.554.803 1.65 2.581 1.808 4.457.181 2.144.08 3.612-1.56 5.115a.134.134 0 0 0-.043.098c-.001.046.024.085.06.11.013.005.026.013.04.018.01.003.021.006.033.006.01 0 .02-.003.03-.006.024-.012.046-.026.069-.039a7.506 7.506 0 0 0 3.52-4.278 1.66 1.66 0 0 0 1.045.698c-.695 3.16-3.513 5.137-7.005 5.438a1.43 1.43 0 0 0-1.33-.888c-.79 0-1.43.626-1.43 1.397s.64 1.396 1.43 1.396c.638 0 1.171-.41 1.357-.971 4.041-.329 7.281-2.731 7.958-6.464A1.649 1.649 0 0 0 26 18.697v-3.259c0-.91-.743-1.649-1.66-1.649zm-1.491.936c-1.055-2.855-3.786-4.895-7-4.895-3.2 0-5.922 2.022-6.986 4.86-.053-.065-.115-.12-.176-.177.603-3.457 3.578-6.086 7.166-6.086 3.57 0 6.537 2.603 7.159 6.036a1.622 1.622 0 0 0-.163.262z" fill="#D4EBFF" fill-rule="nonzero"/>
        <circle fill="#FF5246" cx="29" cy="5" r="5"/>
    </g>
</svg>
