<svg xmlns="http://www.w3.org/2000/svg" width="22.627" height="22.627" viewBox="0 0 22.627 22.627">
  <path id="add-circle" d="M9.2,14h1.6V10.8H14V9.2H10.8V6H9.2V9.2H6v1.6H9.2Zm.8,4a7.786,7.786,0,0,1-3.12-.63,7.982,7.982,0,0,1-4.25-4.25A7.786,7.786,0,0,1,2,10a7.786,7.786,0,0,1,.63-3.12A7.987,7.987,0,0,1,6.88,2.63,7.794,7.794,0,0,1,10,2a7.794,7.794,0,0,1,3.12.63,7.987,7.987,0,0,1,4.25,4.25A7.786,7.786,0,0,1,18,10a7.786,7.786,0,0,1-.63,3.12,7.982,7.982,0,0,1-4.25,4.25A7.786,7.786,0,0,1,10,18Z" transform="translate(11.314 -2.828) rotate(45)" fill="#ccc"/>
</svg>
