<svg xmlns="http://www.w3.org/2000/svg" width="27.513" height="27.539" viewBox="0 0 27.513 27.539">
  <g id="svgviewer-output_2_" data-name="svgviewer-output (2)" transform="translate(-10.484 -5.319)">
    <path id="路径_2841" data-name="路径 2841" d="M31.055,8.581l.472,1.408a2.027,2.027,0,0,0,.823,1.079l1.223.777a2.059,2.059,0,0,1,.784,2.493L33.9,15.466a2.036,2.036,0,0,0,0,1.554l.455,1.079a2.047,2.047,0,0,1-.724,2.471l-1.08.766a2.083,2.083,0,0,0-.8,1.122l-.367,1.317a2.1,2.1,0,0,1-2.194,1.5l-1.152-.1a2.152,2.152,0,0,0-1.5.453l-1.1.879a2.127,2.127,0,0,1-2.66,0l-.971-.75a2.133,2.133,0,0,0-1.344-.475H18.765a2.093,2.093,0,0,1-2.051-1.619l-.3-1.268a2.061,2.061,0,0,0-.867-1.246l-1-.685a2.054,2.054,0,0,1-.8-2.417l.472-1.273a2.051,2.051,0,0,0,0-1.435L13.8,14.23a2.065,2.065,0,0,1,.828-2.471l1.1-.707A2.091,2.091,0,0,0,16.6,9.871l.335-1.176a2.11,2.11,0,0,1,2.194-1.505l1.058.092a2.152,2.152,0,0,0,1.5-.453l1-.8a2.133,2.133,0,0,1,2.671,0l.91.745a2.118,2.118,0,0,0,1.508.475l1.1-.081a2.106,2.106,0,0,1,2.172,1.414Z" transform="translate(0.47 0.5)" fill="none" stroke="#e80000" stroke-width="1.3"/>
    <path id="路径_2842" data-name="路径 2842" d="M6.2,0l3.6,4.951c.1.134,0,.277-.131.238L4.741,3.672a.176.176,0,0,0-.113.01.107.107,0,0,0-.064.072l-.6,3.889c-.034.125-.24.108-.343-.026L0,2.044" transform="matrix(0.985, -0.174, 0.174, 0.985, 26.202, 24.45)" fill="none" stroke="#e80000" stroke-linecap="round" stroke-width="1.3"/>
    <path id="路径_2843" data-name="路径 2843" d="M9.469,2.98,6.207,8.62c-.109.135-.3.153-.343.031L5.142,4.639a.111.111,0,0,0-.065-.07.175.175,0,0,0-.112-.009L.185,6.139c-.16.035-.245-.1-.137-.244L4.292,0" transform="translate(12.446 21.903) rotate(8)" fill="none" stroke="#e80000" stroke-linecap="round" stroke-width="1.3"/>
    <text id="顶" transform="translate(18.531 21.269)" fill="#e80000" font-size="12" font-family="PingFangSC-Medium, PingFang SC" font-weight="500"><tspan x="0" y="0">顶</tspan></text>
  </g>
</svg>
